<svg xmlns="http://www.w3.org/2000/svg" width="630.328" height="487.927" viewBox="0 0 630.328 487.927">
  <g id="Grupo_91030" data-name="Grupo 91030" transform="translate(-304.748 -577)">
    <g id="Grupo_91025" data-name="Grupo 91025" transform="translate(305.076 586.355)" opacity="0.3">
      <g id="Grupo_91019" data-name="Grupo 91019" transform="translate(382.405)">
        <line id="Línea_304" data-name="Línea 304" x2="164.968" transform="translate(0.075 131.01)" fill="none" stroke="#ffec9c" stroke-linecap="round" stroke-linejoin="round" stroke-width="0.656" stroke-dasharray="0.983 2.622"/>
        <path id="Trazado_146129" data-name="Trazado 146129" d="M707.293,898.229H835.268a8.647,8.647,0,0,1,8.647,8.647v99.569" transform="translate(-707.293 -602.178)" fill="none" stroke="#ffec9c" stroke-linecap="round" stroke-linejoin="round" stroke-width="0.656" stroke-dasharray="0.983 2.622"/>
        <path id="Trazado_146130" data-name="Trazado 146130" d="M707.711,746.485h69.025a8.648,8.648,0,0,0,8.648-8.648V671.16a8.647,8.647,0,0,1,8.647-8.648h73.786" transform="translate(-707.314 -590.567)" fill="none" stroke="#ffec9c" stroke-linecap="round" stroke-linejoin="round" stroke-width="0.656" stroke-dasharray="0.983 2.622"/>
        <g id="Grupo_91015" data-name="Grupo 91015" transform="translate(160.503 64.304)">
          <path id="Trazado_146131" data-name="Trazado 146131" d="M891.393,662.116a7.641,7.641,0,1,1-7.641-7.64A7.641,7.641,0,0,1,891.393,662.116Z" transform="translate(-876.112 -654.476)" fill="none" stroke="#fff" stroke-miterlimit="10" stroke-width="0.656"/>
          <circle id="Elipse_5048" data-name="Elipse 5048" cx="3.101" cy="3.101" r="3.101" transform="translate(4.54 4.54)" fill="none" stroke="#fff" stroke-miterlimit="10" stroke-width="0.656"/>
        </g>
        <path id="Trazado_146132" data-name="Trazado 146132" d="M707.372,692.525H815.115a8.647,8.647,0,0,1,8.647,8.648v79.234a8.647,8.647,0,0,0,8.648,8.647h72.157" transform="translate(-707.297 -592.046)" fill="none" stroke="#ffec9c" stroke-linecap="round" stroke-linejoin="round" stroke-width="0.656" stroke-dasharray="0.983 2.622"/>
        <path id="Trazado_146133" data-name="Trazado 146133" d="M929.843,783.218l-6.432,6.431-6.431-6.431a1.081,1.081,0,0,0-1.529,0l-2.328,2.328a1.081,1.081,0,0,0,0,1.529l6.432,6.431-6.432,6.432a1.081,1.081,0,0,0,0,1.529l2.328,2.328a1.081,1.081,0,0,0,1.529,0l6.431-6.432,6.432,6.432a1.081,1.081,0,0,0,1.529,0l2.328-2.328a1.081,1.081,0,0,0,0-1.529l-6.432-6.432,6.432-6.431a1.081,1.081,0,0,0,0-1.529l-2.328-2.328A1.081,1.081,0,0,0,929.843,783.218Z" transform="translate(-717.416 -596.498)" fill="none" stroke="#fff" stroke-miterlimit="10" stroke-width="0.656"/>
        <path id="Trazado_146134" data-name="Trazado 146134" d="M856.874,1008.779l-6.431,6.432-6.432-6.432a1.082,1.082,0,0,0-1.528,0l-2.328,2.328a1.081,1.081,0,0,0,0,1.529l6.431,6.432-6.431,6.431a1.081,1.081,0,0,0,0,1.529l2.328,2.328a1.08,1.08,0,0,0,1.528,0l6.432-6.431,6.431,6.431a1.081,1.081,0,0,0,1.529,0l2.328-2.328a1.081,1.081,0,0,0,0-1.529l-6.431-6.431,6.431-6.432a1.081,1.081,0,0,0,0-1.529l-2.328-2.328A1.083,1.083,0,0,0,856.874,1008.779Z" transform="translate(-713.822 -607.608)" fill="none" stroke="#242854" stroke-miterlimit="10" stroke-width="0.656"/>
        <path id="Trazado_146135" data-name="Trazado 146135" d="M707.711,759.346h89.627a8.649,8.649,0,0,1,8.648,8.648v81.7a8.647,8.647,0,0,0,8.647,8.647h47.984" transform="translate(-707.314 -595.337)" fill="none" stroke="#ffec9c" stroke-linecap="round" stroke-linejoin="round" stroke-width="0.656" stroke-dasharray="0.983 2.622"/>
        <path id="Trazado_146136" data-name="Trazado 146136" d="M707.711,794.055h63.743A8.647,8.647,0,0,1,780.1,802.7V961.309" transform="translate(-707.314 -597.047)" fill="none" stroke="#ffec9c" stroke-linecap="round" stroke-linejoin="round" stroke-width="0.656" stroke-dasharray="0.983 2.622"/>
        <g id="Grupo_91016" data-name="Grupo 91016" transform="translate(65.148 364.262)">
          <path id="Trazado_146137" data-name="Trazado 146137" d="M791.1,977.615a7.641,7.641,0,1,1-7.64-7.641A7.64,7.64,0,0,1,791.1,977.615Z" transform="translate(-775.816 -969.974)" fill="none" stroke="#ffec9c" stroke-miterlimit="10" stroke-width="0.656"/>
          <circle id="Elipse_5049" data-name="Elipse 5049" cx="3.101" cy="3.101" r="3.101" transform="translate(4.54 4.54)" fill="none" stroke="#fff" stroke-miterlimit="10" stroke-width="0.656"/>
        </g>
        <path id="Trazado_146138" data-name="Trazado 146138" d="M707.711,843.166h34.575a8.647,8.647,0,0,1,8.647,8.648V924.5a8.648,8.648,0,0,0,8.648,8.648H908.986" transform="translate(-707.314 -599.466)" fill="none" stroke="#ffec9c" stroke-linecap="round" stroke-linejoin="round" stroke-width="0.656" stroke-dasharray="0.983 2.622"/>
        <rect id="Rectángulo_35823" data-name="Rectángulo 35823" width="5.731" height="5.731" rx="0.328" transform="matrix(0.707, 0.707, -0.707, 0.707, 205.724, 329.629)" fill="none" stroke="#fff" stroke-miterlimit="10" stroke-width="0.656"/>
        <g id="Grupo_91017" data-name="Grupo 91017" transform="translate(159.628 249.436)">
          <path id="Trazado_146139" data-name="Trazado 146139" d="M901.238,860.333h-2.615a10.108,10.108,0,0,0-1.166-2.813l1.849-1.849a1.1,1.1,0,0,0,0-1.548l-1.9-1.9a1.1,1.1,0,0,0-1.548,0l-1.849,1.849a10.109,10.109,0,0,0-2.813-1.166v-2.615A1.094,1.094,0,0,0,890.1,849.2h-2.685a1.094,1.094,0,0,0-1.094,1.094v2.615a10.1,10.1,0,0,0-2.813,1.166l-1.849-1.849a1.1,1.1,0,0,0-1.548,0l-1.9,1.9a1.1,1.1,0,0,0,0,1.548l1.849,1.849a10.108,10.108,0,0,0-1.166,2.813h-2.615a1.094,1.094,0,0,0-1.094,1.094v2.685a1.094,1.094,0,0,0,1.094,1.094H878.9a10.108,10.108,0,0,0,1.166,2.813l-1.849,1.849a1.1,1.1,0,0,0,0,1.548l1.9,1.9a1.1,1.1,0,0,0,1.548,0l1.849-1.849a10.094,10.094,0,0,0,2.813,1.166v2.615a1.094,1.094,0,0,0,1.094,1.094H890.1a1.094,1.094,0,0,0,1.094-1.094v-2.615a10.107,10.107,0,0,0,2.813-1.166l1.849,1.849a1.1,1.1,0,0,0,1.548,0l1.9-1.9a1.1,1.1,0,0,0,0-1.548l-1.849-1.849a10.108,10.108,0,0,0,1.166-2.813h2.615a1.094,1.094,0,0,0,1.094-1.094v-2.685A1.094,1.094,0,0,0,901.238,860.333Z" transform="translate(-875.191 -849.199)" fill="none" stroke="#242854" stroke-miterlimit="10" stroke-width="0.656"/>
          <path id="Trazado_146140" data-name="Trazado 146140" d="M893.828,863.235a4.6,4.6,0,1,1-4.6-4.6A4.6,4.6,0,0,1,893.828,863.235Z" transform="translate(-875.656 -849.664)" fill="none" stroke="#242854" stroke-miterlimit="10" stroke-width="0.656"/>
        </g>
        <g id="Grupo_91018" data-name="Grupo 91018" transform="translate(43.875)">
          <path id="Trazado_146141" data-name="Trazado 146141" d="M779.489,597.974h-2.615a10.092,10.092,0,0,0-1.166-2.813l1.849-1.849a1.093,1.093,0,0,0,0-1.547l-1.9-1.9a1.094,1.094,0,0,0-1.547,0l-1.85,1.85a10.071,10.071,0,0,0-2.813-1.167v-2.615a1.094,1.094,0,0,0-1.093-1.094h-2.686a1.094,1.094,0,0,0-1.094,1.094v2.615a10.094,10.094,0,0,0-2.813,1.167l-1.849-1.85a1.1,1.1,0,0,0-1.548,0l-1.9,1.9a1.094,1.094,0,0,0,0,1.547l1.85,1.849a10.1,10.1,0,0,0-1.167,2.813h-2.615a1.094,1.094,0,0,0-1.094,1.094v2.685a1.094,1.094,0,0,0,1.094,1.094h2.615a10.07,10.07,0,0,0,1.167,2.813l-1.85,1.849a1.1,1.1,0,0,0,0,1.548l1.9,1.9a1.094,1.094,0,0,0,1.548,0l1.849-1.849a10.092,10.092,0,0,0,2.813,1.166v2.615a1.1,1.1,0,0,0,1.094,1.094h2.686a1.094,1.094,0,0,0,1.093-1.094v-2.615a10.069,10.069,0,0,0,2.813-1.166l1.85,1.849a1.093,1.093,0,0,0,1.547,0l1.9-1.9a1.094,1.094,0,0,0,0-1.548l-1.849-1.849a10.066,10.066,0,0,0,1.166-2.813h2.615a1.094,1.094,0,0,0,1.093-1.094v-2.685A1.094,1.094,0,0,0,779.489,597.974Z" transform="translate(-753.441 -586.84)" fill="none" stroke="#242854" stroke-miterlimit="10" stroke-width="0.656"/>
          <path id="Trazado_146142" data-name="Trazado 146142" d="M772.078,600.876a4.6,4.6,0,1,1-4.6-4.6A4.6,4.6,0,0,1,772.078,600.876Z" transform="translate(-753.906 -587.305)" fill="none" stroke="#242854" stroke-miterlimit="10" stroke-width="0.656"/>
        </g>
        <rect id="Rectángulo_35824" data-name="Rectángulo 35824" width="5.731" height="5.731" rx="0.328" transform="translate(168.871 126.958) rotate(45)" fill="none" stroke="#242854" stroke-miterlimit="10" stroke-width="0.656"/>
        <path id="Trazado_146143" data-name="Trazado 146143" d="M707.711,672.226h48.4a8.647,8.647,0,0,0,8.647-8.648V615.389" transform="translate(-707.314 -588.246)" fill="none" stroke="#ffec9c" stroke-linecap="round" stroke-linejoin="round" stroke-width="0.656" stroke-dasharray="0.983 2.622"/>
      </g>
      <g id="Grupo_91024" data-name="Grupo 91024" transform="translate(0 8.486)">
        <line id="Línea_305" data-name="Línea 305" x1="164.968" transform="translate(51.911 122.524)" fill="none" stroke="#ffec9c" stroke-linecap="round" stroke-linejoin="round" stroke-width="0.656" stroke-dasharray="0.983 2.622"/>
        <path id="Trazado_146144" data-name="Trazado 146144" d="M526.192,898.229H398.217a8.647,8.647,0,0,0-8.647,8.647v99.569" transform="translate(-309.238 -610.665)" fill="none" stroke="#ffec9c" stroke-linecap="round" stroke-linejoin="round" stroke-width="0.656" stroke-dasharray="0.983 2.622"/>
        <path id="Trazado_146145" data-name="Trazado 146145" d="M524.557,746.485H455.532a8.648,8.648,0,0,1-8.648-8.648V671.16a8.647,8.647,0,0,0-8.647-8.648H364.451" transform="translate(-308.001 -599.054)" fill="none" stroke="#ffec9c" stroke-linecap="round" stroke-linejoin="round" stroke-width="0.656" stroke-dasharray="0.983 2.622"/>
        <g id="Grupo_91020" data-name="Grupo 91020" transform="translate(41.169 55.818)">
          <path id="Trazado_146146" data-name="Trazado 146146" d="M348.378,662.116a7.641,7.641,0,1,0,7.641-7.64A7.641,7.641,0,0,0,348.378,662.116Z" transform="translate(-348.378 -654.476)" fill="none" stroke="#242854" stroke-miterlimit="10" stroke-width="0.656"/>
          <circle id="Elipse_5050" data-name="Elipse 5050" cx="3.101" cy="3.101" r="3.101" transform="translate(4.54 4.54)" fill="none" stroke="#242854" stroke-miterlimit="10" stroke-width="0.656"/>
        </g>
        <path id="Trazado_146147" data-name="Trazado 146147" d="M522.974,692.525H415.232a8.647,8.647,0,0,0-8.647,8.648v79.234a8.647,8.647,0,0,1-8.648,8.647H325.78" transform="translate(-306.096 -600.532)" fill="none" stroke="#ffec9c" stroke-linecap="round" stroke-linejoin="round" stroke-width="0.656" stroke-dasharray="0.983 2.622"/>
        <path id="Trazado_146148" data-name="Trazado 146148" d="M465.867,596.083l6.432,6.432,6.431-6.432a1.081,1.081,0,0,1,1.529,0l2.328,2.328a1.081,1.081,0,0,1,0,1.529l-6.432,6.432,6.432,6.431a1.081,1.081,0,0,1,0,1.529l-2.328,2.328a1.081,1.081,0,0,1-1.529,0l-6.431-6.432-6.432,6.432a1.081,1.081,0,0,1-1.529,0l-2.328-2.328a1.081,1.081,0,0,1,0-1.529l6.432-6.431-6.432-6.432a1.081,1.081,0,0,1,0-1.529l2.328-2.328A1.081,1.081,0,0,1,465.867,596.083Z" transform="translate(-312.791 -595.766)" fill="none" stroke="#fff" stroke-miterlimit="10" stroke-width="0.656"/>
        <path id="Trazado_146149" data-name="Trazado 146149" d="M353.534,852.636l6.431,6.431,6.432-6.431a1.081,1.081,0,0,1,1.529,0l2.327,2.328a1.08,1.08,0,0,1,0,1.528l-6.431,6.432,6.431,6.431a1.081,1.081,0,0,1,0,1.529l-2.328,2.328a1.08,1.08,0,0,1-1.528,0l-6.432-6.431-6.431,6.431a1.081,1.081,0,0,1-1.529,0l-2.328-2.328a1.081,1.081,0,0,1,0-1.529l6.431-6.431-6.431-6.432a1.08,1.08,0,0,1,0-1.528L352,852.636A1.081,1.081,0,0,1,353.534,852.636Z" transform="translate(-307.257 -608.403)" fill="none" stroke="#242854" stroke-miterlimit="10" stroke-width="0.656"/>
        <path id="Trazado_146150" data-name="Trazado 146150" d="M524.826,759.346H435.2a8.649,8.649,0,0,0-8.648,8.648v81.7a8.647,8.647,0,0,1-8.647,8.647H369.92" transform="translate(-308.27 -603.824)" fill="none" stroke="#ffec9c" stroke-linecap="round" stroke-linejoin="round" stroke-width="0.656" stroke-dasharray="0.983 2.622"/>
        <path id="Trazado_146151" data-name="Trazado 146151" d="M529.1,794.055H465.358a8.648,8.648,0,0,0-8.648,8.648V961.309" transform="translate(-312.545 -605.533)" fill="none" stroke="#ffec9c" stroke-linecap="round" stroke-linejoin="round" stroke-width="0.656" stroke-dasharray="0.983 2.622"/>
        <g id="Grupo_91021" data-name="Grupo 91021" transform="translate(0 317.815)">
          <circle id="Elipse_5051" data-name="Elipse 5051" cx="7.641" cy="7.641" r="7.641" fill="none" stroke="#fff" stroke-miterlimit="10" stroke-width="0.656"/>
          <circle id="Elipse_5052" data-name="Elipse 5052" cx="3.101" cy="3.101" r="3.101" transform="translate(4.54 4.54)" fill="none" stroke="#fff" stroke-miterlimit="10" stroke-width="0.656"/>
        </g>
        <path id="Trazado_146152" data-name="Trazado 146152" d="M522.424,843.166H487.849a8.647,8.647,0,0,0-8.647,8.648V924.5a8.647,8.647,0,0,1-8.648,8.648H321.149" transform="translate(-305.868 -607.952)" fill="none" stroke="#ffec9c" stroke-linecap="round" stroke-linejoin="round" stroke-width="0.656" stroke-dasharray="0.983 2.622"/>
        <rect id="Rectángulo_35825" data-name="Rectángulo 35825" width="5.731" height="5.731" rx="0.328" transform="matrix(-0.707, 0.707, -0.707, -0.707, 18.839, 188.522)" fill="none" stroke="#fff" stroke-miterlimit="10" stroke-width="0.656"/>
        <g id="Grupo_91022" data-name="Grupo 91022" transform="translate(130.594 360.099)">
          <path id="Trazado_146153" data-name="Trazado 146153" d="M443.53,985.656h2.615a10.11,10.11,0,0,1,1.167-2.813l-1.85-1.849a1.1,1.1,0,0,1,0-1.548l1.9-1.9a1.1,1.1,0,0,1,1.548,0l1.849,1.849a10.109,10.109,0,0,1,2.813-1.166v-2.615a1.1,1.1,0,0,1,1.094-1.094h2.685a1.094,1.094,0,0,1,1.094,1.094v2.615a10.1,10.1,0,0,1,2.813,1.166l1.85-1.849a1.094,1.094,0,0,1,1.547,0l1.9,1.9a1.094,1.094,0,0,1,0,1.548l-1.849,1.849a10.111,10.111,0,0,1,1.167,2.813h2.615a1.1,1.1,0,0,1,1.094,1.094v2.685a1.1,1.1,0,0,1-1.094,1.094H465.87a10.1,10.1,0,0,1-1.167,2.813l1.849,1.849a1.094,1.094,0,0,1,0,1.548l-1.9,1.9a1.092,1.092,0,0,1-1.547,0l-1.85-1.849a10.067,10.067,0,0,1-2.813,1.166v2.615a1.094,1.094,0,0,1-1.094,1.093h-2.685a1.094,1.094,0,0,1-1.094-1.093v-2.615a10.079,10.079,0,0,1-2.813-1.166l-1.849,1.849a1.094,1.094,0,0,1-1.548,0l-1.9-1.9a1.1,1.1,0,0,1,0-1.548l1.85-1.849a10.1,10.1,0,0,1-1.167-2.813H443.53a1.1,1.1,0,0,1-1.094-1.094V986.75A1.1,1.1,0,0,1,443.53,985.656Z" transform="translate(-442.436 -974.522)" fill="none" stroke="#fff" stroke-miterlimit="10" stroke-width="0.656"/>
          <path id="Trazado_146154" data-name="Trazado 146154" d="M451.87,988.558a4.6,4.6,0,1,0,4.6-4.6A4.6,4.6,0,0,0,451.87,988.558Z" transform="translate(-442.901 -974.987)" fill="none" stroke="#fff" stroke-miterlimit="10" stroke-width="0.656"/>
        </g>
        <g id="Grupo_91023" data-name="Grupo 91023" transform="translate(20.445 108.952)">
          <path id="Trazado_146155" data-name="Trazado 146155" d="M327.674,721.5h2.615a10.094,10.094,0,0,1,1.167-2.813l-1.85-1.849a1.094,1.094,0,0,1,0-1.547l1.9-1.9a1.094,1.094,0,0,1,1.548,0l1.849,1.849a10.112,10.112,0,0,1,2.813-1.167v-2.615a1.1,1.1,0,0,1,1.094-1.094h2.685a1.1,1.1,0,0,1,1.094,1.094v2.615a10.1,10.1,0,0,1,2.813,1.167l1.849-1.849a1.094,1.094,0,0,1,1.548,0l1.9,1.9a1.093,1.093,0,0,1,0,1.547l-1.849,1.849a10.093,10.093,0,0,1,1.166,2.813h2.615a1.094,1.094,0,0,1,1.093,1.094v2.686a1.094,1.094,0,0,1-1.093,1.094h-2.615a10.073,10.073,0,0,1-1.166,2.812l1.849,1.85a1.093,1.093,0,0,1,0,1.547l-1.9,1.9a1.094,1.094,0,0,1-1.548,0L345.4,732.63a10.1,10.1,0,0,1-2.813,1.167v2.615a1.094,1.094,0,0,1-1.094,1.094h-2.685a1.1,1.1,0,0,1-1.094-1.094V733.8a10.11,10.11,0,0,1-2.813-1.167l-1.849,1.849a1.094,1.094,0,0,1-1.548,0l-1.9-1.9a1.094,1.094,0,0,1,0-1.547l1.85-1.85a10.075,10.075,0,0,1-1.167-2.812h-2.615a1.1,1.1,0,0,1-1.094-1.094v-2.686A1.1,1.1,0,0,1,327.674,721.5Z" transform="translate(-326.58 -710.363)" fill="none" stroke="#fff" stroke-miterlimit="10" stroke-width="0.656"/>
          <path id="Trazado_146156" data-name="Trazado 146156" d="M336.014,724.4a4.6,4.6,0,1,0,4.6-4.6A4.6,4.6,0,0,0,336.014,724.4Z" transform="translate(-327.045 -710.828)" fill="none" stroke="#fff" stroke-miterlimit="10" stroke-width="0.656"/>
        </g>
        <rect id="Rectángulo_35826" data-name="Rectángulo 35826" width="5.731" height="5.731" rx="0.328" transform="translate(84.384 399.609) rotate(135)" fill="none" stroke="#242854" stroke-miterlimit="10" stroke-width="0.656"/>
        <path id="Trazado_146157" data-name="Trazado 146157" d="M529.9,672.226h-48.4a8.647,8.647,0,0,1-8.647-8.648V615.389" transform="translate(-313.34 -596.733)" fill="none" stroke="#ffec9c" stroke-linecap="round" stroke-linejoin="round" stroke-width="0.656" stroke-dasharray="0.983 2.622"/>
      </g>
    </g>
    <g id="Grupo_91029" data-name="Grupo 91029" transform="translate(314.953 577)">
      <g id="Grupo_91026" data-name="Grupo 91026" transform="translate(7.36 10.663)">
        <path id="Trazado_146158" data-name="Trazado 146158" d="M746.833,652.224l-1.867,1.866-1.867-1.866a.785.785,0,0,0-1.111,1.11l1.867,1.867-1.867,1.866a.786.786,0,0,0,1.111,1.111l1.867-1.867,1.867,1.867a.786.786,0,1,0,1.11-1.111l-1.867-1.866,1.867-1.867a.785.785,0,1,0-1.11-1.11Z" transform="translate(-343.823 -591.357)" fill="#242854"/>
        <path id="Trazado_146159" data-name="Trazado 146159" d="M909.951,777.2l-1.867,1.867-1.866-1.867a.786.786,0,0,0-1.111,1.111l1.867,1.866-1.867,1.867a.786.786,0,0,0,1.111,1.11l1.866-1.866,1.867,1.866a.785.785,0,0,0,1.11-1.11L909.2,780.18l1.866-1.866a.786.786,0,1,0-1.11-1.111Z" transform="translate(-351.858 -615.513)" fill="#242854"/>
        <path id="Trazado_146160" data-name="Trazado 146160" d="M798.568,891.651l-1.867,1.867-1.866-1.867a.786.786,0,0,0-1.111,1.11l1.867,1.867-1.867,1.867a.786.786,0,0,0,1.111,1.11l1.866-1.867,1.867,1.867a.785.785,0,1,0,1.111-1.11l-1.866-1.867,1.866-1.867a.785.785,0,0,0-1.111-1.11Z" transform="translate(-346.371 -603.15)" fill="#242854"/>
        <path id="Trazado_146161" data-name="Trazado 146161" d="M921.114,1015.285l-1.866,1.866-1.867-1.866a.785.785,0,0,0-1.11,1.11l1.866,1.867-1.866,1.866a.786.786,0,0,0,1.11,1.111l1.867-1.867,1.866,1.867a.786.786,0,0,0,1.111-1.111l-1.867-1.866,1.867-1.867a.786.786,0,1,0-1.111-1.11Z" transform="translate(-352.407 -609.24)" fill="#242854"/>
        <path id="Trazado_146162" data-name="Trazado 146162" d="M708.189,1040.847l-1.867,1.867-1.867-1.867a.785.785,0,1,0-1.11,1.11l1.866,1.867-1.866,1.867a.785.785,0,0,0,1.11,1.111l1.867-1.867,1.867,1.867a.785.785,0,0,0,1.11-1.111l-1.867-1.867,1.867-1.867a.785.785,0,0,0-1.11-1.11Z" transform="translate(-341.919 -610.5)" fill="#242854"/>
        <path id="Trazado_146163" data-name="Trazado 146163" d="M507.88,1083.688l-1.867,1.866-1.867-1.866a.785.785,0,0,0-1.11,1.111l1.867,1.867-1.867,1.866a.786.786,0,0,0,1.11,1.111l1.867-1.867,1.867,1.867a.786.786,0,1,0,1.11-1.111l-1.866-1.866,1.866-1.867a.785.785,0,0,0-1.11-1.111Z" transform="translate(-332.052 -612.61)" fill="#242854"/>
        <path id="Trazado_146164" data-name="Trazado 146164" d="M337.743,1001.812l-1.867,1.867-1.866-1.867a.786.786,0,0,0-1.111,1.111l1.867,1.866-1.867,1.867a.786.786,0,0,0,1.111,1.111l1.866-1.866,1.867,1.866a.785.785,0,0,0,1.11-1.111l-1.866-1.867,1.866-1.866a.786.786,0,0,0-1.11-1.111Z" transform="translate(-323.672 -608.577)" fill="#242854"/>
        <path id="Trazado_146165" data-name="Trazado 146165" d="M476.059,849.217l-1.866,1.866-1.867-1.866a.785.785,0,0,0-1.11,1.11l1.866,1.867-1.866,1.866a.786.786,0,0,0,1.11,1.111l1.867-1.867,1.866,1.867a.786.786,0,1,0,1.111-1.111l-1.867-1.866,1.867-1.867a.786.786,0,0,0-1.111-1.11Z" transform="translate(-313.485 -623.06)" fill="#242854"/>
        <path id="Trazado_146166" data-name="Trazado 146166" d="M328.281,701.4l-1.867,1.866-1.867-1.866a.785.785,0,0,0-1.11,1.11l1.867,1.867-1.867,1.866a.786.786,0,0,0,1.11,1.111l1.867-1.867,1.867,1.867a.786.786,0,1,0,1.11-1.111l-1.867-1.866,1.867-1.867a.785.785,0,1,0-1.11-1.11Z" transform="translate(-323.206 -593.779)" fill="#242854"/>
        <path id="Trazado_146167" data-name="Trazado 146167" d="M523.6,588.445l-1.867,1.867-1.866-1.867a.786.786,0,0,0-1.111,1.11l1.867,1.867-1.867,1.867a.786.786,0,0,0,1.111,1.11l1.866-1.866L523.6,594.4a.785.785,0,0,0,1.11-1.11l-1.866-1.867,1.866-1.867a.785.785,0,0,0-1.11-1.11Z" transform="translate(-332.827 -588.215)" fill="#242854"/>
        <g id="Grupo_91031" data-name="Grupo 91031" transform="translate(-25.131 -15.137)">
          <g id="Grupo_90760" data-name="Grupo 90760" transform="translate(52.567 66.782)">
            <g id="Grupo_90753" data-name="Grupo 90753" transform="translate(54.531 35.979)">
              <path id="Trazado_143996" data-name="Trazado 143996" d="M193.873,149.619V138.243a2.015,2.015,0,0,0-2.014-2.016H188.93a1.848,1.848,0,0,1-1.808-1.417,40.25,40.25,0,0,0-5.068-12.3,1.876,1.876,0,0,1,.244-2.327l2.06-2.06a2.014,2.014,0,0,0,0-2.849l-8.044-8.044a2.016,2.016,0,0,0-2.85,0l-2.057,2.057a1.879,1.879,0,0,1-2.329.244,40.234,40.234,0,0,0-12.3-5.073,1.848,1.848,0,0,1-1.418-1.808V99.73a2.014,2.014,0,0,0-2.014-2.014H141.968a2.015,2.015,0,0,0-2.014,2.014v2.919a1.846,1.846,0,0,1-1.418,1.807,40.256,40.256,0,0,0-12.3,5.072,1.876,1.876,0,0,1-2.329-.244l-2.054-2.054a2.016,2.016,0,0,0-2.85,0l-8.044,8.044a2.015,2.015,0,0,0,0,2.849l2.058,2.058a1.876,1.876,0,0,1,.244,2.327,40.293,40.293,0,0,0-5.069,12.3,1.848,1.848,0,0,1-1.807,1.417h-2.926a2.015,2.015,0,0,0-2.014,2.016v11.376a2.015,2.015,0,0,0,2.014,2.016h2.927a1.846,1.846,0,0,1,1.807,1.417,40.3,40.3,0,0,0,5.07,12.3,1.876,1.876,0,0,1-.244,2.329l-2.06,2.059a2.016,2.016,0,0,0,0,2.85L119,180.632a2.016,2.016,0,0,0,2.85,0l2.061-2.061a1.876,1.876,0,0,1,2.327-.245,40.276,40.276,0,0,0,12.3,5.065,1.848,1.848,0,0,1,1.418,1.808v2.934a2.015,2.015,0,0,0,2.014,2.016h11.377a2.015,2.015,0,0,0,2.014-2.016V185.2a1.848,1.848,0,0,1,1.418-1.808,40.294,40.294,0,0,0,12.3-5.063,1.874,1.874,0,0,1,2.327.244l2.062,2.063a2.016,2.016,0,0,0,2.85,0l8.044-8.045a2.016,2.016,0,0,0,0-2.85l-2.061-2.06a1.877,1.877,0,0,1-.244-2.329,40.242,40.242,0,0,0,5.068-12.3,1.849,1.849,0,0,1,1.808-1.417h2.93A2.015,2.015,0,0,0,193.873,149.619Zm-46.218,26.388a32.072,32.072,0,1,1,32.058-32.085A32.067,32.067,0,0,1,147.655,176.007Z" transform="translate(-101.441 -97.716)" fill="none" stroke="#fcf8de" stroke-miterlimit="10" stroke-width="0.79"/>
              <path id="Trazado_143997" data-name="Trazado 143997" d="M238.1,182.679v-7.753a1.373,1.373,0,0,0-1.373-1.373h-2a1.259,1.259,0,0,1-1.232-.967,27.432,27.432,0,0,0-3.454-8.381,1.28,1.28,0,0,1,.166-1.587l1.4-1.4a1.374,1.374,0,0,0,0-1.942l-5.482-5.482a1.374,1.374,0,0,0-1.942,0l-1.4,1.4a1.281,1.281,0,0,1-1.587.166,27.419,27.419,0,0,0-8.384-3.457,1.259,1.259,0,0,1-.966-1.232v-1.99a1.373,1.373,0,0,0-1.373-1.373h-7.753a1.373,1.373,0,0,0-1.374,1.373v1.99a1.257,1.257,0,0,1-.966,1.231A27.426,27.426,0,0,0,192,155.358a1.281,1.281,0,0,1-1.587-.166l-1.4-1.4a1.374,1.374,0,0,0-1.942,0l-5.482,5.482a1.374,1.374,0,0,0,0,1.942l1.4,1.4a1.278,1.278,0,0,1,.168,1.586,27.458,27.458,0,0,0-3.455,8.383,1.259,1.259,0,0,1-1.232.967h-1.992a1.373,1.373,0,0,0-1.374,1.373v7.753a1.373,1.373,0,0,0,1.374,1.373h1.993a1.259,1.259,0,0,1,1.232.967,27.457,27.457,0,0,0,3.455,8.382,1.279,1.279,0,0,1-.166,1.586l-1.4,1.4a1.373,1.373,0,0,0,0,1.941l5.482,5.482a1.372,1.372,0,0,0,1.942,0l1.4-1.4a1.279,1.279,0,0,1,1.587-.168,27.472,27.472,0,0,0,8.381,3.452,1.258,1.258,0,0,1,.966,1.232v2a1.373,1.373,0,0,0,1.374,1.373h7.753a1.372,1.372,0,0,0,1.373-1.373v-2a1.26,1.26,0,0,1,.967-1.232,27.429,27.429,0,0,0,8.379-3.451,1.281,1.281,0,0,1,1.587.166l1.405,1.406a1.374,1.374,0,0,0,1.942,0l5.482-5.483a1.373,1.373,0,0,0,0-1.941l-1.405-1.4a1.279,1.279,0,0,1-.166-1.587,27.449,27.449,0,0,0,3.454-8.381,1.259,1.259,0,0,1,1.232-.967h2A1.373,1.373,0,0,0,238.1,182.679Zm-31.5,16.75A20.623,20.623,0,1,1,227.216,178.8,20.621,20.621,0,0,1,206.6,199.429Z" transform="translate(-93.344 -92.265)" fill="#fcf8de"/>
            </g>
            <g id="Grupo_90754" data-name="Grupo 90754" transform="translate(11.153)">
              <circle id="Elipse_5029" data-name="Elipse 5029" cx="3.758" cy="3.758" r="3.758" transform="translate(38.383 324.153)" fill="#ffef5c"/>
              <circle id="Elipse_5030" data-name="Elipse 5030" cx="3.758" cy="3.758" r="3.758" transform="translate(541.875 221.462)" fill="#ffef5c"/>
              <circle id="Elipse_5031" data-name="Elipse 5031" cx="3.758" cy="3.758" r="3.758" transform="translate(534.359 87.263)" fill="#ffef5c"/>
              <circle id="Elipse_5032" data-name="Elipse 5032" cx="2.357" cy="2.357" r="2.357" transform="translate(400.634 43.051)" fill="#ffef5c"/>
              <path id="Trazado_143998" data-name="Trazado 143998" d="M114.049,78.152a2.357,2.357,0,1,1-2.357-2.357A2.357,2.357,0,0,1,114.049,78.152Z" transform="translate(-57.196 -64.147)" fill="#ffef5c"/>
              <path id="Trazado_143999" data-name="Trazado 143999" d="M161.06,208.948a2.357,2.357,0,1,1-2.357-2.357A2.358,2.358,0,0,1,161.06,208.948Z" transform="translate(-52.029 -49.77)" fill="#ffef5c"/>
              <path id="Trazado_144000" data-name="Trazado 144000" d="M83.139,364.357A2.357,2.357,0,1,1,80.781,362,2.358,2.358,0,0,1,83.139,364.357Z" transform="translate(-60.593 -32.688)" fill="#ffef5c"/>
              <circle id="Elipse_5033" data-name="Elipse 5033" cx="3.758" cy="3.758" r="3.758" transform="translate(486.745 326.373)" fill="#ffef5c"/>
              <circle id="Elipse_5034" data-name="Elipse 5034" cx="3.758" cy="3.758" r="3.758" transform="translate(566.659 326.373)" fill="#ffef5c"/>
              <circle id="Elipse_5035" data-name="Elipse 5035" cx="3.758" cy="3.758" r="3.758" transform="translate(117.891)" fill="#ffef5c"/>
              <path id="Trazado_144001" data-name="Trazado 144001" d="M406.583,223.242a5.029,5.029,0,1,1-5.029-5.028A5.029,5.029,0,0,1,406.583,223.242Z" transform="translate(-25.629 -48.493)" fill="#ffef5c"/>
              <path id="Trazado_144002" data-name="Trazado 144002" d="M72.416,167.217a5.028,5.028,0,1,1-5.029-5.029A5.029,5.029,0,0,1,72.416,167.217Z" transform="translate(-62.359 -54.651)" fill="#ffef5c"/>
            </g>
            <g id="Grupo_90755" data-name="Grupo 90755" transform="translate(0 29.705)">
              <rect id="Rectángulo_35452" data-name="Rectángulo 35452" width="7.798" height="7.798" rx="0.664" fill="#fff"/>
              <rect id="Rectángulo_35453" data-name="Rectángulo 35453" width="7.798" height="7.798" rx="0.664" transform="translate(10.431)" fill="#fff"/>
              <rect id="Rectángulo_35454" data-name="Rectángulo 35454" width="7.798" height="7.798" rx="0.664" transform="translate(20.862)" fill="#fff"/>
            </g>
            <g id="Grupo_90757" data-name="Grupo 90757" transform="translate(531.182 303.557)">
              <g id="Grupo_90756" data-name="Grupo 90756" transform="translate(0 0)">
                <rect id="Rectángulo_35455" data-name="Rectángulo 35455" width="7.798" height="7.798" rx="0.664" fill="#fcf8de"/>
                <rect id="Rectángulo_35456" data-name="Rectángulo 35456" width="7.798" height="7.798" rx="0.664" transform="translate(10.431)" fill="#fcf8de"/>
                <rect id="Rectángulo_35457" data-name="Rectángulo 35457" width="7.798" height="7.798" rx="0.664" transform="translate(20.862)" fill="#fcf8de"/>
              </g>
            </g>
            <g id="Grupo_90759" data-name="Grupo 90759" transform="translate(48.962 299.284)">
              <g id="Grupo_90758" data-name="Grupo 90758" transform="translate(0 0)">
                <rect id="Rectángulo_35458" data-name="Rectángulo 35458" width="7.798" height="7.798" rx="0.664" fill="#fcf8de"/>
                <rect id="Rectángulo_35459" data-name="Rectángulo 35459" width="7.798" height="7.798" rx="0.664" transform="translate(10.431)" fill="#fcf8de"/>
                <rect id="Rectángulo_35460" data-name="Rectángulo 35460" width="7.798" height="7.798" rx="0.664" transform="translate(20.862)" fill="#fcf8de"/>
              </g>
            </g>
          </g>
          <g id="Grupo_90769" data-name="Grupo 90769" transform="translate(217.418 59.232)">
            <g id="Grupo_90761" data-name="Grupo 90761">
              <rect id="Rectángulo_35461" data-name="Rectángulo 35461" width="197.565" height="381.655" rx="21.349" fill="#f9d120"/>
              <rect id="Rectángulo_35462" data-name="Rectángulo 35462" width="190.166" height="372.889" rx="18.7" transform="translate(3.699 3.342)" fill="#fff"/>
              <path id="Trazado_144003" data-name="Trazado 144003" d="M385.187,81.014V412.008a14.056,14.056,0,0,1-14.057,14.056h-145.4a14.056,14.056,0,0,1-14.056-14.056V81.014a14.056,14.056,0,0,1,14.056-14.056h24.247a3.556,3.556,0,0,1,3.179,1.963l2.574,5.14a6.947,6.947,0,0,0,6.23,3.857H334.9a6.945,6.945,0,0,0,6.229-3.857l2.575-5.14a3.555,3.555,0,0,1,3.178-1.963H371.13A14.056,14.056,0,0,1,385.187,81.014Z" transform="translate(-199.646 -57.568)" fill="#ffe94e"/>
              <path id="Trazado_144004" data-name="Trazado 144004" d="M323.481,71.906H264.729a2.474,2.474,0,0,1-2.474-2.474h0a2.474,2.474,0,0,1,2.474-2.474h58.752a2.474,2.474,0,0,1,2.474,2.474h0A2.474,2.474,0,0,1,323.481,71.906Z" transform="translate(-194.086 -57.568)" fill="#fffde0"/>
            </g>
            <rect id="Rectángulo_35463" data-name="Rectángulo 35463" width="149.339" height="64.764" rx="8.379" transform="translate(22.42 292.243)" fill="none" stroke="#f8e87d" stroke-linecap="round" stroke-linejoin="round" stroke-width="1" stroke-dasharray="2.837"/>
            <rect id="Rectángulo_35464" data-name="Rectángulo 35464" width="78.272" height="45.471" rx="6.044" transform="translate(84.269 152.612)" fill="none" stroke="#f8e87d" stroke-linecap="round" stroke-linejoin="round" stroke-width="1" stroke-dasharray="2.837"/>
            <g id="Grupo_90765" data-name="Grupo 90765" transform="translate(22.421 203.127)">
              <rect id="Rectángulo_35465" data-name="Rectángulo 35465" width="149.932" height="72.481" rx="7.201" transform="translate(5.436 5.864)" fill="#e4db6e"/>
              <path id="Trazado_144005" data-name="Trazado 144005" d="M370.376,249.489v56.528a7.972,7.972,0,0,1-7.98,7.969H229.017a7.972,7.972,0,0,1-7.98-7.969V249.489a7.982,7.982,0,0,1,7.98-7.98H362.4A7.982,7.982,0,0,1,370.376,249.489Z" transform="translate(-221.037 -241.509)" fill="#fef484"/>
              <rect id="Rectángulo_35466" data-name="Rectángulo 35466" width="50.084" height="50.084" rx="4.861" transform="translate(6.9 16.503)" fill="#fff"/>
              <g id="Grupo_90762" data-name="Grupo 90762" transform="translate(61.849 19.432)">
                <path id="Trazado_144006" data-name="Trazado 144006" d="M313.071,262.424H278.465a1.7,1.7,0,0,1-1.7-1.7h0a1.7,1.7,0,0,1,1.7-1.7h34.606a1.7,1.7,0,0,1,1.7,1.7h0A1.7,1.7,0,0,1,313.071,262.424Z" transform="translate(-276.761 -259.017)" fill="#fef8b6"/>
                <path id="Trazado_144007" data-name="Trazado 144007" d="M297.3,268.553H278.465a1.7,1.7,0,0,1-1.7-1.7h0a1.7,1.7,0,0,1,1.7-1.7H297.3a1.7,1.7,0,0,1,1.7,1.7h0A1.7,1.7,0,0,1,297.3,268.553Z" transform="translate(-276.761 -258.343)" fill="#fef8b6"/>
                <path id="Trazado_144008" data-name="Trazado 144008" d="M352.65,268.553H301.681a1.7,1.7,0,0,1-1.7-1.7h0a1.7,1.7,0,0,1,1.7-1.7H352.65a1.7,1.7,0,0,1,1.7,1.7h0A1.7,1.7,0,0,1,352.65,268.553Z" transform="translate(-274.209 -258.343)" fill="#fef8b6"/>
                <path id="Trazado_144009" data-name="Trazado 144009" d="M307.608,274.682H278.465a1.7,1.7,0,0,1-1.7-1.7h0a1.7,1.7,0,0,1,1.7-1.7h29.143a1.7,1.7,0,0,1,1.7,1.7h0A1.7,1.7,0,0,1,307.608,274.682Z" transform="translate(-276.761 -257.67)" fill="#fef8b6"/>
                <path id="Trazado_144010" data-name="Trazado 144010" d="M328.824,274.682H310.5a1.7,1.7,0,0,1-1.7-1.7h0a1.7,1.7,0,0,1,1.7-1.7h18.32a1.7,1.7,0,0,1,1.7,1.7h0A1.7,1.7,0,0,1,328.824,274.682Z" transform="translate(-273.239 -257.67)" fill="#fef8b6"/>
                <path id="Trazado_144011" data-name="Trazado 144011" d="M349.274,274.682H332.4a1.7,1.7,0,0,1-1.7-1.7h0a1.7,1.7,0,0,1,1.7-1.7h16.872a1.7,1.7,0,0,1,1.7,1.7h0A1.7,1.7,0,0,1,349.274,274.682Z" transform="translate(-270.833 -257.67)" fill="#fef8b6"/>
                <path id="Trazado_144012" data-name="Trazado 144012" d="M355.2,280.812H278.465a1.7,1.7,0,0,1-1.7-1.7h0a1.7,1.7,0,0,1,1.7-1.7H355.2a1.7,1.7,0,0,1,1.7,1.7h0A1.7,1.7,0,0,1,355.2,280.812Z" transform="translate(-276.761 -256.996)" fill="#fef8b6"/>
                <path id="Trazado_144013" data-name="Trazado 144013" d="M320.7,286.941H278.465a1.7,1.7,0,0,1-1.7-1.7h0a1.7,1.7,0,0,1,1.7-1.7H320.7a1.7,1.7,0,0,1,1.7,1.7h0A1.7,1.7,0,0,1,320.7,286.941Z" transform="translate(-276.761 -256.322)" fill="#fef8b6"/>
                <path id="Trazado_144014" data-name="Trazado 144014" d="M350.345,286.941H322.651a1.7,1.7,0,0,1-1.7-1.7h0a1.7,1.7,0,0,1,1.7-1.7h27.695a1.7,1.7,0,0,1,1.7,1.7h0A1.7,1.7,0,0,1,350.345,286.941Z" transform="translate(-271.904 -256.322)" fill="#fef8b6"/>
                <path id="Trazado_144015" data-name="Trazado 144015" d="M303.279,293.07H278.465a1.7,1.7,0,0,1-1.7-1.7h0a1.7,1.7,0,0,1,1.7-1.7h24.814a1.7,1.7,0,0,1,1.7,1.7h0A1.7,1.7,0,0,1,303.279,293.07Z" transform="translate(-276.761 -255.649)" fill="#fef8b6"/>
                <path id="Trazado_144016" data-name="Trazado 144016" d="M331.687,293.07H306.873a1.7,1.7,0,0,1-1.7-1.7h0a1.7,1.7,0,0,1,1.7-1.7h24.814a1.7,1.7,0,0,1,1.7,1.7h0A1.7,1.7,0,0,1,331.687,293.07Z" transform="translate(-273.638 -255.649)" fill="#fef8b6"/>
                <path id="Trazado_144017" data-name="Trazado 144017" d="M349.029,293.07h-14.4a1.7,1.7,0,0,1-1.7-1.7h0a1.7,1.7,0,0,1,1.7-1.7h14.4a1.7,1.7,0,0,1,1.7,1.7h0A1.7,1.7,0,0,1,349.029,293.07Z" transform="translate(-270.587 -255.649)" fill="#fef8b6"/>
                <path id="Trazado_144018" data-name="Trazado 144018" d="M313.071,299.2H278.465a1.7,1.7,0,0,1-1.7-1.7h0a1.7,1.7,0,0,1,1.7-1.7h34.606a1.7,1.7,0,0,1,1.7,1.7h0A1.7,1.7,0,0,1,313.071,299.2Z" transform="translate(-276.761 -254.975)" fill="#fef8b6"/>
                <path id="Trazado_144019" data-name="Trazado 144019" d="M351.03,262.424H316.424a1.7,1.7,0,0,1-1.7-1.7h0a1.7,1.7,0,0,1,1.7-1.7H351.03a1.7,1.7,0,0,1,1.7,1.7h0A1.7,1.7,0,0,1,351.03,262.424Z" transform="translate(-272.589 -259.017)" fill="#fef8b6"/>
              </g>
              <g id="Grupo_90764" data-name="Grupo 90764">
                <path id="Trazado_144020" data-name="Trazado 144020" d="M370.376,249.489v2.375H221.037v-2.375a7.982,7.982,0,0,1,7.98-7.98H362.4A7.982,7.982,0,0,1,370.376,249.489Z" transform="translate(-221.037 -241.509)" fill="#fbc528"/>
                <g id="Grupo_90763" data-name="Grupo 90763" transform="translate(117.49 3.514)">
                  <path id="Trazado_144021" data-name="Trazado 144021" d="M330.591,246.525a1.85,1.85,0,1,1-1.849-1.85A1.85,1.85,0,0,1,330.591,246.525Z" transform="translate(-326.892 -244.675)" fill="#fff4ce"/>
                  <path id="Trazado_144022" data-name="Trazado 144022" d="M339.119,246.525a1.85,1.85,0,1,1-1.849-1.85A1.85,1.85,0,0,1,339.119,246.525Z" transform="translate(-325.955 -244.675)" fill="#fff4ce"/>
                  <path id="Trazado_144023" data-name="Trazado 144023" d="M347.647,246.525a1.85,1.85,0,1,1-1.849-1.85A1.85,1.85,0,0,1,347.647,246.525Z" transform="translate(-325.017 -244.675)" fill="#fff4ce"/>
                </g>
              </g>
            </g>
            <g id="Grupo_90767" data-name="Grupo 90767" transform="translate(31.163 152.654)">
              <rect id="Rectángulo_35467" data-name="Rectángulo 35467" width="45.429" height="45.429" rx="7.151" fill="none" stroke="#fbcd07" stroke-miterlimit="10" stroke-width="0.896"/>
              <g id="Grupo_90766" data-name="Grupo 90766" transform="translate(9.083 16.144)">
                <path id="Trazado_144024" data-name="Trazado 144024" d="M243.642,210.579l-6.545,6.545,6.6,6.6" transform="translate(-237.097 -210.579)" fill="none" stroke="#fbcd07" stroke-linecap="round" stroke-linejoin="round" stroke-width="1.672"/>
                <path id="Trazado_144025" data-name="Trazado 144025" d="M255.768,210.579l6.545,6.545-6.6,6.6" transform="translate(-235.05 -210.579)" fill="none" stroke="#fbcd07" stroke-linecap="round" stroke-linejoin="round" stroke-width="1.672"/>
                <line id="Línea_219" data-name="Línea 219" x1="6.13" y2="13.142" transform="translate(10.567)" fill="none" stroke="#fbcd07" stroke-linecap="round" stroke-linejoin="round" stroke-width="1.672"/>
              </g>
            </g>
            <g id="Grupo_90768" data-name="Grupo 90768" transform="translate(22.42 32.688)">
              <rect id="Rectángulo_35468" data-name="Rectángulo 35468" width="149.339" height="110.581" rx="8.18" fill="#fef8b6"/>
              <circle id="Elipse_5036" data-name="Elipse 5036" cx="21.643" cy="21.643" r="21.643" transform="translate(97.451 7.559)" fill="#fffdf0"/>
              <path id="Trazado_144026" data-name="Trazado 144026" d="M308.82,196.059h-78.7a9.083,9.083,0,0,1-9.079-9.079V172.429l34.441-59.658a4.678,4.678,0,0,1,8.1,0l26.005,45.04L308.9,191.264A4.59,4.59,0,0,1,308.82,196.059Z" transform="translate(-221.037 -85.477)" fill="#fff"/>
              <path id="Trazado_144027" data-name="Trazado 144027" d="M338.16,193.616H262.9l22.087-38.248,11.9-20.611a4.209,4.209,0,0,1,7.292,0Z" transform="translate(-216.436 -83.035)" fill="#fffdf0"/>
            </g>
          </g>
          <g id="Grupo_90779" data-name="Grupo 90779" transform="translate(390.021 207.693)">
            <g id="Grupo_90771" data-name="Grupo 90771" transform="translate(62.802 166.545)">
              <rect id="Rectángulo_35469" data-name="Rectángulo 35469" width="58.022" height="87.198" fill="#fae74e"/>
              <rect id="Rectángulo_35470" data-name="Rectángulo 35470" width="22.217" height="87.198" transform="translate(80.239 87.198) rotate(180)" fill="#ffea57"/>
              <g id="Grupo_90770" data-name="Grupo 90770" transform="translate(61.203 3.349)">
                <rect id="Rectángulo_35471" data-name="Rectángulo 35471" width="16.311" height="2.783" fill="#fff3b6"/>
                <rect id="Rectángulo_35472" data-name="Rectángulo 35472" width="16.311" height="2.783" transform="translate(0 5.978)" fill="#fff3b6"/>
                <rect id="Rectángulo_35473" data-name="Rectángulo 35473" width="16.311" height="2.783" transform="translate(0 11.957)" fill="#fff3b6"/>
                <rect id="Rectángulo_35474" data-name="Rectángulo 35474" width="16.311" height="2.783" transform="translate(0 17.935)" fill="#fff3b6"/>
                <rect id="Rectángulo_35475" data-name="Rectángulo 35475" width="16.311" height="2.783" transform="translate(0 23.913)" fill="#fff3b6"/>
                <rect id="Rectángulo_35476" data-name="Rectángulo 35476" width="16.311" height="2.783" transform="translate(0 29.891)" fill="#fff3b6"/>
                <rect id="Rectángulo_35477" data-name="Rectángulo 35477" width="16.311" height="2.783" transform="translate(0 35.87)" fill="#fff3b6"/>
                <rect id="Rectángulo_35478" data-name="Rectángulo 35478" width="16.311" height="2.783" transform="translate(0 41.848)" fill="#fff3b6"/>
                <rect id="Rectángulo_35479" data-name="Rectángulo 35479" width="16.311" height="2.783" transform="translate(0 47.826)" fill="#fff3b6"/>
                <rect id="Rectángulo_35480" data-name="Rectángulo 35480" width="16.311" height="2.783" transform="translate(0 53.805)" fill="#fff3b6"/>
                <rect id="Rectángulo_35481" data-name="Rectángulo 35481" width="16.311" height="2.783" transform="translate(0 59.783)" fill="#fff3b6"/>
                <rect id="Rectángulo_35482" data-name="Rectángulo 35482" width="16.311" height="2.783" transform="translate(0 65.761)" fill="#fff3b6"/>
                <rect id="Rectángulo_35483" data-name="Rectángulo 35483" width="16.311" height="2.783" transform="translate(0 71.74)" fill="#fff3b6"/>
                <rect id="Rectángulo_35484" data-name="Rectángulo 35484" width="16.311" height="2.783" transform="translate(0 77.718)" fill="#fff3b6"/>
              </g>
            </g>
            <g id="Grupo_90778" data-name="Grupo 90778">
              <path id="Trazado_144028" data-name="Trazado 144028" d="M404.441,422.036h29.488s1.648-5.251-1.923-11.756c0,0-2.373,1.9-9.483.616a31.621,31.621,0,0,1-5.016,3.505C415.447,415.4,403.646,417.714,404.441,422.036Z" transform="translate(-351.064 -168.293)" fill="#281616"/>
              <path id="Trazado_144029" data-name="Trazado 144029" d="M406.355,346.549c1.906,11.364,10.693,49.813,14.472,72.527,6.9.588,10.22-.2,11.978-.609-.344-7.92-1.026-26.865-.946-35.174.131-14.042.79-32.558-5.391-42.721l-20.784,1.636c.125,1.1.241,1.99.343,2.628C406.128,345.448,406.242,346.014,406.355,346.549Z" transform="translate(-350.923 -175.955)" fill="#002c54"/>
              <path id="Trazado_144030" data-name="Trazado 144030" d="M356.385,422.036h29.489s1.647-5.251-1.925-11.756c0,0-2.373,1.9-9.483.616a31.621,31.621,0,0,1-5.016,3.505C367.391,415.4,355.59,417.714,356.385,422.036Z" transform="translate(-356.346 -168.293)" fill="#281616"/>
              <path id="Trazado_144031" data-name="Trazado 144031" d="M371.9,419.088a33.823,33.823,0,0,0,11.648,1.041c1.568-9.129,4.044-29.217,6.274-38.634,3.458-14.635,6.844-34.764,4.492-41.945l-20.445-5.134C373.8,335.063,372.138,396.664,371.9,419.088Z" transform="translate(-354.637 -176.632)" fill="#052635"/>
              <path id="Trazado_144032" data-name="Trazado 144032" d="M453.083,316.226h0c-.411-4.041-.883-6.992-.883-6.992l-22.842,5.591-19.4,4.421c-7.192,1.6-15.883,3.533-23.544,5.264-8.6,1.952-14.3,8.483-12.421,17.09l2.155,10.442c12.023-.164,68.554-5.584,73.389-8.026C455,341.258,456.641,331.5,453.083,316.226Z" transform="translate(-354.447 -179.4)" fill="#052635"/>
              <path id="Trazado_144033" data-name="Trazado 144033" d="M483.805,316.364h0a31.529,31.529,0,0,0-2.38-8.377l-21.346,6.975-19.4,4.421c-7.192,1.6-15.883,3.533-23.544,5.264-8.6,1.952-14.3,8.483-12.421,17.09l2.154,10.442c12.024-.164,62.278-1.916,73.39-8.026C485.618,341.206,487.363,331.642,483.805,316.364Z" transform="translate(-351.07 -179.537)" fill="#002c54"/>
              <g id="Grupo_90772" data-name="Grupo 90772" transform="translate(35.222 102.056)">
                <path id="Trazado_144034" data-name="Trazado 144034" d="M421.658,286.239s10.146-4.583,12.938.014c1.528,2.516.472,7.19-2.989,9.152s-23.013,10.232-41.469,14.844a44.948,44.948,0,0,0-2.059-5.265,97.123,97.123,0,0,0,16.51-9.216,105.209,105.209,0,0,1,17.068-9.53Z" transform="translate(-388.08 -284.207)" fill="#e5918f"/>
              </g>
              <path id="Trazado_144035" data-name="Trazado 144035" d="M421.48,257.494l-8.7,34.729s.9,8.781,9.766,4.472,14.743-31.979,14.743-31.979Z" transform="translate(-350.143 -185.087)" fill="#e5918f"/>
              <path id="Trazado_144036" data-name="Trazado 144036" d="M435.726,278.9c-1.077-.26-2.1-.544-3.092-.841q-1.522-.445-2.895-.927a48.783,48.783,0,0,1-12.727-6.234c2.6-11.292,5.727-18.875,8.51-23.872a3.341,3.341,0,0,0,.21-.371l.223-.371a21.7,21.7,0,0,1,6.048-6.3c.247-.173.483-.334.73-.507l1.027,18.134.173,1.867Z" transform="translate(-349.678 -187.067)" fill="#fff"/>
              <path id="Trazado_144037" data-name="Trazado 144037" d="M434.466,277.139c-1.077-.26-2.1-.544-3.092-.841q-1.522-.445-2.895-.927c1.735-12.215,3.3-19.89,3.3-19.89l.89,2.239Z" transform="translate(-348.418 -185.308)" fill="#c7e5f2"/>
              <path id="Trazado_144038" data-name="Trazado 144038" d="M485.778,248.22c-.21,5.369-1.15,13.989-1.967,22.648-.26,2.746-.506,5.5-.717,8.163-.149,1.657-2.647,10.5-2.746,12.085-.445,7.57-4.155,13.235-.643,24.762a18.188,18.188,0,0,1,1.051,5.319c0,.791-1.027,1.62-1.435,1.842-1.472.854-4.366,1.447-7.879,1.88h-.012a204.109,204.109,0,0,1-21.868,1c-7.557,0-18.9-1.2-20.335-3.1-1.311-1.745-.1-4.28.519-7.781,2.783-15.8,1.794-24.033,1.62-35.436,0-.285-.012-.569-.012-.867-.285-17.588-1.447-32.64-.632-38.071.247-.173.483-.334.73-.507,1.2-.816,2.375-1.546,3.513-2.189.1-.05.222-.123.346-.2.346-.2.7-.384,1.039-.569a3.658,3.658,0,0,1,.4-.2,86.089,86.089,0,0,1,8.435-3.328c.272-.087.519-.173.729-.235q3.025-.185,6.568-.087c2.053.062,5.194.334,8.609.779h.012a89.136,89.136,0,0,1,11.429,2.14.449.449,0,0,1,.062.026,23.526,23.526,0,0,1,8.993,6.3A30.4,30.4,0,0,1,485.778,248.22Z" transform="translate(-348.4 -187.744)" fill="#fff"/>
              <path id="Trazado_144039" data-name="Trazado 144039" d="M475.629,313.254a18.188,18.188,0,0,1,1.051,5.319c0,.791-1.027,1.62-1.435,1.842-1.472.854-4.366,1.447-7.879,1.88,1.447-.173,3.946-2.468,3.946-4.54,0-1.45-1.879-11.243-1.36-17.563s1.546-16.352-.408-24.391-3.81-18.616-3.81-18.616l11.021,6.655s1.422,1.991,2.98,4.4c-.26,2.746-.506,5.5-.717,8.163C478.869,278.065,472.116,301.727,475.629,313.254Z" transform="translate(-344.323 -185.121)" fill="#c7e5f2"/>
              <g id="Grupo_90776" data-name="Grupo 90776" transform="translate(77.645)">
                <path id="Trazado_144040" data-name="Trazado 144040" d="M430.966,204.863s.955,11.526,4.776,12.3,2.884-4.123,2.884-4.123l-.534-5.473Z" transform="translate(-425.789 -190.872)" fill="#002c54"/>
                <path id="Trazado_144041" data-name="Trazado 144041" d="M447.342,245.358c-7.483-.89-4.687-8.163-3.661-9.833.272-.087,1.558-.483,1.657-.544a.038.038,0,0,1,.024-.012,2.061,2.061,0,0,0,.582-.867c.73-1.917.4-5.738.371-5.986v-.7c.124-.458.247-.891.346-1.3l3.934-3.092,8.324-6.543s-2.214,10.947-.433,17.849a2.6,2.6,0,0,0,1.1,1.657c0,.012.012,0,.012,0a2,2,0,0,0,.829.3C462.469,237.245,459.624,246.818,447.342,245.358Z" transform="translate(-424.542 -189.595)" fill="#e5918f"/>
                <path id="Trazado_144042" data-name="Trazado 144042" d="M453.579,222.744a12.418,12.418,0,0,1-8,10.665c.736-1.906.4-5.73.374-5.977l3.322-2.607Z" transform="translate(-424.183 -188.906)" fill="#cc6362"/>
                <path id="Trazado_144043" data-name="Trazado 144043" d="M432.613,207.474s1.729,23.915,8.187,25.948a16.8,16.8,0,0,0,14.135-7.171c1.7-2.29,3.853-2.8,4.555-5.568,1.141-4.491,2.75-12.773.7-17.764C457.263,195.809,432.89,190.165,432.613,207.474Z" transform="translate(-425.608 -191.842)" fill="#e5918f"/>
                <path id="Trazado_144044" data-name="Trazado 144044" d="M460.979,199.386c-.107-4.344-4.5-5.968-4.5-5.968-4.377-2.048-13.474-1.164-22.853.928-2.2.491-4.958-.859-6.494.206-1.856,1.288-.008,7.17-.008,7.17,3.617,10.956,16.93,7.393,20.931,6.041.951,2.82.828,6.743,3.2,8.765,1.352,1.152,3.7,1.185,6.089.787.294.559,1.4,1.052,1.623,1.819.753,2.562.645,6.565.622,9.655l1.129-.551C460.861,227.4,472.537,199.744,460.979,199.386Z" transform="translate(-426.302 -192.257)" fill="#002c54"/>
                <g id="Grupo_90773" data-name="Grupo 90773" transform="translate(7.964 19.076)">
                  <path id="Trazado_144045" data-name="Trazado 144045" d="M439.142,213.909c.337,1.987-.642,3.809-2.188,4.072s-3.073-1.133-3.411-3.12.642-3.808,2.188-4.071S438.8,211.923,439.142,213.909Z" transform="translate(-433.477 -209.3)" fill="none" stroke="#fff" stroke-miterlimit="10" stroke-width="0.501"/>
                  <path id="Trazado_144046" data-name="Trazado 144046" d="M446.172,212.6c.339,1.986-.642,3.809-2.186,4.072s-3.073-1.134-3.412-3.12.642-3.809,2.188-4.072S445.835,210.61,446.172,212.6Z" transform="translate(-432.704 -209.444)" fill="none" stroke="#fff" stroke-miterlimit="10" stroke-width="0.501"/>
                  <path id="Trazado_144047" data-name="Trazado 144047" d="M438.581,213.639s.341-.555,2.138-.4" transform="translate(-432.916 -209.03)" fill="none" stroke="#fff" stroke-miterlimit="10" stroke-width="0.501"/>
                  <line id="Línea_220" data-name="Línea 220" y1="1.066" x2="6.67" transform="translate(13.535 2.562)" fill="none" stroke="#fff" stroke-miterlimit="10" stroke-width="0.501"/>
                </g>
                <g id="Grupo_90774" data-name="Grupo 90774" transform="translate(26.752 20.035)">
                  <path id="Trazado_144048" data-name="Trazado 144048" d="M452.312,220.378c4.594,1.759,6.028-9.546,1.666-10.048-3.308-.38-3.443,4.235-3.443,4.235S449.689,219.373,452.312,220.378Z" transform="translate(-450.405 -210.308)" fill="#e5918f"/>
                </g>
                <g id="Grupo_90775" data-name="Grupo 90775" transform="translate(28.618 21.762)" opacity="0.5">
                  <path id="Trazado_144049" data-name="Trazado 144049" d="M453.642,211.864s-2.715,1.435-.972,5.844" transform="translate(-452.086 -211.864)" fill="none" stroke="#cc6362" stroke-miterlimit="10" stroke-width="0.724"/>
                  <path id="Trazado_144050" data-name="Trazado 144050" d="M454.354,213.8a2.4,2.4,0,0,0-2.231,1.656" transform="translate(-452.082 -211.651)" fill="none" stroke="#cc6362" stroke-miterlimit="10" stroke-width="0.724"/>
                </g>
              </g>
              <path id="Trazado_144051" data-name="Trazado 144051" d="M494.237,293.786v.012c-2.02,2.342-9.681,4.049-13.367.809-1.158-1.032-2.465-3.751-3.75-7.126a220.8,220.8,0,0,1-6.361-21.535l17.144-8.761s2.205,9.888,4.106,19.287c0,0,.017.094.052.262.618,3.01,1.193,5.97,1.646,8.512a1.173,1.173,0,0,1,.032.2A35.93,35.93,0,0,1,494.237,293.786Z" transform="translate(-343.771 -185.12)" fill="#e5918f"/>
              <path id="Trazado_144052" data-name="Trazado 144052" d="M464.925,256.079c1.656,6.885,6.859,19.931,6.859,19.931a27.158,27.158,0,0,0,12.583-1.522,23.172,23.172,0,0,0,8.014-5.205s-3.451-9.7-6.547-16.668c-2.78-6.255-4.45-8.591-5.653-9.831a27.3,27.3,0,0,0-6.807-5.063Z" transform="translate(-344.412 -187.26)" fill="#fff"/>
              <path id="Trazado_144053" data-name="Trazado 144053" d="M486.239,260.766l-10.06-4.341L468.252,236s1.453.442,3.365,1.214h.009c.038.018.12.046.258.1a.9.9,0,0,1,.148.064c1.71.8,8.341,4.708,12.929,18.907.038.119.074.239.111.358.487,1.637.846,2.951,1.039,3.633.019.064.037.128.056.2C486.194,260.572,486.212,260.673,486.239,260.766Z" transform="translate(-344.046 -187.449)" fill="#fff"/>
              <g id="Grupo_90777" data-name="Grupo 90777" transform="translate(86.129 91.099)">
                <path id="Trazado_144054" data-name="Trazado 144054" d="M497.133,291.9v.012c-.149,1.255-.494,2.158-1.114,2.476-.1.064-1.506.9-1.6.966a85.593,85.593,0,0,1-10.626,5.494,384.381,384.381,0,0,1-37.109,13.333,43.77,43.77,0,0,0-2.27-5.179,97.311,97.311,0,0,0,16.109-9.889c8-6.1,19.5-13.518,19.5-13.518l2.9-3.417s10.326-9.5,11.984-7.591c0,0,.017.094.052.262.245.99,1.066,4.636,1.646,8.512a1.173,1.173,0,0,1,.032.2A35.93,35.93,0,0,1,497.133,291.9Z" transform="translate(-432.796 -274.335)" fill="#e5918f"/>
                <path id="Trazado_144055" data-name="Trazado 144055" d="M446.747,305.188a6.387,6.387,0,0,1-4.076.784c-1.139-.24-1.6-.7-2.439-.852a18.979,18.979,0,0,1-4.192-.969c-1.109-.545-1.543-.6-1.5.508s2.228,2.078,2.821,2.386a5.6,5.6,0,0,1,1.418,1.421c.08.124-3.648,2.076-4.651,1.679a2.9,2.9,0,0,0-.129,1.4c.17.5.937.678,1,.929s-.175.767-.01,1.167.851.4,1.128,1.051-.028.66.173,1.337,1.068.8,1.232,1.149.077.758.441,1,3.717-.836,4.94-1.361,4.5-5.233,8.116-6.838Z" transform="translate(-433.946 -271.099)" fill="#e5918f"/>
              </g>
              <path id="Trazado_144056" data-name="Trazado 144056" d="M463.5,324.239h-26.08v-2.553H463.5a1.276,1.276,0,0,1,1.275,1.276h0A1.276,1.276,0,0,1,463.5,324.239Z" transform="translate(-347.435 -178.031)" fill="#375f84"/>
              <path id="Trazado_144057" data-name="Trazado 144057" d="M456.167,329.087h-65.3a1.742,1.742,0,0,1-1.677-1.275L375.826,279.7a1.672,1.672,0,0,1,1.61-2.119h63.145a3.276,3.276,0,0,1,3.157,2.4l13.317,47.939A.922.922,0,0,1,456.167,329.087Z" transform="translate(-354.212 -182.879)" fill="#375f84"/>
              <path id="Trazado_144058" data-name="Trazado 144058" d="M454.038,329.087h-65.3a1.742,1.742,0,0,1-1.677-1.275L373.7,279.7a1.671,1.671,0,0,1,1.61-2.119h63.145a3.276,3.276,0,0,1,3.157,2.4l13.317,47.939A.922.922,0,0,1,454.038,329.087Z" transform="translate(-354.446 -182.879)" fill="#467cdb"/>
            </g>
          </g>
          <g id="Grupo_90780" data-name="Grupo 90780" transform="translate(104.533 270.059)">
            <path id="Trazado_144059" data-name="Trazado 144059" d="M212.9,297.993l7.564-7.755a20.215,20.215,0,0,1,.675-4.188c.412-.729,1.475-3.431,2.006-3.726a2.75,2.75,0,0,1,1.59,0,7.282,7.282,0,0,1,1.522-.353,4.462,4.462,0,0,1,1.353.431s1.131-.078,1.6-.078a1,1,0,0,1,.623.133,33.408,33.408,0,0,1,2.707-2.8c.883-.707,2.234-2.008,2.635-2,.376.006.544.669.269,1.376a7.871,7.871,0,0,1-1.472,1.846l-3.446,5.223a7.4,7.4,0,0,0,.9-.432c.314-.2,2.416-2.16,2.543-2.239s1.07-.707,1.619-.079-3.608,5.609-4.275,6.278a36.5,36.5,0,0,1-4.49,2.6s-4.036,7.259-4.429,7.731S212.9,297.993,212.9,297.993Z" transform="translate(-86.626 -245.237)" fill="#e49191"/>
            <path id="Trazado_144060" data-name="Trazado 144060" d="M222.1,264.994s-4.225,24.475-8.2,25.043c0,0-15.877.64-19.415-18.62-3.067-16.7,9.237-20.265,14.991-18.987S223.333,254.537,222.1,264.994Z" transform="translate(-88.704 -248.035)" fill="#e49191"/>
            <path id="Trazado_144061" data-name="Trazado 144061" d="M208.228,284.079s-2.224,3-3,10.261a23.572,23.572,0,0,1-12.709-2.193,89.888,89.888,0,0,0,3.688-21.366" transform="translate(-88.867 -245.992)" fill="#e49191"/>
            <path id="Trazado_144062" data-name="Trazado 144062" d="M203.914,248.743c-8.676,1.916-7.983,7.321-7.983,7.321-4.062,1.007-4.935,2.683-4.9,10.18s2.746,16.5,4.242,17.235,9.978.768,10.687.511,3.676-7.136,2.985-8.347.034-5.968,2.01-6.149,1.588,2.882,1.588,2.882l1.624-.356,1.253-3.074c11.465.681,14.428-12.383,14.428-12.383C227.093,254.767,212.59,246.827,203.914,248.743Z" transform="translate(-89.03 -248.447)" fill="#002c54"/>
            <path id="Trazado_144063" data-name="Trazado 144063" d="M116.348,398.009l8.773,1.268-2.906,10.243-9.5-2.4a6.177,6.177,0,0,1,1.971-9.116A3.185,3.185,0,0,1,116.348,398.009Z" transform="translate(-97.776 -232.02)" fill="#e5918f"/>
            <path id="Trazado_144064" data-name="Trazado 144064" d="M181.009,378.231l-12.931-39.152s-3.919-1.4-5.927,0c0,0-13.469,7.244-12.033,27.9,1.083,15.57,4.371,32.456,5.7,39.228l-34.5-1.275a11.754,11.754,0,0,0-1.5,11.644s43.348,11.657,49.454,12.735c4.962.876,10.394,1.552,13.017-.7C186.913,424.653,181.009,378.231,181.009,378.231Z" transform="translate(-96.959 -238.553)"/>
            <path id="Trazado_144065" data-name="Trazado 144065" d="M153.149,398.009l8.773,1.268-2.906,10.243-9.5-2.4a6.177,6.177,0,0,1,1.971-9.116A3.185,3.185,0,0,1,153.149,398.009Z" transform="translate(-93.731 -232.02)" fill="#e5918f"/>
            <path id="Trazado_144066" data-name="Trazado 144066" d="M151.321,403.639c-.2,2.017,1.568,3.834,1.244,4.336s-6.22,10.4-6.22,10.4,4.453,1.939,3.735,4.739H138.806a9.354,9.354,0,0,1-2.872-6.463,32.692,32.692,0,0,1,2.777-8.258c2.01-3.878,6.582-12.633,6.582-12.633a6.374,6.374,0,0,1,3.758.071,22.848,22.848,0,0,1,5.454,2.441S151.8,398.657,151.321,403.639Z" transform="translate(-95.086 -232.281)" fill="#467cdb"/>
            <path id="Trazado_144067" data-name="Trazado 144067" d="M239.562,420.326c-2.784-10.387-28.974-54.729-37.834-66.7-18.2-7.9-37.6-14.608-37.6-14.608-8.021,1.917-11.973,18.079-7.423,28.856,3.121,7.392,22.922,26,35.048,36.952l-33.649-.041s-3.964,5.926-.372,11.553c0,0,55.964,12.724,60.873,13.443s15.924,0,15.924,0S241.906,429.07,239.562,420.326Z" transform="translate(-93.013 -238.492)" fill="#002c54"/>
            <path id="Trazado_144068" data-name="Trazado 144068" d="M114.52,403.639c-.2,2.017,1.568,3.834,1.244,4.336s-6.22,10.4-6.22,10.4,4.453,1.939,3.735,4.739H102a9.354,9.354,0,0,1-2.872-6.463,32.692,32.692,0,0,1,2.777-8.258c2.01-3.878,6.582-12.633,6.582-12.633a6.374,6.374,0,0,1,3.758.071,22.848,22.848,0,0,1,5.454,2.441S115,398.657,114.52,403.639Z" transform="translate(-99.131 -232.281)" fill="#467cdb"/>
            <path id="Trazado_144069" data-name="Trazado 144069" d="M273.254,289.188l-18.048,31.747L242.28,308.051l-10.7,15.925,3.107,1.492-1.118.93s24.943,12.148,27.933,9.468S278.419,292.8,278.419,292.8Z" transform="translate(-84.572 -243.969)" fill="#e49191"/>
            <path id="Trazado_144070" data-name="Trazado 144070" d="M253.044,310.642s-3.407,14.373-10.222,21.188l-17.437-6.637s-8.091,13.608-16,24.041c-3.041,4.029-4.051,9.7-7.625,10.444-.222-.078-.433-.144-.655-.2-9.69-2.908-23.985.178-35.784-4.207-13.03-4.85-10.5-7.581-10.5-7.581A168.319,168.319,0,0,0,167.2,318.367a179.792,179.792,0,0,0,4.306-17.681,20.358,20.358,0,0,1,17.137-16.393c.1-.011.189-.033.289-.044,9.878-1.254,35.739,1.8,40.767,3.951S253.044,310.642,253.044,310.642Z" transform="translate(-93.032 -244.544)" fill="#467cdb"/>
            <path id="Trazado_144071" data-name="Trazado 144071" d="M220.717,321.338s-8.091,13.608-16,24.041c-3.041,4.029-4.051,9.7-7.625,10.444,1.565-.555,4.162-8.79,5.083-10.644s2.408-3.7,5.605-10.167,7.509-15.982,7.509-15.982Z" transform="translate(-88.364 -240.689)" fill="#5996ef"/>
            <path id="Trazado_144072" data-name="Trazado 144072" d="M188.1,398.309a56.468,56.468,0,0,1,17.395,2.5" transform="translate(-89.352 -231.976)" fill="none" stroke="#000" stroke-miterlimit="10" stroke-width="1.065"/>
            <path id="Trazado_144073" data-name="Trazado 144073" d="M282.719,279.222a17.052,17.052,0,0,0-3.035,2.19l1.03-1.97a19.318,19.318,0,0,0,1.85-2.037c.489-.721.232-1.443-.154-1.481a15.065,15.065,0,0,0-2.842,2.032l.206-.4a19.363,19.363,0,0,0,1.851-2.036c.489-.721.232-1.443-.155-1.482s-3.517,2.589-3.517,2.589l-1.524,2.041,1.149-2.233a9.547,9.547,0,0,0,1.009-1.546c.4-.808.112-1.054-.112-1.323s-2.332,1.3-2.869,1.928a32.458,32.458,0,0,0-2.377,3.532l-1.76,3.643c-.113-1.054-.29-2.861-.414-4.013-.18-1.659-1.682-2.051-1.734-1.244s-.89,4.776-.7,6.928.551,3.565.685,4.776-1.121,3.631-1.121,3.631,5.022,3.119,5.853,2.184a38.848,38.848,0,0,0,3.452-4.4,23.409,23.409,0,0,0,1.967-4.44l1.568-3.354a19.364,19.364,0,0,0,1.851-2.036C283.364,279.982,283.107,279.26,282.719,279.222Z" transform="translate(-80.549 -245.689)" fill="#e49191"/>
          </g>
          <g id="Grupo_90782" data-name="Grupo 90782" transform="translate(529.271 202.505)">
            <path id="Trazado_144074" data-name="Trazado 144074" d="M547.538,187.583h-58.9a6.835,6.835,0,0,0-6.835,6.834v13.914a6.836,6.836,0,0,0,5.972,6.78.986.986,0,0,1,.862.979v7.616a.452.452,0,0,0,.82.263l6-8.389a.993.993,0,0,1,.808-.415h51.268a6.835,6.835,0,0,0,6.834-6.835V194.417A6.834,6.834,0,0,0,547.538,187.583Z" transform="translate(-481.807 -187.583)" fill="none" stroke="#fff" stroke-miterlimit="10" stroke-width="0.896"/>
            <g id="Grupo_90781" data-name="Grupo 90781" transform="translate(11.369 11.52)">
              <path id="Trazado_144075" data-name="Trazado 144075" d="M496.551,200.213a2.25,2.25,0,1,1-2.25-2.251A2.25,2.25,0,0,1,496.551,200.213Z" transform="translate(-492.05 -197.962)" fill="none" stroke="#fff" stroke-miterlimit="10" stroke-width="0.896"/>
              <path id="Trazado_144076" data-name="Trazado 144076" d="M506.761,200.213a2.25,2.25,0,1,1-2.251-2.251A2.251,2.251,0,0,1,506.761,200.213Z" transform="translate(-490.928 -197.962)" fill="none" stroke="#fff" stroke-miterlimit="10" stroke-width="0.896"/>
              <path id="Trazado_144077" data-name="Trazado 144077" d="M516.97,200.213a2.25,2.25,0,1,1-2.25-2.251A2.25,2.25,0,0,1,516.97,200.213Z" transform="translate(-489.806 -197.962)" fill="none" stroke="#fff" stroke-miterlimit="10" stroke-width="0.896"/>
              <path id="Trazado_144078" data-name="Trazado 144078" d="M527.18,200.213a2.25,2.25,0,1,1-2.251-2.251A2.251,2.251,0,0,1,527.18,200.213Z" transform="translate(-488.683 -197.962)" fill="none" stroke="#fff" stroke-miterlimit="10" stroke-width="0.896"/>
              <path id="Trazado_144079" data-name="Trazado 144079" d="M537.389,200.213a2.25,2.25,0,1,1-2.25-2.251A2.25,2.25,0,0,1,537.389,200.213Z" transform="translate(-487.561 -197.962)" fill="none" stroke="#fff" stroke-miterlimit="10" stroke-width="0.896"/>
            </g>
          </g>
          <g id="Grupo_90784" data-name="Grupo 90784" transform="translate(122.779 263.503)">
            <path id="Trazado_144080" data-name="Trazado 144080" d="M122.4,242.54h58.9a6.834,6.834,0,0,1,6.834,6.834v13.914a6.836,6.836,0,0,1-5.971,6.78.985.985,0,0,0-.862.979v7.616a.453.453,0,0,1-.821.263l-6-8.389a1,1,0,0,0-.809-.416H122.4a6.835,6.835,0,0,1-6.835-6.834V249.374A6.834,6.834,0,0,1,122.4,242.54Z" transform="translate(-115.57 -242.54)" fill="none" stroke="#fff" stroke-miterlimit="10" stroke-width="0.896"/>
            <g id="Grupo_90783" data-name="Grupo 90783" transform="translate(11.369 11.52)">
              <path id="Trazado_144081" data-name="Trazado 144081" d="M166.651,255.169a2.25,2.25,0,1,0,2.25-2.25A2.251,2.251,0,0,0,166.651,255.169Z" transform="translate(-121.324 -252.919)" fill="none" stroke="#fff" stroke-miterlimit="10" stroke-width="0.896"/>
              <path id="Trazado_144082" data-name="Trazado 144082" d="M156.442,255.169a2.25,2.25,0,1,0,2.25-2.25A2.25,2.25,0,0,0,156.442,255.169Z" transform="translate(-122.446 -252.919)" fill="none" stroke="#fff" stroke-miterlimit="10" stroke-width="0.896"/>
              <path id="Trazado_144083" data-name="Trazado 144083" d="M146.232,255.169a2.25,2.25,0,1,0,2.251-2.25A2.251,2.251,0,0,0,146.232,255.169Z" transform="translate(-123.569 -252.919)" fill="none" stroke="#fff" stroke-miterlimit="10" stroke-width="0.896"/>
              <path id="Trazado_144084" data-name="Trazado 144084" d="M136.023,255.169a2.25,2.25,0,1,0,2.25-2.25A2.251,2.251,0,0,0,136.023,255.169Z" transform="translate(-124.691 -252.919)" fill="none" stroke="#fff" stroke-miterlimit="10" stroke-width="0.896"/>
              <path id="Trazado_144085" data-name="Trazado 144085" d="M125.813,255.169a2.25,2.25,0,1,0,2.251-2.25A2.251,2.251,0,0,0,125.813,255.169Z" transform="translate(-125.813 -252.919)" fill="none" stroke="#fff" stroke-miterlimit="10" stroke-width="0.896"/>
            </g>
          </g>
          <g id="Grupo_90786" data-name="Grupo 90786" transform="translate(367.239 148.968)">
            <path id="Trazado_144086" data-name="Trazado 144086" d="M453.887,160.786H346.541a10.719,10.719,0,0,1-10.72-10.72h0a10.72,10.72,0,0,1,10.72-10.72H453.887a10.72,10.72,0,0,1,10.72,10.72h0A10.719,10.719,0,0,1,453.887,160.786Z" transform="translate(-335.821 -139.347)" fill="#fff" stroke="#495ad6" stroke-miterlimit="10" stroke-width="0.896"/>
            <g id="Grupo_90785" data-name="Grupo 90785" transform="translate(105.091 4.28)">
              <path id="Trazado_144087" data-name="Trazado 144087" d="M441.906,148.9a5.7,5.7,0,1,1-5.7-5.7A5.7,5.7,0,0,1,441.906,148.9Z" transform="translate(-430.505 -143.203)" fill="none" stroke="#495ad6" stroke-miterlimit="10" stroke-width="1.672"/>
              <line id="Línea_221" data-name="Línea 221" x2="3.148" y2="3.148" transform="translate(9.732 9.732)" fill="none" stroke="#495ad6" stroke-linecap="round" stroke-miterlimit="10" stroke-width="1.672"/>
            </g>
          </g>
          <g id="Grupo_90809" data-name="Grupo 90809" transform="translate(49.98 51.819)">
            <g id="Grupo_90787" data-name="Grupo 90787" transform="translate(229.113 366.018)">
              <rect id="Rectángulo_35485" data-name="Rectángulo 35485" width="44.116" height="44.116" rx="7.708" transform="translate(8.04 0)" fill="#ead428"/>
              <rect id="Rectángulo_35486" data-name="Rectángulo 35486" width="44.116" height="44.116" rx="7.708" transform="translate(0 0)" fill="#fff157"/>
              <path id="Trazado_144088" data-name="Trazado 144088" d="M271.758,393.978l12.664,7.311a1.173,1.173,0,0,1,0,2.031l-12.664,7.311A1.172,1.172,0,0,1,270,409.615V394.993A1.172,1.172,0,0,1,271.758,393.978Z" transform="translate(-254.91 -380.246)" fill="#fff"/>
            </g>
            <g id="Grupo_90788" data-name="Grupo 90788" transform="translate(495.066 352.464)">
              <rect id="Rectángulo_35487" data-name="Rectángulo 35487" width="57.67" height="57.67" rx="10.076" transform="translate(10.51 0)" fill="#ead428"/>
              <rect id="Rectángulo_35488" data-name="Rectángulo 35488" width="57.67" height="57.67" rx="10.076" transform="translate(0 0)" fill="#fff157"/>
              <path id="Trazado_144089" data-name="Trazado 144089" d="M529.614,382.812a6.929,6.929,0,1,1-6.929-6.928A6.929,6.929,0,0,1,529.614,382.812Z" transform="translate(-493.85 -368.663)" fill="#fff"/>
              <path id="Trazado_144090" data-name="Trazado 144090" d="M537.874,404.693v10.229A1.673,1.673,0,0,1,536.2,416.6H510.659a1.673,1.673,0,0,1-1.674-1.673V404.693a14.445,14.445,0,0,1,14.445-14.444h0A14.445,14.445,0,0,1,537.874,404.693Z" transform="translate(-494.594 -367.085)" fill="#fff"/>
            </g>
            <g id="Grupo_90789" data-name="Grupo 90789" transform="translate(370.553 127.529)">
              <path id="Trazado_144091" data-name="Trazado 144091" d="M408.216,170.126H385.542a1.7,1.7,0,0,1-1.7-1.7h0a1.7,1.7,0,0,1,1.7-1.7h22.674a1.7,1.7,0,0,1,1.7,1.7h0A1.7,1.7,0,0,1,408.216,170.126Z" transform="translate(-383.838 -166.719)" fill="#fffdf0"/>
              <path id="Trazado_144092" data-name="Trazado 144092" d="M428.033,170.126H411.624a1.7,1.7,0,0,1-1.7-1.7h0a1.7,1.7,0,0,1,1.7-1.7h16.409a1.7,1.7,0,0,1,1.7,1.7h0A1.7,1.7,0,0,1,428.033,170.126Z" transform="translate(-380.971 -166.719)" fill="#fffdf0"/>
              <path id="Trazado_144093" data-name="Trazado 144093" d="M395.175,176.876h-9.633a1.7,1.7,0,0,1-1.7-1.7h0a1.7,1.7,0,0,1,1.7-1.7h9.633a1.7,1.7,0,0,1,1.7,1.7h0A1.7,1.7,0,0,1,395.175,176.876Z" transform="translate(-383.838 -165.977)" fill="#fffdf0"/>
              <path id="Trazado_144094" data-name="Trazado 144094" d="M429.379,176.876H399.374a1.7,1.7,0,0,1-1.7-1.7h0a1.7,1.7,0,0,1,1.7-1.7h30.005a1.7,1.7,0,0,1,1.7,1.7h0A1.7,1.7,0,0,1,429.379,176.876Z" transform="translate(-382.318 -165.977)" fill="#fffdf0"/>
              <path id="Trazado_144095" data-name="Trazado 144095" d="M415.431,183.626H385.542a1.7,1.7,0,0,1-1.7-1.7h0a1.7,1.7,0,0,1,1.7-1.7h29.889a1.7,1.7,0,0,1,1.7,1.7h0A1.7,1.7,0,0,1,415.431,183.626Z" transform="translate(-383.838 -165.235)" fill="#fffdf0"/>
              <path id="Trazado_144096" data-name="Trazado 144096" d="M427.362,183.626h-9.634a1.7,1.7,0,0,1-1.7-1.7h0a1.7,1.7,0,0,1,1.7-1.7h9.634a1.7,1.7,0,0,1,1.7,1.7h0A1.7,1.7,0,0,1,427.362,183.626Z" transform="translate(-380.3 -165.235)" fill="#fffdf0"/>
            </g>
            <g id="Grupo_90793" data-name="Grupo 90793" transform="translate(24.415 256.519)">
              <rect id="Rectángulo_35489" data-name="Rectángulo 35489" width="87.641" height="48.444" rx="3.823" fill="#ead428"/>
              <line id="Línea_222" data-name="Línea 222" x2="80.191" transform="translate(3.725 6.545)" fill="none" stroke="#fff" stroke-linecap="round" stroke-miterlimit="10" stroke-width="0.896"/>
              <circle id="Elipse_5037" data-name="Elipse 5037" cx="0.971" cy="0.971" r="0.971" transform="translate(80.828 2.244)" fill="#fff"/>
              <circle id="Elipse_5038" data-name="Elipse 5038" cx="0.971" cy="0.971" r="0.971" transform="translate(75.764 2.244)" fill="#fff"/>
              <circle id="Elipse_5039" data-name="Elipse 5039" cx="0.971" cy="0.971" r="0.971" transform="translate(70.7 2.244)" fill="#fff"/>
              <g id="Grupo_90792" data-name="Grupo 90792" transform="translate(3.725 10.383)">
                <g id="Grupo_90790" data-name="Grupo 90790">
                  <path id="Trazado_144097" data-name="Trazado 144097" d="M90.281,294.973H76.675a1.34,1.34,0,0,1-1.341-1.341h0a1.341,1.341,0,0,1,1.341-1.342H90.281a1.341,1.341,0,0,1,1.342,1.342h0A1.341,1.341,0,0,1,90.281,294.973Z" transform="translate(-75.334 -292.29)" fill="#ffe87b"/>
                  <path id="Trazado_144098" data-name="Trazado 144098" d="M90.281,300.556H76.675a1.34,1.34,0,0,1-1.341-1.341h0a1.34,1.34,0,0,1,1.341-1.341H90.281a1.341,1.341,0,0,1,1.342,1.341h0A1.341,1.341,0,0,1,90.281,300.556Z" transform="translate(-75.334 -291.676)" fill="#ffe87b"/>
                  <path id="Trazado_144099" data-name="Trazado 144099" d="M90.281,306.14H76.675a1.341,1.341,0,0,1-1.341-1.342h0a1.34,1.34,0,0,1,1.341-1.341H90.281a1.341,1.341,0,0,1,1.342,1.341h0A1.341,1.341,0,0,1,90.281,306.14Z" transform="translate(-75.334 -291.063)" fill="#ffe87b"/>
                  <path id="Trazado_144100" data-name="Trazado 144100" d="M90.281,311.723H76.675a1.34,1.34,0,0,1-1.341-1.341h0a1.341,1.341,0,0,1,1.341-1.342H90.281a1.341,1.341,0,0,1,1.342,1.342h0A1.341,1.341,0,0,1,90.281,311.723Z" transform="translate(-75.334 -290.449)" fill="#ffe87b"/>
                  <path id="Trazado_144101" data-name="Trazado 144101" d="M90.281,317.306H76.675a1.34,1.34,0,0,1-1.341-1.341h0a1.34,1.34,0,0,1,1.341-1.341H90.281a1.341,1.341,0,0,1,1.342,1.341h0A1.341,1.341,0,0,1,90.281,317.306Z" transform="translate(-75.334 -289.835)" fill="#ffe87b"/>
                  <path id="Trazado_144102" data-name="Trazado 144102" d="M90.281,322.89H76.675a1.341,1.341,0,0,1-1.341-1.342h0a1.34,1.34,0,0,1,1.341-1.341H90.281a1.341,1.341,0,0,1,1.342,1.341h0A1.341,1.341,0,0,1,90.281,322.89Z" transform="translate(-75.334 -289.221)" fill="#ffe87b"/>
                </g>
                <g id="Grupo_90791" data-name="Grupo 90791" transform="translate(18.869)">
                  <path id="Trazado_144103" data-name="Trazado 144103" d="M152.315,294.973H93.675a1.34,1.34,0,0,1-1.341-1.341h0a1.341,1.341,0,0,1,1.341-1.342h58.64a1.341,1.341,0,0,1,1.341,1.342h0A1.341,1.341,0,0,1,152.315,294.973Z" transform="translate(-92.334 -292.29)" fill="#ffe352"/>
                  <path id="Trazado_144104" data-name="Trazado 144104" d="M152.315,300.556H93.675a1.34,1.34,0,0,1-1.341-1.341h0a1.34,1.34,0,0,1,1.341-1.341h58.64a1.341,1.341,0,0,1,1.341,1.341h0A1.341,1.341,0,0,1,152.315,300.556Z" transform="translate(-92.334 -291.676)" fill="#ffe352"/>
                  <path id="Trazado_144105" data-name="Trazado 144105" d="M152.315,306.14H93.675a1.341,1.341,0,0,1-1.341-1.342h0a1.34,1.34,0,0,1,1.341-1.341h58.64a1.341,1.341,0,0,1,1.341,1.341h0A1.341,1.341,0,0,1,152.315,306.14Z" transform="translate(-92.334 -291.063)" fill="#ffe352"/>
                  <path id="Trazado_144106" data-name="Trazado 144106" d="M152.315,311.723H93.675a1.34,1.34,0,0,1-1.341-1.341h0a1.341,1.341,0,0,1,1.341-1.342h58.64a1.341,1.341,0,0,1,1.341,1.342h0A1.341,1.341,0,0,1,152.315,311.723Z" transform="translate(-92.334 -290.449)" fill="#ffe352"/>
                  <path id="Trazado_144107" data-name="Trazado 144107" d="M152.315,317.306H93.675a1.34,1.34,0,0,1-1.341-1.341h0a1.34,1.34,0,0,1,1.341-1.341h58.64a1.341,1.341,0,0,1,1.341,1.341h0A1.341,1.341,0,0,1,152.315,317.306Z" transform="translate(-92.334 -289.835)" fill="#ffe352"/>
                  <path id="Trazado_144108" data-name="Trazado 144108" d="M152.315,322.89H93.675a1.341,1.341,0,0,1-1.341-1.342h0a1.34,1.34,0,0,1,1.341-1.341h58.64a1.341,1.341,0,0,1,1.341,1.341h0A1.341,1.341,0,0,1,152.315,322.89Z" transform="translate(-92.334 -289.221)" fill="#ffe352"/>
                </g>
              </g>
            </g>
            <g id="Grupo_90797" data-name="Grupo 90797" transform="translate(440.123)">
              <circle id="Elipse_5040" data-name="Elipse 5040" cx="36.078" cy="36.078" r="36.078" transform="matrix(0.233, -0.972, 0.972, 0.233, 0, 70.17)" fill="none" stroke="#fffce1" stroke-miterlimit="10" stroke-width="0.79"/>
              <circle id="Elipse_5041" data-name="Elipse 5041" cx="31.366" cy="31.366" r="31.366" transform="translate(2.116 27.499) rotate(-23.868)" fill="#fff34e"/>
              <path id="Trazado_144109" data-name="Trazado 144109" d="M488.839,91.286a2.855,2.855,0,1,1-2.855-2.855A2.856,2.856,0,0,1,488.839,91.286Z" transform="translate(-442.493 -47.795)" fill="#fff"/>
              <path id="Trazado_144110" data-name="Trazado 144110" d="M486.467,92.312h0a.893.893,0,0,1-1.214-.349l-9.224-16.639a.891.891,0,0,1,.347-1.213h0a.892.892,0,0,1,1.214.347L486.814,91.1A.893.893,0,0,1,486.467,92.312Z" transform="translate(-443.286 -49.381)" fill="#fff"/>
              <path id="Trazado_144111" data-name="Trazado 144111" d="M486.137,91.438h0a.892.892,0,0,1,1.262,0l7.981,7.98a.894.894,0,0,1,0,1.263h0a.894.894,0,0,1-1.263,0l-7.98-7.98A.892.892,0,0,1,486.137,91.438Z" transform="translate(-442.192 -47.493)" fill="#fff"/>
              <g id="Grupo_90794" data-name="Grupo 90794" transform="translate(14.778 14.778)">
                <line id="Línea_223" data-name="Línea 223" y1="3.607" transform="translate(28.905)" fill="none" stroke="#fff" stroke-linecap="round" stroke-miterlimit="10" stroke-width="2"/>
                <line id="Línea_224" data-name="Línea 224" x2="3.607" transform="translate(53.819 28.905)" fill="none" stroke="#fff" stroke-linecap="round" stroke-miterlimit="10" stroke-width="2"/>
                <line id="Línea_225" data-name="Línea 225" y2="3.607" transform="translate(28.521 53.819)" fill="none" stroke="#fff" stroke-linecap="round" stroke-miterlimit="10" stroke-width="2"/>
                <line id="Línea_226" data-name="Línea 226" x1="3.607" transform="translate(0 28.521)" fill="none" stroke="#fff" stroke-linecap="round" stroke-miterlimit="10" stroke-width="2"/>
              </g>
              <g id="Grupo_90795" data-name="Grupo 90795" transform="translate(18.529 18.529)" opacity="0.5">
                <line id="Línea_227" data-name="Línea 227" x1="1.804" y1="3.124" transform="translate(10.772)" fill="none" stroke="#fffce1" stroke-linecap="round" stroke-miterlimit="10" stroke-width="1"/>
                <line id="Línea_228" data-name="Línea 228" y1="1.804" x2="3.124" transform="translate(46.801 10.772)" fill="none" stroke="#fffce1" stroke-linecap="round" stroke-miterlimit="10" stroke-width="1"/>
                <line id="Línea_229" data-name="Línea 229" x2="1.804" y2="3.124" transform="translate(37.349 46.801)" fill="none" stroke="#fffce1" stroke-linecap="round" stroke-miterlimit="10" stroke-width="1"/>
                <line id="Línea_230" data-name="Línea 230" x1="3.124" y2="1.804" transform="translate(0 37.349)" fill="none" stroke="#fffce1" stroke-linecap="round" stroke-miterlimit="10" stroke-width="1"/>
              </g>
              <g id="Grupo_90796" data-name="Grupo 90796" transform="translate(18.721 18.721)" opacity="0.5">
                <line id="Línea_231" data-name="Línea 231" x1="3.124" y1="1.804" transform="translate(0 10.247)" fill="none" stroke="#fffce1" stroke-linecap="round" stroke-miterlimit="10" stroke-width="1"/>
                <line id="Línea_232" data-name="Línea 232" y1="3.124" x2="1.804" transform="translate(37.49)" fill="none" stroke="#fffce1" stroke-linecap="round" stroke-miterlimit="10" stroke-width="1"/>
                <line id="Línea_233" data-name="Línea 233" x2="3.124" y2="1.804" transform="translate(46.417 37.489)" fill="none" stroke="#fffce1" stroke-linecap="round" stroke-miterlimit="10" stroke-width="1"/>
                <line id="Línea_234" data-name="Línea 234" x1="1.804" y2="3.124" transform="translate(10.247 46.417)" fill="none" stroke="#fffce1" stroke-linecap="round" stroke-miterlimit="10" stroke-width="1"/>
              </g>
            </g>
            <g id="Grupo_90800" data-name="Grupo 90800" transform="translate(0 158.922)">
              <rect id="Rectángulo_35490" data-name="Rectángulo 35490" width="60.86" height="60.86" rx="9.569" transform="translate(4.717 5.272)" fill="#ead428"/>
              <rect id="Rectángulo_35491" data-name="Rectángulo 35491" width="60.86" height="60.86" rx="7.667" fill="#fff77f" stroke="#fffce1" stroke-miterlimit="10" stroke-width="1"/>
              <g id="Grupo_90799" data-name="Grupo 90799" transform="translate(16.916 9.597)">
                <g id="Grupo_90798" data-name="Grupo 90798">
                  <path id="Trazado_144112" data-name="Trazado 144112" d="M89.274,217.515h-.317v-3.486a10.377,10.377,0,1,0-20.753,0v3.486h-.07a2.912,2.912,0,0,0-2.912,2.911v13.138a2.913,2.913,0,0,0,2.912,2.912H89.274a2.913,2.913,0,0,0,2.912-2.912V220.426A2.912,2.912,0,0,0,89.274,217.515Zm-18.443-3.486a7.749,7.749,0,1,1,15.5,0v3.486h-15.5Z" transform="translate(-65.221 -203.65)" fill="#fffce1"/>
                  <path id="Trazado_144113" data-name="Trazado 144113" d="M81.119,222.56a3.387,3.387,0,1,0-5.093,2.92.608.608,0,0,1,.307.679l-.589,2.174a2.034,2.034,0,1,0,3.926,0l-.583-2.151a.609.609,0,0,1,.315-.685A3.376,3.376,0,0,0,81.119,222.56Z" transform="translate(-64.218 -201.944)" fill="#fff77f"/>
                </g>
                <path id="Trazado_144114" data-name="Trazado 144114" d="M90.938,237.624H66.47a1.249,1.249,0,0,1-1.249-1.249h0a1.249,1.249,0,0,1,1.249-1.249H90.938a1.249,1.249,0,0,1,1.249,1.249h0A1.249,1.249,0,0,1,90.938,237.624Z" transform="translate(-65.221 -200.19)" fill="#fffce1"/>
                <path id="Trazado_144115" data-name="Trazado 144115" d="M90.938,241.436H66.47a1.248,1.248,0,0,1-1.249-1.249h0a1.249,1.249,0,0,1,1.249-1.249H90.938a1.249,1.249,0,0,1,1.249,1.249h0A1.248,1.248,0,0,1,90.938,241.436Z" transform="translate(-65.221 -199.771)" fill="#fffce1"/>
              </g>
            </g>
            <g id="Grupo_90807" data-name="Grupo 90807" transform="translate(501.992 257.66)">
              <g id="Grupo_90801" data-name="Grupo 90801" transform="translate(0 0)">
                <path id="Rectángulo_35492" data-name="Rectángulo 35492" d="M5.634,0H30.2A5.634,5.634,0,0,1,35.83,5.634V30.2A5.633,5.633,0,0,1,30.2,35.83H5.634A5.634,5.634,0,0,1,0,30.2V5.634A5.634,5.634,0,0,1,5.634,0Z" transform="translate(2.777 3.104)" fill="#ead428"/>
                <rect id="Rectángulo_35493" data-name="Rectángulo 35493" width="35.829" height="35.83" rx="4.513" fill="#fff77f" stroke="#fffce1" stroke-miterlimit="10" stroke-width="1"/>
              </g>
              <g id="Grupo_90806" data-name="Grupo 90806" transform="translate(7.215 7.213)">
                <g id="Grupo_90802" data-name="Grupo 90802" transform="translate(2.35)">
                  <path id="Trazado_144116" data-name="Trazado 144116" d="M511.989,311.863a1.11,1.11,0,0,1-1.069-1.411l5.419-19.182a1.109,1.109,0,0,1,2.134.6l-5.417,19.18A1.109,1.109,0,0,1,511.989,311.863Z" transform="translate(-510.878 -290.462)" fill="#fff"/>
                </g>
                <g id="Grupo_90803" data-name="Grupo 90803" transform="translate(11.411)">
                  <path id="Trazado_144117" data-name="Trazado 144117" d="M520.152,311.863a1.11,1.11,0,0,1-1.069-1.411l5.42-19.182a1.109,1.109,0,0,1,2.134.6l-5.419,19.18A1.109,1.109,0,0,1,520.152,311.863Z" transform="translate(-519.041 -290.462)" fill="#fff"/>
                </g>
                <g id="Grupo_90804" data-name="Grupo 90804" transform="translate(0 5.244)">
                  <path id="Trazado_144118" data-name="Trazado 144118" d="M529.05,297.407H509.87a1.11,1.11,0,1,1,0-2.22h19.18a1.11,1.11,0,1,1,0,2.22Z" transform="translate(-508.76 -295.187)" fill="#fff"/>
                </g>
                <g id="Grupo_90805" data-name="Grupo 90805" transform="translate(0 14.007)">
                  <path id="Trazado_144119" data-name="Trazado 144119" d="M529.05,305.3H509.87a1.11,1.11,0,1,1,0-2.22h19.18a1.11,1.11,0,1,1,0,2.22Z" transform="translate(-508.76 -303.082)" fill="#fff"/>
                </g>
              </g>
            </g>
            <g id="Grupo_90808" data-name="Grupo 90808" transform="translate(86.419 179.739)">
              <path id="Trazado_144120" data-name="Trazado 144120" d="M143.234,216.8H129.362a1.521,1.521,0,0,1-1.521-1.522h0a1.52,1.52,0,0,1,1.521-1.521h13.873a1.52,1.52,0,0,1,1.521,1.521h0A1.521,1.521,0,0,1,143.234,216.8Z" transform="translate(-127.841 -213.759)" fill="#fffdf0"/>
              <path id="Trazado_144121" data-name="Trazado 144121" d="M157.208,222.884H129.362a1.521,1.521,0,0,1-1.521-1.521h0a1.521,1.521,0,0,1,1.521-1.522h27.847a1.522,1.522,0,0,1,1.521,1.522h0A1.521,1.521,0,0,1,157.208,222.884Z" transform="translate(-127.841 -213.09)" fill="#fffdf0"/>
              <path id="Trazado_144122" data-name="Trazado 144122" d="M132.651,228.967h-3.29a1.52,1.52,0,0,1-1.521-1.521h0a1.521,1.521,0,0,1,1.521-1.522h3.29a1.521,1.521,0,0,1,1.521,1.522h0A1.52,1.52,0,0,1,132.651,228.967Z" transform="translate(-127.841 -212.422)" fill="#fffdf0"/>
              <path id="Trazado_144123" data-name="Trazado 144123" d="M156.371,228.967H136.982a1.52,1.52,0,0,1-1.521-1.521h0a1.521,1.521,0,0,1,1.521-1.522h19.389a1.522,1.522,0,0,1,1.521,1.522h0A1.521,1.521,0,0,1,156.371,228.967Z" transform="translate(-127.003 -212.422)" fill="#fffdf0"/>
              <path id="Trazado_144124" data-name="Trazado 144124" d="M155.283,216.8h-8.409a1.521,1.521,0,0,1-1.521-1.522h0a1.52,1.52,0,0,1,1.521-1.521h8.409a1.521,1.521,0,0,1,1.521,1.521h0A1.522,1.522,0,0,1,155.283,216.8Z" transform="translate(-125.916 -213.759)" fill="#fffdf0"/>
            </g>
            <path id="Trazado_144125" data-name="Trazado 144125" d="M87.281,404.2a9.632,9.632,0,0,0-4.946,1.359,10.373,10.373,0,0,0-20.681,1.168,10.654,10.654,0,0,0,.062,1.137,7.921,7.921,0,1,0-1.467,15.705H87.281a9.684,9.684,0,0,0,0-19.368Z" transform="translate(-49.722 -13.95)" fill="#fff"/>
          </g>
        </g>
      </g>
      <g id="Grupo_91027" data-name="Grupo 91027" transform="translate(42.957 17.593)">
        <path id="Trazado_146168" data-name="Trazado 146168" d="M390.666,595.505a1.352,1.352,0,0,0,0,2.7A1.352,1.352,0,0,0,390.666,595.505Z" transform="translate(-362.062 -595.505)" fill="#fff"/>
        <path id="Trazado_146169" data-name="Trazado 146169" d="M645.646,605.842a1.352,1.352,0,0,0,0,2.7A1.352,1.352,0,0,0,645.646,605.842Z" transform="translate(-374.621 -596.014)" fill="#fff"/>
        <path id="Trazado_146170" data-name="Trazado 146170" d="M361.952,775.829a1.352,1.352,0,0,0,0,2.7A1.352,1.352,0,0,0,361.952,775.829Z" transform="translate(-360.647 -604.387)" fill="#fff"/>
        <path id="Trazado_146171" data-name="Trazado 146171" d="M604.3,1035.4a1.352,1.352,0,0,0,0,2.7A1.352,1.352,0,0,0,604.3,1035.4Z" transform="translate(-372.585 -617.173)" fill="#fff"/>
        <path id="Trazado_146172" data-name="Trazado 146172" d="M800.7,1080.2a1.352,1.352,0,0,0,0,2.7A1.352,1.352,0,0,0,800.7,1080.2Z" transform="translate(-382.259 -619.38)" fill="#fff"/>
        <path id="Trazado_146173" data-name="Trazado 146173" d="M955.757,881.5a1.352,1.352,0,0,0,0,2.7A1.352,1.352,0,0,0,955.757,881.5Z" transform="translate(-389.897 -609.592)" fill="#fff"/>
        <path id="Trazado_146174" data-name="Trazado 146174" d="M809.89,758.6a1.352,1.352,0,0,0,0,2.7A1.352,1.352,0,0,0,809.89,758.6Z" transform="translate(-382.712 -603.539)" fill="#fff"/>
        <path id="Trazado_146175" data-name="Trazado 146175" d="M862.079,626.5a1.352,1.352,0,0,0,0,2.7A1.352,1.352,0,0,0,862.079,626.5Z" transform="translate(-385.282 -597.032)" fill="#fff"/>
      </g>
      <g id="Grupo_91028" data-name="Grupo 91028">
        <path id="Trazado_146176" data-name="Trazado 146176" d="M670.369,1067.964a1.082,1.082,0,0,0,0,2.162A1.082,1.082,0,0,0,670.369,1067.964Z" transform="translate(-332.895 -601.184)" fill="#ffec9c"/>
        <path id="Trazado_146177" data-name="Trazado 146177" d="M880.63,923.786a1.082,1.082,0,0,0,0,2.162A1.082,1.082,0,0,0,880.63,923.786Z" transform="translate(-343.252 -594.082)" fill="#ffec9c"/>
        <path id="Trazado_146178" data-name="Trazado 146178" d="M786.808,799.086a1.082,1.082,0,0,0,0,2.162A1.082,1.082,0,0,0,786.808,799.086Z" transform="translate(-338.631 -587.94)" fill="#ffec9c"/>
        <path id="Trazado_146179" data-name="Trazado 146179" d="M931.7,715.952a1.082,1.082,0,0,0,0,2.162A1.082,1.082,0,0,0,931.7,715.952Z" transform="translate(-345.768 -583.844)" fill="#ffec9c"/>
        <path id="Trazado_146180" data-name="Trazado 146180" d="M796.309,657.758a1.082,1.082,0,0,0,0,2.162A1.082,1.082,0,0,0,796.309,657.758Z" transform="translate(-339.099 -580.978)" fill="#ffec9c"/>
        <path id="Trazado_146181" data-name="Trazado 146181" d="M697.736,577a1.082,1.082,0,0,0,0,2.162A1.082,1.082,0,0,0,697.736,577Z" transform="translate(-334.243 -577)" fill="#ffec9c"/>
        <path id="Trazado_146182" data-name="Trazado 146182" d="M573.036,618.567a1.082,1.082,0,0,0,0,2.162A1.082,1.082,0,0,0,573.036,618.567Z" transform="translate(-328.101 -579.047)" fill="#ffec9c"/>
        <path id="Trazado_146183" data-name="Trazado 146183" d="M381.828,642.319a1.082,1.082,0,0,0,0,2.162A1.082,1.082,0,0,0,381.828,642.319Z" transform="translate(-318.682 -580.217)" fill="#ffec9c"/>
        <path id="Trazado_146184" data-name="Trazado 146184" d="M437.646,730.2a1.081,1.081,0,0,0,0,2.161A1.081,1.081,0,0,0,437.646,730.2Z" transform="translate(-321.432 -584.547)" fill="#ffec9c"/>
        <path id="Trazado_146185" data-name="Trazado 146185" d="M378.265,837.09a1.082,1.082,0,0,0,0,2.162A1.082,1.082,0,0,0,378.265,837.09Z" transform="translate(-318.507 -589.811)" fill="#ffec9c"/>
        <path id="Trazado_146186" data-name="Trazado 146186" d="M440.022,938.038a1.082,1.082,0,0,0,0,2.162A1.082,1.082,0,0,0,440.022,938.038Z" transform="translate(-321.549 -594.784)" fill="#ffec9c"/>
        <path id="Trazado_146187" data-name="Trazado 146187" d="M425.77,1062.738a1.082,1.082,0,0,0,0,2.162A1.082,1.082,0,0,0,425.77,1062.738Z" transform="translate(-320.847 -600.926)" fill="#ffec9c"/>
        <path id="Trazado_146188" data-name="Trazado 146188" d="M316.509,904.784a1.082,1.082,0,0,0,0,2.162A1.082,1.082,0,0,0,316.509,904.784Z" transform="translate(-315.465 -593.146)" fill="#ffec9c"/>
      </g>
    </g>
  </g>
</svg>
