<svg xmlns="http://www.w3.org/2000/svg" width="9.295" height="16" viewBox="0 0 9.295 16">
  <g id="Grupo_90917" data-name="Grupo 90917" transform="translate(-36.226 -32.874)">
    <path id="Trazado_144273" data-name="Trazado 144273" d="M44.44,32.874H37.307a1.083,1.083,0,0,0-1.081,1.081V47.794a1.083,1.083,0,0,0,1.081,1.08H44.44a1.084,1.084,0,0,0,1.081-1.08V33.955A1.083,1.083,0,0,0,44.44,32.874Zm-4.708.779h2.283a.131.131,0,0,1,0,.262H39.732a.131.131,0,0,1,0-.262Zm1.142,14.683a.542.542,0,1,1,.541-.542A.542.542,0,0,1,40.874,48.336Zm3.894-1.461h-7.79V34.588h7.791ZM43,38.755a3.015,3.015,0,0,1,0,4.256l-.038.034.321.322H42.14V42.223l.3.3c.013-.012.027-.022.039-.035A2.268,2.268,0,0,0,39.9,38.835v-.673h-.308A3.013,3.013,0,0,1,43,38.755Zm-1.109,4.858h.243a3.007,3.007,0,0,1-3.388-4.858c.011-.012.025-.023.037-.034l-.32-.321h1.143v1.144l-.3-.3-.039.034a2.268,2.268,0,0,0,2.622,3.631v.7Z" fill="#ffd947"/>
  </g>
</svg>
