<svg xmlns="http://www.w3.org/2000/svg" width="92" height="92" viewBox="0 0 92 92">
  <g id="Grupo_90990" data-name="Grupo 90990" transform="translate(-210 -210)">
    <g id="Grupo_86382" data-name="Grupo 86382">
      <circle id="Elipse_5014" data-name="Elipse 5014" cx="46" cy="46" r="46" transform="translate(210 210)" fill="#fabc00"/>
      <circle id="Elipse_5015" data-name="Elipse 5015" cx="39.292" cy="39.292" r="39.292" transform="translate(216.708 216.708)" fill="#feca2e"/>
      <g id="Grupo_90991" data-name="Grupo 90991" transform="translate(0 1.241)">
        <path id="Trazado_146034" data-name="Trazado 146034" d="M280.984,261.17V250.832h-4.136a21.348,21.348,0,0,0-2.452-5.918l2.925-2.925-7.309-7.31-2.926,2.926a21.329,21.329,0,0,0-5.917-2.452v-4.136H250.831v4.136a21.329,21.329,0,0,0-5.917,2.452l-2.926-2.925-7.309,7.309,2.925,2.926a21.329,21.329,0,0,0-2.452,5.917h-4.136V261.17h4.136a21.329,21.329,0,0,0,2.452,5.917l-2.925,2.926,7.309,7.309,2.926-2.925a21.329,21.329,0,0,0,5.917,2.452v4.136h10.338v-4.136a21.329,21.329,0,0,0,5.917-2.452l2.926,2.925,7.309-7.309-2.925-2.926a21.329,21.329,0,0,0,2.452-5.917Z" fill="#66e0f7"/>
        <circle id="Elipse_5045" data-name="Elipse 5045" cx="14.964" cy="14.964" r="14.964" transform="translate(241.036 241.037)" fill="#fff"/>
        <circle id="Elipse_5046" data-name="Elipse 5046" cx="10.498" cy="10.498" r="10.498" transform="translate(245.502 245.503)" fill="#a0e5a5"/>
        <g id="Grupo_90991-2" data-name="Grupo 90991">
          <path id="Trazado_146035" data-name="Trazado 146035" d="M255.007,260.819a2.021,2.021,0,0,1-1.436-.6l-3.366-3.366,2.873-2.872,1.929,1.929,4.12-4.119L262,254.668l-5.556,5.556A2.021,2.021,0,0,1,255.007,260.819Z" fill="#fff"/>
        </g>
        <g id="Grupo_90992" data-name="Grupo 90992">
          <path id="Trazado_146036" data-name="Trazado 146036" d="M260.824,240.763a1.016,1.016,0,0,0-.612,1.937,14.063,14.063,0,0,1,6.985,4.982,13.948,13.948,0,1,1-22.394,0,14.068,14.068,0,0,1,6.985-4.982,1.016,1.016,0,0,0-.612-1.937,15.977,15.977,0,1,0,9.648,0Z"/>
          <path id="Trazado_146037" data-name="Trazado 146037" d="M280.984,249.817h-3.355a22.358,22.358,0,0,0-1.963-4.736l2.374-2.374a1.016,1.016,0,0,0,0-1.436l-7.31-7.31a1.016,1.016,0,0,0-1.436,0l-2.374,2.374a22.358,22.358,0,0,0-4.736-1.963v-3.355A1.015,1.015,0,0,0,261.169,230H250.831a1.016,1.016,0,0,0-1.015,1.016v3.355a22.358,22.358,0,0,0-4.736,1.963l-2.374-2.373a1.014,1.014,0,0,0-1.436,0l-7.309,7.309a1.014,1.014,0,0,0,0,1.436l2.373,2.374a22.358,22.358,0,0,0-1.963,4.736h-3.355A1.015,1.015,0,0,0,230,250.832V261.17a1.015,1.015,0,0,0,1.016,1.015h3.355a22.357,22.357,0,0,0,1.963,4.736l-2.373,2.374a1.014,1.014,0,0,0,0,1.436l7.309,7.309a1.015,1.015,0,0,0,1.436,0l2.374-2.373a22.357,22.357,0,0,0,4.736,1.963v3.355A1.016,1.016,0,0,0,250.831,282h10.338a1.015,1.015,0,0,0,1.015-1.016V277.63a22.358,22.358,0,0,0,4.736-1.963l2.374,2.374a1.016,1.016,0,0,0,1.436,0l7.31-7.31a1.016,1.016,0,0,0,0-1.436l-2.374-2.374a22.357,22.357,0,0,0,1.963-4.736h3.355A1.015,1.015,0,0,0,282,261.17V250.832a1.015,1.015,0,0,0-1.016-1.015Zm-1.015,10.337h-3.121a1.016,1.016,0,0,0-.986.772,20.313,20.313,0,0,1-2.336,5.636,1.017,1.017,0,0,0,.152,1.244l2.207,2.207-5.873,5.873-2.208-2.207a1.015,1.015,0,0,0-1.243-.151,20.34,20.34,0,0,1-5.636,2.335,1.015,1.015,0,0,0-.772.986v3.121h-8.306v-3.121a1.016,1.016,0,0,0-.772-.986,20.34,20.34,0,0,1-5.636-2.335,1.015,1.015,0,0,0-1.243.151l-2.208,2.207-5.873-5.873,2.207-2.207a1.017,1.017,0,0,0,.152-1.244,20.312,20.312,0,0,1-2.336-5.636,1.016,1.016,0,0,0-.986-.772h-3.121v-8.306h3.121a1.016,1.016,0,0,0,.986-.772,20.339,20.339,0,0,1,2.335-5.636,1.015,1.015,0,0,0-.151-1.244l-2.207-2.207,5.873-5.873,2.207,2.207a1.017,1.017,0,0,0,1.244.152,20.3,20.3,0,0,1,5.636-2.336,1.016,1.016,0,0,0,.772-.986v-3.121h8.306v3.121a1.016,1.016,0,0,0,.772.986,20.312,20.312,0,0,1,5.636,2.336,1.017,1.017,0,0,0,1.244-.152l2.207-2.207,5.873,5.873-2.207,2.208a1.014,1.014,0,0,0-.151,1.243,20.34,20.34,0,0,1,2.335,5.636,1.015,1.015,0,0,0,.986.772h3.121Z"/>
          <path id="Trazado_146038" data-name="Trazado 146038" d="M244.486,256A11.514,11.514,0,1,0,256,244.487,11.526,11.526,0,0,0,244.486,256Zm21,0A9.482,9.482,0,1,1,256,246.519,9.492,9.492,0,0,1,265.482,256Z"/>
          <path id="Trazado_146039" data-name="Trazado 146039" d="M253.8,253.268a1.014,1.014,0,0,0-1.436,0l-2.873,2.872a1.015,1.015,0,0,0,0,1.436l3.366,3.366a3.046,3.046,0,0,0,4.309,0l5.555-5.556a1.015,1.015,0,0,0,0-1.436l-2.872-2.873a1.018,1.018,0,0,0-1.437,0l-3.4,3.4Zm5.331-.036,1.436,1.436-4.838,4.838a1.016,1.016,0,0,1-1.436,0l-2.648-2.648,1.437-1.436,1.211,1.211a1.016,1.016,0,0,0,1.436,0Z"/>
          <circle id="Elipse_5047" data-name="Elipse 5047" cx="1.016" cy="1.016" r="1.016" transform="translate(254.984 240.021)"/>
        </g>
      </g>
    </g>
  </g>
</svg>
