<svg xmlns="http://www.w3.org/2000/svg" width="92" height="92" viewBox="0 0 92 92">
  <g id="Grupo_90837" data-name="Grupo 90837" transform="translate(-210 -210)">
    <g id="Grupo_86382" data-name="Grupo 86382">
      <circle id="Elipse_5014" data-name="Elipse 5014" cx="46" cy="46" r="46" transform="translate(210 210)" fill="#fabc00"/>
      <circle id="Elipse_5015" data-name="Elipse 5015" cx="39.292" cy="39.292" r="39.292" transform="translate(216.708 216.708)" fill="#feca2e"/>
      <g id="Grupo_90724" data-name="Grupo 90724" transform="translate(1.704 -0.543)">
        <rect id="Rectángulo_35379" data-name="Rectángulo 35379" width="29.952" height="52" rx="5.754" transform="translate(232.704 232)" fill="#ccd1d9"/>
        <g id="Grupo_90724-2" data-name="Grupo 90724">
          <path id="Trazado_143893" data-name="Trazado 143893" d="M262.656,247.814V236.16A4.164,4.164,0,0,0,258.5,232H236.864a4.165,4.165,0,0,0-4.16,4.16v43.264a4.165,4.165,0,0,0,4.16,4.16H258.5a4.165,4.165,0,0,0,4.16-4.16V267.77h-1.664v7.494H234.368V238.656h26.624v9.158Zm-1.664,29.114v2.5a2.5,2.5,0,0,1-2.5,2.5H236.864a2.5,2.5,0,0,1-2.5-2.5v-2.5Zm-26.624-39.936v-.832a2.5,2.5,0,0,1,2.5-2.5H258.5a2.5,2.5,0,0,1,2.5,2.5v.832Z"/>
          <rect id="Rectángulo_35380" data-name="Rectángulo 35380" width="4.992" height="1.664" transform="translate(245.184 278.592)"/>
        </g>
        <rect id="Rectángulo_35381" data-name="Rectángulo 35381" width="23.296" height="33.28" transform="translate(236.032 240.32)" fill="#feca2e"/>
        <path id="Trazado_143894" data-name="Trazado 143894" d="M259.328,247.87v-7.55h-23.3V273.6h23.3v-5.886h-1.664v4.222H237.7V241.984h19.968v5.886Z"/>
        <g id="Grupo_90725" data-name="Grupo 90725">
          <rect id="Rectángulo_35382" data-name="Rectángulo 35382" width="11.648" height="4.992" transform="translate(239.36 255.296)" fill="#4dd0e1"/>
        </g>
        <g id="Grupo_90726" data-name="Grupo 90726">
          <path id="Trazado_143895" data-name="Trazado 143895" d="M277.25,254.846a11.466,11.466,0,0,0-1.22-2.933L277,249.98l-3.2-3.2-1.933.967a11.5,11.5,0,0,0-2.933-1.22l-.682-2.046h-4.527l-.682,2.046a11.466,11.466,0,0,0-2.933,1.22l-1.933-.967-3.2,3.2.966,1.933a11.535,11.535,0,0,0-1.219,2.933l-2.047.682v4.527l2.046.682a11.465,11.465,0,0,0,1.22,2.933l-.967,1.933,3.2,3.2,1.933-.966a11.535,11.535,0,0,0,2.933,1.219l.682,2.047h4.527l.682-2.046a11.467,11.467,0,0,0,2.933-1.22l1.933.967,3.2-3.2-.966-1.933a11.535,11.535,0,0,0,1.219-2.933l2.047-.682v-4.527Zm-11.266,5.442a2.5,2.5,0,1,1,2.5-2.5A2.5,2.5,0,0,1,265.984,260.288Z" fill="#9ceaf4"/>
        </g>
        <g id="Grupo_90727" data-name="Grupo 90727">
          <path id="Trazado_143896" data-name="Trazado 143896" d="M265.984,266.112a8.32,8.32,0,1,1,8.32-8.32A8.329,8.329,0,0,1,265.984,266.112Zm0-14.976a6.656,6.656,0,1,0,6.656,6.656A6.664,6.664,0,0,0,265.984,251.136Z"/>
        </g>
        <g id="Grupo_90728" data-name="Grupo 90728">
          <path id="Trazado_143897" data-name="Trazado 143897" d="M265.984,261.12a3.328,3.328,0,1,1,3.328-3.328A3.332,3.332,0,0,1,265.984,261.12Zm0-4.992a1.664,1.664,0,1,0,1.664,1.664A1.665,1.665,0,0,0,265.984,256.128Z"/>
        </g>
        <g id="Grupo_90729" data-name="Grupo 90729">
          <path id="Trazado_143898" data-name="Trazado 143898" d="M251.352,255.3H239.36v-1.664h7.976l-1.908-1.908,1.176-1.176Z"/>
        </g>
        <g id="Grupo_90730" data-name="Grupo 90730">
          <path id="Trazado_143899" data-name="Trazado 143899" d="M246.6,265.036l-1.176-1.176,1.908-1.908H239.36v-1.664h11.992Z"/>
        </g>
        <g id="Grupo_90731" data-name="Grupo 90731">
          <rect id="Rectángulo_35383" data-name="Rectángulo 35383" width="1.664" height="1.664" transform="translate(249.344 256.96)"/>
        </g>
        <g id="Grupo_90732" data-name="Grupo 90732">
          <rect id="Rectángulo_35384" data-name="Rectángulo 35384" width="1.664" height="1.664" transform="translate(246.016 256.96)"/>
        </g>
        <g id="Grupo_90733" data-name="Grupo 90733">
          <rect id="Rectángulo_35385" data-name="Rectángulo 35385" width="1.664" height="1.664" transform="translate(242.688 256.96)"/>
        </g>
        <g id="Grupo_90734" data-name="Grupo 90734">
          <path id="Trazado_143900" data-name="Trazado 143900" d="M247.781,246.138v4.894h-4.894v-1.958h1.957v-2.936Z" fill="#fcd770"/>
          <path id="Trazado_143901" data-name="Trazado 143901" d="M244.844,246.138v2.936H239.95V244.18h4.894Z" fill="#ff826e"/>
          <path id="Trazado_143902" data-name="Trazado 143902" d="M242.4,251.521h5.873v-5.873h-2.936v-1.957h-5.873v5.873H242.4Zm4.9-4.894v3.916h-3.916v-.979h1.958v-2.937Zm-6.852-1.957h3.915v3.915H240.44Z"/>
          <path id="Trazado_143903" data-name="Trazado 143903" d="M249.249,243.691H256.1v.979h-6.852Z"/>
          <path id="Trazado_143904" data-name="Trazado 143904" d="M249.249,245.648H256.1v.979h-6.852Z"/>
          <path id="Trazado_143905" data-name="Trazado 143905" d="M249.249,247.606H256.1v.979h-6.852Z"/>
          <path id="Trazado_143906" data-name="Trazado 143906" d="M253.164,249.564h.979v.979h-.979Z"/>
          <path id="Trazado_143907" data-name="Trazado 143907" d="M251.207,249.564h.979v.979h-.979Z"/>
          <path id="Trazado_143908" data-name="Trazado 143908" d="M249.249,249.564h.979v.979h-.979Z"/>
        </g>
      </g>
    </g>
  </g>
</svg>
