<svg xmlns="http://www.w3.org/2000/svg" xmlns:xlink="http://www.w3.org/1999/xlink" width="356.856" height="298.147" viewBox="0 0 356.856 298.147">
  <defs>
    <linearGradient id="linear-gradient" x1="0.5" y1="1" x2="0.5" gradientUnits="objectBoundingBox">
      <stop offset="0" stop-color="#1f6781"/>
      <stop offset="1" stop-color="#3464a6"/>
    </linearGradient>
  </defs>
  <g id="Grupo_90810" data-name="Grupo 90810" transform="translate(-68.897 -104.482)">
    <g id="Grupo_90812" data-name="Grupo 90812" transform="translate(68.897 235.627)">
      <g id="Grupo_90810-2" data-name="Grupo 90810" transform="translate(0 58.073)">
        <path id="Trazado_144126" data-name="Trazado 144126" d="M165.892,329.292c-2.228.212-4.386,1.069-6.646,1.057-2.725-.014-2.421-8.7-2.747-10.907-.806-5.412-3.058-11.057-7.891-14.038a12.56,12.56,0,0,0-14.666,1.222c-2.641,2.33-4.236,5.527-5.775,8.7-1.24-1.292-2.573-2.422-3.3-3.134a111.665,111.665,0,0,0-14.305-11.955c-3.918-2.725-9.206-6.13-14.2-5.811-5.59.36-5.953,6.637-5.361,10.894.05.363.123.723.185,1.084q-2.34-1.822-4.764-3.535c-4.837-3.4-11.646-4.148-15.525.973a2.951,2.951,0,0,1-.582.847C67,310.021,69.923,316.01,74.7,319.34c1.663,1.162,3.393,2.236,5.137,3.28-4.011.693-8.02,2.19-9.2,5.792-1.515,4.608,3.221,8.476,6.149,11.16,4.58,4.192,10.265,7.306,15.769,10.118a81.307,81.307,0,0,0,9.135,4.282,35.822,35.822,0,0,0-5.921,7.988c-2.369,4.785-.558,10.764,3.3,14.21,4.318,3.86,10.319,3.922,15.731,2.99,2.074-.357,10.677-3.847,11.757-1.874.975,1.779,1.08,4.2,1.426,6.162a14.839,14.839,0,0,0,3.771,7.7c3.884,4.071,9.851,4.36,15.082,3.743,6.04-.716,12-2.95,17.482-5.482,3-1.383,5.917-2.935,8.852-4.443,1.394-.712,4.155-3.206,5.821-2.843a2.662,2.662,0,0,0,2.536-.389,2.817,2.817,0,0,0,.553-.518h0c.04-.05.079-.1.117-.15a.9.9,0,0,0,.055-.078.747.747,0,0,0,.051-.079c.035-.054.069-.107.1-.162v0a2.747,2.747,0,0,0,.283-.7,2.656,2.656,0,0,0-.546-2.51c-.841-1.285.26-4.208.478-5.574.517-3.233.729-6.568,1-9.827a64.954,64.954,0,0,0-.9-18.423c-1.062-5.167-3.453-10.646-8.378-13.154A14.872,14.872,0,0,0,165.892,329.292Z" transform="translate(-68.897 -294.401)" fill="#74cde1"/>
        <path id="Trazado_144127" data-name="Trazado 144127" d="M123.664,318.966a1.283,1.283,0,1,0-2.554-.245l-1.687,17.536L104.24,325.821l1.821-18.954a1.283,1.283,0,1,0-2.555-.245l-1.684,17.539L84.982,312.586c-.021-.017-.044-.03-.063-.043a1.284,1.284,0,0,0-1.455,2.114.75.75,0,0,1,.064.045q8.42,5.787,16.841,11.572L84.6,334.132a1.282,1.282,0,1,0,1.144,2.3l17.042-8.494q7.593,5.219,15.186,10.438L102.2,346.228a1.284,1.284,0,1,0,1.146,2.3l17.041-8.492q8.178,5.619,16.356,11.242l-15.767,7.859a1.283,1.283,0,0,0,1.145,2.3l17.043-8.494q8.906,6.126,17.814,12.248l-15.767,7.857a1.283,1.283,0,0,0,1.143,2.3l17.043-8.495q7.946,5.464,15.894,10.926a1.284,1.284,0,0,0,1.454-2.116l-15.894-10.923,1.822-18.954a1.283,1.283,0,0,0-2.555-.246l-1.687,17.537q-8.907-6.121-17.815-12.244l1.821-18.953a1.284,1.284,0,1,0-2.556-.246L138.2,349.161q-8.181-5.619-16.356-11.241Z" transform="translate(-68.949 -294.442)" fill="#64b7c8"/>
      </g>
      <g id="Grupo_90811" data-name="Grupo 90811" transform="translate(22.121)">
        <path id="Trazado_144128" data-name="Trazado 144128" d="M208.519,309.588c-2.81-.689-5.8-.561-8.557-1.535-3.322-1.175.743-11.651,1.279-14.475,1.319-6.95.971-14.8-3.659-20.488a16.239,16.239,0,0,0-18.418-4.741c-4.213,1.723-7.52,4.943-10.742,8.155-.963-2.1-2.113-4.046-2.7-5.227A144.349,144.349,0,0,0,153.349,250.6c-3.625-4.992-8.63-11.391-14.857-13.122-6.974-1.94-10.088,5.566-11.175,11.013-.092.463-.157.933-.232,1.4-1.389-2.145-2.824-4.263-4.313-6.337-4.457-6.208-12.45-10.011-19.36-5.412a3.727,3.727,0,0,1-1.069.785c-6.314,5.1-5.292,13.652-.883,19.747,1.535,2.125,3.194,4.169,4.875,6.187-5.191-.86-10.718-.741-13.692,3.153-3.8,4.982.331,11.716,2.764,16.235,3.806,7.066,9.421,13.279,14.942,19.048a104.222,104.222,0,0,0,9.326,9.108c-3.772,2.062-7.465,4.145-10.618,7.234-4.929,4.831-5.258,12.9-2.021,18.743,3.629,6.549,10.927,9.174,17.928,10.335,2.683.447,14.667-.158,15.145,2.71.432,2.586-.47,5.589-.879,8.128a19.147,19.147,0,0,0,1.328,11c3.008,6.621,10.166,9.509,16.815,10.977,7.674,1.695,15.894,1.5,23.664.742,4.245-.412,8.468-1.068,12.691-1.658,2-.278,6.433-2.148,8.31-1a3.44,3.44,0,0,0,3.262.606,3.78,3.78,0,0,0,.894-.4h0c.071-.042.139-.089.207-.135.034-.022.069-.045.1-.069s.064-.05.1-.076c.066-.051.13-.1.191-.156v0a3.681,3.681,0,0,0,.644-.733,3.436,3.436,0,0,0,.4-3.3c-.478-1.927,2.109-5.025,2.956-6.6,2-3.723,3.68-7.7,5.393-11.565a83.956,83.956,0,0,0,6.728-22.865c.9-6.758.31-14.46-4.634-19.617A19.214,19.214,0,0,0,208.519,309.588Z" transform="translate(-91.101 -236.113)" fill="#7be108"/>
        <path id="Trazado_144129" data-name="Trazado 144129" d="M161.385,279.031a1.658,1.658,0,0,0-3.013-1.386l-9.511,20.687-14.095-19.191,10.279-22.357a1.658,1.658,0,0,0-3.014-1.385l-9.509,20.686L116.892,254.8l-.061-.083a1.659,1.659,0,0,0-2.672,1.963l.061.083q7.815,10.642,15.63,21.281l-22.583,2.886a1.658,1.658,0,0,0,.42,3.289l24.407-3.119q7.048,9.6,14.1,19.192l-22.583,2.885a1.658,1.658,0,0,0,.42,3.289l24.407-3.118,15.184,20.671-22.583,2.886a1.658,1.658,0,0,0,.421,3.29l24.408-3.118L182.4,349.594l-22.582,2.886a1.658,1.658,0,0,0,.419,3.289l24.408-3.119q7.377,10.044,14.753,20.088a1.659,1.659,0,0,0,2.671-1.964q-7.375-10.041-14.751-20.085L197.6,328.331a1.658,1.658,0,1,0-3.014-1.384l-9.51,20.684-16.538-22.515,10.28-22.356a1.659,1.659,0,0,0-3.014-1.387l-9.51,20.687q-7.593-10.337-15.184-20.674Z" transform="translate(-91.155 -236.179)" fill="#71c804"/>
      </g>
    </g>
    <g id="Grupo_90813" data-name="Grupo 90813" transform="translate(320.944 298.224)">
      <path id="Trazado_144130" data-name="Trazado 144130" d="M327.258,334.975c-3.608,2.453-4.937,6.981-5.256,11.131a51.234,51.234,0,0,0,1.121,14.513c.532,2.525,1.03,5.115,1.756,7.592.3,1.05,1.459,3.229.928,4.319a2.1,2.1,0,0,0-.179,2.02,2.207,2.207,0,0,0,.292.52h0c.03.04.062.08.094.118.016.019.032.04.048.058s.035.037.051.055c.036.036.071.072.107.106h0a2.332,2.332,0,0,0,.485.35,2.1,2.1,0,0,0,2.025.053c1.267-.45,3.675,1.228,4.838,1.65,2.448.888,4.887,1.813,7.372,2.6a46.827,46.827,0,0,0,14.23,2.558c4.157-.036,8.8-.854,11.436-4.427a11.687,11.687,0,0,0,2.189-6.4c.077-1.569-.081-3.476.505-4.967.651-1.653,7.731.227,9.391.3,4.33.194,9.022-.45,12.02-3.9,2.675-3.081,3.5-7.941,1.17-11.452a28.122,28.122,0,0,0-5.426-5.668,63.916,63.916,0,0,0,6.727-4.259c4.029-2.747,8.171-5.747,11.34-9.484,2.026-2.391,5.351-5.889,3.709-9.347-1.282-2.7-4.57-3.477-7.779-3.621,1.26-.991,2.51-2,3.7-3.078,3.406-3.082,5.1-8.06,1.975-11.909a1.569,1.569,0,0,0-.3-.278,1.5,1.5,0,0,0-.243-.327c-3.544-3.624-8.8-2.364-12.252.778q-1.726,1.577-3.379,3.239c.013-.288.035-.578.037-.866.043-3.391-.866-8.269-5.277-8-3.939.244-7.74,3.433-10.538,5.955a88.111,88.111,0,0,0-10.015,10.78c-.5.63-1.432,1.646-2.275,2.781-1.517-2.327-3.085-4.671-5.383-6.236a9.918,9.918,0,0,0-11.6.5c-3.488,2.814-4.691,7.455-4.784,11.774-.037,1.758,1.063,8.529-1.069,8.81-1.77.233-3.543-.224-5.307-.167A11.72,11.72,0,0,0,327.258,334.975Z" transform="translate(-321.877 -298.941)" fill="#7be108"/>
      <path id="Trazado_144131" data-name="Trazado 144131" d="M365.837,320.872a1.013,1.013,0,1,1,1.976-.446l3.06,13.564,10.852-9.677-3.306-14.658a1.013,1.013,0,1,1,1.976-.446l3.059,13.564,12.035-10.733.047-.04a1.013,1.013,0,0,1,1.347,1.511l-.045.041L384.8,324.283l13.124,4.586a1.013,1.013,0,0,1-.669,1.912l-14.185-4.958L372.219,335.5l13.125,4.587a1.012,1.012,0,0,1-.67,1.911l-14.184-4.957q-5.845,5.211-11.69,10.424l13.123,4.587a1.012,1.012,0,1,1-.669,1.911l-14.185-4.957q-6.365,5.678-12.732,11.353l13.123,4.588a1.013,1.013,0,1,1-.668,1.912L342.61,361.9,331.25,372.03a1.013,1.013,0,0,1-1.347-1.511q5.679-5.063,11.358-10.127l-3.307-14.661a1.013,1.013,0,0,1,1.977-.445l3.06,13.564q6.365-5.677,12.733-11.354l-3.306-14.659a1.013,1.013,0,1,1,1.976-.445l3.059,13.564q5.845-5.213,11.69-10.426Z" transform="translate(-321.905 -298.976)" fill="#71c804"/>
    </g>
    <g id="Grupo_90814" data-name="Grupo 90814" transform="translate(336.3 181.976)">
      <path id="Trazado_144132" data-name="Trazado 144132" d="M338.547,217.478c-1.61,2.2-1.447,5.142-.765,7.651a32.022,32.022,0,0,0,3.694,8.31c.842,1.375,1.677,2.8,2.622,4.1.4.554,1.533,1.6,1.448,2.348a1.314,1.314,0,0,0,.318,1.225,1.377,1.377,0,0,0,.281.246h0c.026.018.052.034.08.05l.04.024.041.022.085.04h0a1.393,1.393,0,0,0,.358.1,1.311,1.311,0,0,0,1.2-.392c.654-.53,2.422-.046,3.2-.041,1.627.01,3.255.045,4.882-.013a29.2,29.2,0,0,0,8.913-1.471c2.44-.891,5-2.343,5.806-5a7.309,7.309,0,0,0-.051-4.227,10.142,10.142,0,0,1-.741-3.029c.037-1.109,4.6-1.484,5.591-1.787,2.588-.791,5.217-2.152,6.26-4.81a6.081,6.081,0,0,0-1.706-6.987,17.646,17.646,0,0,0-4.381-2.2,39.972,39.972,0,0,0,3.07-3.915,34.843,34.843,0,0,0,4.693-7.956c.693-1.832,1.919-4.586.228-6.278-1.32-1.324-3.417-1.091-5.336-.505.535-.848,1.058-1.7,1.532-2.584,1.361-2.527,1.317-5.812-1.327-7.425a1.024,1.024,0,0,0-.233-.1.976.976,0,0,0-.211-.141c-2.844-1.392-5.676.448-7.05,3.02-.459.861-.894,1.734-1.311,2.615-.053-.173-.1-.348-.159-.519-.684-2-2.239-4.687-4.78-3.6-2.267.968-3.838,3.643-4.958,5.712a55.016,55.016,0,0,0-3.641,8.44c-.162.475-.5,1.268-.758,2.113a13.065,13.065,0,0,0-4.472-2.545,6.194,6.194,0,0,0-6.727,2.719c-1.465,2.386-1.2,5.371-.354,7.933.345,1.041,2.41,4.8,1.214,5.41a32.828,32.828,0,0,1-3.16,1.011A7.335,7.335,0,0,0,338.547,217.478Z" transform="translate(-337.29 -182.263)" fill="#74d5e1"/>
      <path id="Trazado_144133" data-name="Trazado 144133" d="M358.321,201.118a.633.633,0,1,1,1.07-.676l4.638,7.345,4.365-7.967-5.012-7.938a.633.633,0,0,1,1.07-.675l4.638,7.346q2.42-4.419,4.841-8.835a.274.274,0,0,1,.018-.034.633.633,0,0,1,1.11.608.363.363,0,0,0-.018.034q-2.423,4.418-4.842,8.834l8.686-.044a.632.632,0,1,1,.007,1.264l-9.388.048q-2.182,3.983-4.365,7.968l8.686-.046a.633.633,0,1,1,.006,1.265l-9.387.049q-2.351,4.291-4.7,8.581l8.686-.043a.633.633,0,0,1,.006,1.265l-9.388.047q-2.558,4.675-5.12,9.347l8.685-.044a.633.633,0,0,1,.007,1.265l-9.388.047q-2.284,4.17-4.568,8.339a.633.633,0,0,1-1.11-.608q2.285-4.17,4.569-8.338l-5.012-7.939a.632.632,0,0,1,1.069-.675l4.639,7.345q2.56-4.673,5.121-9.346l-5.012-7.939a.633.633,0,0,1,1.071-.675l4.637,7.344q2.352-4.291,4.7-8.581Z" transform="translate(-337.326 -182.289)" fill="#64bec8"/>
    </g>
    <g id="Grupo_90815" data-name="Grupo 90815" transform="translate(144.689 104.482)">
      <path id="Trazado_144134" data-name="Trazado 144134" d="M152.456,119.664H144.97l6.528-15.182h7.487Z" transform="translate(-144.97 -104.482)" fill="#3364a3"/>
      <path id="Trazado_144135" data-name="Trazado 144135" d="M163.355,119.664h-7.487l6.528-15.182h7.486Z" transform="translate(-145.01 -104.482)" fill="#3364a3"/>
      <path id="Trazado_144136" data-name="Trazado 144136" d="M174.254,119.664h-7.487l6.528-15.182h7.487Z" transform="translate(-145.05 -104.482)" fill="#3364a3"/>
      <path id="Trazado_144137" data-name="Trazado 144137" d="M185.152,119.663h-7.487l6.528-15.181h7.487Z" transform="translate(-145.09 -104.482)" fill="#3364a3" opacity="0.4"/>
      <path id="Trazado_144138" data-name="Trazado 144138" d="M196.051,119.664h-7.487l6.528-15.182h7.487Z" transform="translate(-145.13 -104.482)" fill="#3364a3" opacity="0.4"/>
      <path id="Trazado_144139" data-name="Trazado 144139" d="M206.95,119.664h-7.487l6.528-15.182h7.487Z" transform="translate(-145.171 -104.482)" fill="#3364a3" opacity="0.4"/>
      <path id="Trazado_144140" data-name="Trazado 144140" d="M217.848,119.664h-7.487l6.528-15.182h7.487Z" transform="translate(-145.211 -104.482)" fill="#3364a3" opacity="0.4"/>
    </g>
    <g id="Grupo_90817" data-name="Grupo 90817" transform="translate(354.173 120.928)">
      <path id="Rectángulo_35494" data-name="Rectángulo 35494" d="M6.288,0H37.181a6.288,6.288,0,0,1,6.288,6.288V28.862a6.287,6.287,0,0,1-6.287,6.287H6.286A6.286,6.286,0,0,1,0,28.863V6.288A6.288,6.288,0,0,1,6.288,0Z" fill="none" stroke="#3364a3" stroke-miterlimit="10" stroke-width="1"/>
      <g id="Grupo_90816" data-name="Grupo 90816" transform="translate(15.571 11.412)">
        <rect id="Rectángulo_35495" data-name="Rectángulo 35495" width="12.326" height="3.275" transform="translate(0 4.525)" fill="#3364a3"/>
        <rect id="Rectángulo_35496" data-name="Rectángulo 35496" width="3.274" height="12.325" transform="translate(4.526)" fill="#3364a3"/>
      </g>
    </g>
    <path id="Trazado_144141" data-name="Trazado 144141" d="M163.451,159.993v-3.3H158.68a6.871,6.871,0,0,0-.8-1.928l3.376-3.376-2.337-2.337-3.376,3.377a6.842,6.842,0,0,0-1.928-.8v-4.773h-3.3v4.773a6.842,6.842,0,0,0-1.928.8L145,149.046l-2.337,2.338,3.376,3.376a6.865,6.865,0,0,0-.8,1.927H140.47v3.306h4.772a6.875,6.875,0,0,0,.8,1.927l-3.376,3.377L145,167.635l3.376-3.377a6.855,6.855,0,0,0,1.928.8v4.773h3.3V165.06a6.89,6.89,0,0,0,1.929-.8l3.376,3.377,2.337-2.337-3.376-3.376a6.918,6.918,0,0,0,.8-1.929Zm-11.489,1.5a3.148,3.148,0,1,1,3.147-3.148A3.152,3.152,0,0,1,151.961,161.489Z" transform="translate(-0.264 -0.156)" fill="#3364a3"/>
    <path id="Trazado_144142" data-name="Trazado 144142" d="M256.566,115.031v-1.985H253.7a4.115,4.115,0,0,0-.48-1.158l2.027-2.026-1.4-1.4-2.027,2.027A4.1,4.1,0,0,0,250.66,110v-2.866h-1.986V110a4.126,4.126,0,0,0-1.157.48l-2.027-2.027-1.4,1.4,2.027,2.027a4.1,4.1,0,0,0-.48,1.157h-2.866v1.986h2.866a4.1,4.1,0,0,0,.48,1.157l-2.027,2.027,1.4,1.4,2.027-2.028a4.146,4.146,0,0,0,1.157.481v2.865h1.985v-2.865a4.165,4.165,0,0,0,1.158-.481l2.026,2.028,1.4-1.4-2.027-2.026a4.093,4.093,0,0,0,.481-1.158Zm-6.9.9a1.89,1.89,0,1,1,1.89-1.89A1.892,1.892,0,0,1,249.667,115.928Z" transform="translate(-0.641 -0.01)" fill="#748ae1"/>
    <g id="Grupo_90820" data-name="Grupo 90820" transform="translate(180.534 134.564)">
      <path id="Trazado_144143" data-name="Trazado 144143" d="M331.991,138.422H190.657a9.7,9.7,0,0,0-2.316.29l-.379-1.581-3.756,3.759a9.707,9.707,0,0,0-.8.8l-.085.084v.009a9.659,9.659,0,0,0-2.378,6.352V393.039a9.709,9.709,0,0,0,9.71,9.71H331.991a9.709,9.709,0,0,0,9.71-9.71V148.132A9.71,9.71,0,0,0,331.991,138.422Z" transform="translate(-180.947 -134.684)" fill="#4dd0e1"/>
      <g id="Grupo_90819" data-name="Grupo 90819" transform="translate(3.738)">
        <rect id="Rectángulo_35497" data-name="Rectángulo 35497" width="160.754" height="264.326" rx="9.746" fill="url(#linear-gradient)"/>
        <g id="Grupo_90818" data-name="Grupo 90818" transform="translate(51.005 13.265)">
          <path id="Trazado_144144" data-name="Trazado 144144" d="M293.323,151.658a2.087,2.087,0,0,1-2.086,2.087H237.98a2.087,2.087,0,0,1-2.087-2.087h0a2.087,2.087,0,0,1,2.087-2.086h53.257a2.087,2.087,0,0,1,2.086,2.086Z" transform="translate(-235.893 -147.995)" fill="#fff"/>
          <path id="Trazado_144145" data-name="Trazado 144145" d="M308.934,151.652a3.663,3.663,0,1,1-3.663-3.663A3.663,3.663,0,0,1,308.934,151.652Z" transform="translate(-236.135 -147.989)" fill="#fff"/>
        </g>
      </g>
    </g>
    <g id="Grupo_90821" data-name="Grupo 90821" transform="translate(125.917 178.102)">
      <rect id="Rectángulo_35498" data-name="Rectángulo 35498" width="113.905" height="54.302" rx="8.434" transform="translate(0 2.804)" fill="#ebe361"/>
      <rect id="Rectángulo_35499" data-name="Rectángulo 35499" width="113.905" height="54.301" rx="8.434" transform="translate(2.804)" fill="#fbf7ab"/>
      <text id="_" data-name="&lt;/&gt;" transform="translate(26.256 37.449)" fill="#fff" font-size="32" font-family="Montserrat-Black, Montserrat" font-weight="800" letter-spacing="0.2em"><tspan x="0" y="0">&lt;/&gt;</tspan></text>
    </g>
    <g id="Grupo_90822" data-name="Grupo 90822" transform="translate(256.814 173.183)">
      <rect id="Rectángulo_35500" data-name="Rectángulo 35500" width="77.829" height="5.001" fill="#fff" opacity="0.4" style="mix-blend-mode: overlay;isolation: isolate"/>
      <rect id="Rectángulo_35501" data-name="Rectángulo 35501" width="32.853" height="5.002" transform="translate(44.976 9.234)" fill="#fff" opacity="0.4" style="mix-blend-mode: overlay;isolation: isolate"/>
      <rect id="Rectángulo_35502" data-name="Rectángulo 35502" width="13.324" height="5.001" transform="translate(64.505 33.471)" fill="#fff" opacity="0.4" style="mix-blend-mode: overlay;isolation: isolate"/>
      <rect id="Rectángulo_35503" data-name="Rectángulo 35503" width="57.526" height="5.002" transform="translate(20.303 19.328)" fill="#fff" opacity="0.4" style="mix-blend-mode: overlay;isolation: isolate"/>
      <rect id="Rectángulo_35504" data-name="Rectángulo 35504" width="52.163" height="5.001" transform="translate(3.46 33.471)" fill="#fff" opacity="0.4" style="mix-blend-mode: overlay;isolation: isolate"/>
    </g>
    <path id="Trazado_144146" data-name="Trazado 144146" d="M277.817,227.1v35.48H221.87v34.544" transform="translate(-0.564 -0.452)" fill="none" stroke="#206583" stroke-miterlimit="10" stroke-width="4" opacity="0.4" style="mix-blend-mode: multiply;isolation: isolate"/>
    <path id="Trazado_144147" data-name="Trazado 144147" d="M295.233,350.578V312.206H260.688" transform="translate(-0.707 -0.766)" fill="none" stroke="#206583" stroke-miterlimit="10" stroke-width="4" opacity="0.4" style="mix-blend-mode: multiply;isolation: isolate"/>
    <g id="Grupo_90823" data-name="Grupo 90823" transform="translate(159.793 282.308)">
      <path id="Rectángulo_35505" data-name="Rectángulo 35505" d="M8.434,0H92.388a8.434,8.434,0,0,1,8.434,8.434V45.867A8.434,8.434,0,0,1,92.388,54.3H8.435A8.435,8.435,0,0,1,0,45.866V8.434A8.434,8.434,0,0,1,8.434,0Z" transform="translate(0 2.804)" fill="#b78f00"/>
      <path id="Rectángulo_35506" data-name="Rectángulo 35506" d="M8.434,0H92.388a8.434,8.434,0,0,1,8.434,8.434V45.868A8.434,8.434,0,0,1,92.388,54.3H8.435A8.435,8.435,0,0,1,0,45.867V8.434A8.434,8.434,0,0,1,8.434,0Z" transform="translate(2.804)" fill="#eaba00"/>
      <text id="C_" data-name="C++" transform="translate(22.619 36.943)" fill="#fff" font-size="27" font-family="Montserrat-Black, Montserrat" font-weight="800" letter-spacing="0.2em"><tspan x="0" y="0">C++</tspan></text>
    </g>
    <line id="Línea_235" data-name="Línea 235" y2="69.557" transform="translate(314.133 280.254)" fill="none" stroke="#fff" stroke-miterlimit="10" stroke-width="1.5"/>
    <g id="Grupo_90824" data-name="Grupo 90824" transform="translate(298.881 234.511)">
      <rect id="Rectángulo_35507" data-name="Rectángulo 35507" width="113.905" height="54.302" rx="8.434" transform="translate(0 2.803)" fill="#c2b92d"/>
      <path id="Rectángulo_35508" data-name="Rectángulo 35508" d="M8.434,0h97.037a8.435,8.435,0,0,1,8.435,8.435V45.867a8.434,8.434,0,0,1-8.434,8.434H8.434A8.434,8.434,0,0,1,0,45.867V8.434A8.434,8.434,0,0,1,8.434,0Z" transform="translate(2.803)" fill="#f4ec4a"/>
      <text id="JAVA" transform="translate(21.37 34.934)" fill="#fff" font-size="23" font-family="Montserrat-Black, Montserrat" font-weight="800" letter-spacing="0.2em"><tspan x="0" y="0">JAVA</tspan></text>
    </g>
    <g id="Grupo_90825" data-name="Grupo 90825" transform="translate(212.073 253.643)">
      <line id="Línea_236" data-name="Línea 236" x2="45.93" fill="none" stroke="#fff" stroke-miterlimit="10" stroke-width="1.5"/>
      <line id="Línea_237" data-name="Línea 237" y1="18.672" transform="translate(0.935 3.739)" fill="none" stroke="#fff" stroke-miterlimit="10" stroke-width="1.5"/>
    </g>
    <g id="Grupo_90826" data-name="Grupo 90826" transform="translate(209.248 358.065)">
      <rect id="Rectángulo_35509" data-name="Rectángulo 35509" width="116.088" height="17.59" transform="translate(0 0)" fill="#fff" opacity="0.4" style="mix-blend-mode: overlay;isolation: isolate"/>
      <text id="CONNECTED" transform="translate(13.931 11.648)" fill="#fff" font-size="9" font-family="Montserrat-ExtraBold, Montserrat" font-weight="800" letter-spacing="0.2em" opacity="0.4"><tspan x="0" y="0">CONNECTED</tspan></text>
    </g>
    <text id="PYTHON" transform="translate(277.116 118.704)" fill="#3364a3" font-size="10" font-family="Montserrat-Black, Montserrat" font-weight="800" letter-spacing="0.2em"><tspan x="0" y="0">PYTHON</tspan></text>
    <path id="Trazado_144148" data-name="Trazado 144148" d="M408.96,209.807a4.18,4.18,0,1,1-4.18-4.182A4.179,4.179,0,0,1,408.96,209.807Z" transform="translate(-1.223 -0.373)" fill="none" stroke="#3364a3" stroke-miterlimit="10" stroke-width="3"/>
    <path id="Trazado_144149" data-name="Trazado 144149" d="M426.048,175.936a3.055,3.055,0,1,1-3.055-3.055A3.054,3.054,0,0,1,426.048,175.936Z" transform="translate(-1.295 -0.252)" fill="none" stroke="#3364a3" stroke-miterlimit="10" stroke-width="2"/>
    <path id="Trazado_144150" data-name="Trazado 144150" d="M120.737,140.261a3.055,3.055,0,1,1-3.055-3.055A3.054,3.054,0,0,1,120.737,140.261Z" transform="translate(-0.169 -0.121)" fill="none" stroke="#3364a3" stroke-miterlimit="10" stroke-width="2"/>
  </g>
</svg>
