<svg xmlns="http://www.w3.org/2000/svg" width="54.466" height="86" viewBox="0 0 54.466 86">
  <g id="Grupo_90947" data-name="Grupo 90947" transform="translate(-646.015 -213)">
    <g id="Grupo_89929" data-name="Grupo 89929">
      <g id="Grupo_89927" data-name="Grupo 89927">
        <g id="Grupo_89926" data-name="Grupo 89926">
          <rect id="Rect치ngulo_35193" data-name="Rect치ngulo 35193" width="47.926" height="83.428" rx="7.367" transform="translate(649.284 214.286)" fill="#4dd0e1"/>
          <rect id="Rect치ngulo_35194" data-name="Rect치ngulo 35194" width="33.193" height="54.023" rx="2.21" transform="translate(656.65 228.934)" fill="#f0f7ff"/>
          <circle id="Elipse_4535" data-name="Elipse 4535" cx="2.964" cy="2.964" r="2.964" transform="translate(670.284 287.372)" fill="#4dd0e1"/>
        </g>
      </g>
      <g id="Grupo_89928" data-name="Grupo 89928">
        <path id="Trazado_118016" data-name="Trazado 118016" d="M689.845,213H656.65a8.666,8.666,0,0,0-8.656,8.656v4.84a1.289,1.289,0,0,0,2.579,0v-4.84a6.084,6.084,0,0,1,6.077-6.078h33.195a6.085,6.085,0,0,1,6.078,6.078v68.688a6.085,6.085,0,0,1-6.078,6.078H656.65a6.084,6.084,0,0,1-6.077-6.078V285.5a1.289,1.289,0,0,0-2.579,0h0v4.84A8.666,8.666,0,0,0,656.65,299h33.195a8.665,8.665,0,0,0,8.656-8.656V221.656A8.665,8.665,0,0,0,689.845,213Z"/>
        <path id="Trazado_118017" data-name="Trazado 118017" d="M649.284,258.645a1.292,1.292,0,0,0,1.289-1.29V234.629a1.289,1.289,0,0,0-2.579,0v22.726A1.291,1.291,0,0,0,649.284,258.645Z"/>
        <path id="Trazado_118018" data-name="Trazado 118018" d="M649.284,278.668a1.292,1.292,0,0,0,1.289-1.29v-11.9a1.289,1.289,0,0,0-2.579,0v11.9A1.291,1.291,0,0,0,649.284,278.668Z"/>
        <path id="Trazado_118019" data-name="Trazado 118019" d="M655.362,231.145v49.6a3.5,3.5,0,0,0,3.5,3.5h28.773a3.5,3.5,0,0,0,3.5-3.5v-49.6a3.5,3.5,0,0,0-3.5-3.5H658.861A3.5,3.5,0,0,0,655.362,231.145Zm33.193,0v49.6a.921.921,0,0,1-.921.921H658.861a.923.923,0,0,1-.921-.921v-49.6a.923.923,0,0,1,.921-.921h28.773a.922.922,0,0,1,.921.921Z"/>
        <path id="Trazado_118020" data-name="Trazado 118020" d="M668.995,290.336a4.253,4.253,0,1,0,4.253-4.253A4.253,4.253,0,0,0,668.995,290.336Zm5.927,0a1.674,1.674,0,1,1-1.674-1.675A1.673,1.673,0,0,1,674.922,290.336Z"/>
      </g>
    </g>
    <g id="Grupo_89933" data-name="Grupo 89933">
      <g id="Grupo_89931" data-name="Grupo 89931">
        <path id="Trazado_118021" data-name="Trazado 118021" d="M679.056,263.763a5.917,5.917,0,0,1-.053.787,5.82,5.82,0,0,1-11.533,0,6.1,6.1,0,0,1-.054-.787,5.82,5.82,0,0,1,11.64,0Z" fill="#ffb600"/>
        <g id="Grupo_89930" data-name="Grupo 89930">
          <path id="Trazado_118022" data-name="Trazado 118022" d="M686.779,256.965a2.434,2.434,0,0,1-2-1.034,13.958,13.958,0,0,0-23.091,0,2.444,2.444,0,1,1-4.025-2.772l.033-.047a18.842,18.842,0,0,1,31.074,0,2.444,2.444,0,0,1-1.994,3.853Z" fill="#feca2e"/>
          <path id="Trazado_118023" data-name="Trazado 118023" d="M697.181,239.192a2.437,2.437,0,0,1-1.852-.849c-5.9-6.853-13.745-10.626-22.093-10.626s-16.194,3.773-22.093,10.626a2.443,2.443,0,0,1-3.7-3.189h0c6.842-7.947,16-12.324,25.8-12.324s18.954,4.377,25.8,12.324a2.444,2.444,0,0,1-1.852,4.038Z" fill="#feca2e"/>
          <path id="Trazado_118024" data-name="Trazado 118024" d="M686.779,256.965a2.434,2.434,0,0,1-2-1.034,13.958,13.958,0,0,0-23.091,0,2.444,2.444,0,1,1-4.025-2.772l.033-.047a18.842,18.842,0,0,1,31.074,0,2.444,2.444,0,0,1-1.994,3.853Z" fill="#feca2e"/>
          <path id="Trazado_118025" data-name="Trazado 118025" d="M692.007,248.032a2.44,2.44,0,0,1-1.9-.9,21.2,21.2,0,0,0-33.742,0,2.444,2.444,0,1,1-3.8-3.079,26.086,26.086,0,0,1,41.334,0,2.443,2.443,0,0,1-1.9,3.982Z" fill="#feca2e"/>
        </g>
      </g>
      <g id="Grupo_89932" data-name="Grupo 89932">
        <path id="Trazado_118026" data-name="Trazado 118026" d="M676.683,259.006a.854.854,0,0,0,.018,1.208h0a4.9,4.9,0,0,1,1.5,3.549,4.965,4.965,0,1,1-7.285-4.388,4.653,4.653,0,0,1,1.5-.5.855.855,0,1,0-.262-1.69,6.338,6.338,0,0,0-2.042.684,6.681,6.681,0,1,0,7.782,1.12.854.854,0,0,0-1.209.02Z"/>
        <path id="Trazado_118027" data-name="Trazado 118027" d="M699.681,234.594a38,38,0,0,0-8.454-7.353.855.855,0,0,0-.914,1.445,36.277,36.277,0,0,1,8.071,7.023,1.6,1.6,0,0,1-.168,2.246,1.632,1.632,0,0,1-2.238-.169c-6.066-7.046-14.141-10.926-22.742-10.926s-16.675,3.88-22.741,10.926a1.589,1.589,0,0,1-2.408-2.075c6.6-7.668,15.425-11.935,24.856-12.023a.855.855,0,1,0-.007-1.71h-.008c-9.93.088-19.211,4.571-26.138,12.618a3.3,3.3,0,0,0,5,4.306c5.736-6.663,13.352-10.332,21.445-10.332s15.709,3.669,21.445,10.332a3.3,3.3,0,1,0,5-4.308Z"/>
        <path id="Trazado_118028" data-name="Trazado 118028" d="M678.176,224.074a31.476,31.476,0,0,1,7.484,2.16.855.855,0,1,0,.672-1.573,33.12,33.12,0,0,0-7.891-2.276.855.855,0,1,0-.3,1.684Z"/>
        <path id="Trazado_118029" data-name="Trazado 118029" d="M673.236,244.075A19.972,19.972,0,0,0,657,252.619a3.3,3.3,0,0,0,5.387,3.805,13.1,13.1,0,0,1,21.693,0,3.3,3.3,0,1,0,5.419-3.762l-.03-.042A19.974,19.974,0,0,0,673.236,244.075Zm14.457,11.744a1.588,1.588,0,0,1-2.213-.381,14.812,14.812,0,0,0-24.488,0,1.588,1.588,0,1,1-2.594-1.832h0a17.986,17.986,0,0,1,29.676,0,1.587,1.587,0,0,1-.379,2.212Z"/>
        <path id="Trazado_118030" data-name="Trazado 118030" d="M673.236,233.024a27.521,27.521,0,0,0-21.331,10.487,3.3,3.3,0,0,0,5.124,4.153,20.35,20.35,0,0,1,32.414,0,3.3,3.3,0,0,0,5.189-4.074c-.021-.027-.043-.054-.065-.08A27.518,27.518,0,0,0,673.236,233.024Zm19.769,13.8a1.624,1.624,0,0,1-2.233-.234,22.057,22.057,0,0,0-35.071,0,1.588,1.588,0,0,1-2.468-2,25.229,25.229,0,0,1,40.006,0,1.586,1.586,0,0,1-.232,2.231l0,0Z"/>
      </g>
    </g>
  </g>
</svg>
