<svg xmlns="http://www.w3.org/2000/svg" width="128" height="127.973" viewBox="0 0 128 127.973">
  <g id="Grupo_91014" data-name="Grupo 91014" transform="translate(-213.041 -213)">
    <rect id="Rectángulo_35448" data-name="Rectángulo 35448" width="68.253" height="123.708" rx="5.733" transform="translate(215.174 215.133)" fill="#57a4ff"/>
    <path id="Trazado_143917" data-name="Trazado 143917" d="M214.474,257.433v51.189a8.532,8.532,0,0,0,8.531,8.533h43.56C238.576,307.926,214.474,284.691,214.474,257.433Z" transform="translate(0.699 21.686)" fill="#2488ff"/>
    <path id="Trazado_143918" data-name="Trazado 143918" d="M237.373,261.733H301.36v25.595H237.373a4.266,4.266,0,0,1-4.266-4.265V266A4.267,4.267,0,0,1,237.373,261.733Z" transform="translate(9.793 23.785)" fill="#ffcd00"/>
    <circle id="Elipse_5018" data-name="Elipse 5018" cx="19.196" cy="19.196" r="19.196" transform="translate(300.489 279.12)" fill="#d1e7f8"/>
    <path id="Trazado_143919" data-name="Trazado 143919" d="M244.574,233.067h61.854a4.264,4.264,0,0,1,4.265,4.265V254.4a4.266,4.266,0,0,1-4.265,4.266H244.574V233.067Z" transform="translate(15.39 9.794)" fill="#ff3051"/>
    <circle id="Elipse_5019" data-name="Elipse 5019" cx="19.196" cy="19.196" r="19.196" transform="translate(230.104 236.462)" fill="#d1e7f8"/>
    <path id="Trazado_143920" data-name="Trazado 143920" d="M228.773,227.23h29.861a4.265,4.265,0,0,0,4.265-4.265v-8.533H224.507v8.533A4.266,4.266,0,0,0,228.773,227.23Z" transform="translate(5.596 0.699)" fill="#6d6e71"/>
    <circle id="Elipse_5020" data-name="Elipse 5020" cx="6.399" cy="6.399" r="6.399" transform="translate(242.901 244.993)" fill="none"/>
    <path id="Trazado_143921" data-name="Trazado 143921" d="M243.038,244.533h-4.266a8.532,8.532,0,0,0-8.531,8.533v3.161a19.182,19.182,0,0,0,21.328,0v-3.161A8.532,8.532,0,0,0,243.038,244.533Z" transform="translate(8.395 15.39)" fill="#9cdd05"/>
    <circle id="Elipse_5021" data-name="Elipse 5021" cx="6.399" cy="6.399" r="6.399" transform="translate(313.287 287.651)" fill="none"/>
    <path id="Trazado_143922" data-name="Trazado 143922" d="M290.338,273.2h-4.266a8.532,8.532,0,0,0-8.531,8.531v3.162a19.187,19.187,0,0,0,21.328,0v-3.162A8.531,8.531,0,0,0,290.338,273.2Z" transform="translate(31.48 29.381)" fill="#ff3051"/>
    <circle id="Elipse_5022" data-name="Elipse 5022" cx="6.399" cy="6.399" r="6.399" transform="translate(242.901 244.993)" fill="#9cdd05"/>
    <circle id="Elipse_5023" data-name="Elipse 5023" cx="6.399" cy="6.399" r="6.399" transform="translate(313.287 287.651)" fill="#ff3051"/>
    <path id="Trazado_143923" data-name="Trazado 143923" d="M223.074,292.532a2.133,2.133,0,0,0,2.132,2.134H263.6a2.133,2.133,0,1,0,0-4.266H225.206A2.133,2.133,0,0,0,223.074,292.532Z" transform="translate(4.897 37.776)"/>
    <path id="Trazado_143924" data-name="Trazado 143924" d="M319.685,276.987a21.25,21.25,0,0,0-15.205,6.4H285.559v-12.8h36.26a6.4,6.4,0,0,0,6.4-6.4V247.126a6.4,6.4,0,0,0-6.4-6.4h-36.26V223.665A10.678,10.678,0,0,0,274.894,213H223.7a10.677,10.677,0,0,0-10.663,10.665V330.309A10.677,10.677,0,0,0,223.7,340.973h51.189a10.678,10.678,0,0,0,10.665-10.665V313.246H304.48a21.329,21.329,0,1,0,15.205-36.26Zm4.266-29.861v17.064a2.132,2.132,0,0,1-2.132,2.132H267.742a21.145,21.145,0,0,0,0-21.328h54.076A2.133,2.133,0,0,1,323.951,247.126Zm-57.588,8.533a16.975,16.975,0,0,1-4.406,11.4,10.626,10.626,0,0,0-7.62-8.817,8.532,8.532,0,1,0-10.073,0,10.626,10.626,0,0,0-7.62,8.817,17.052,17.052,0,1,1,29.72-11.4Zm-17.064,0a4.266,4.266,0,1,1,4.266-4.266A4.266,4.266,0,0,1,249.3,255.658Zm-8.531,12.8a6.4,6.4,0,0,1,6.4-6.4h4.266a6.4,6.4,0,0,1,6.4,6.4v1.957a16.924,16.924,0,0,1-17.064,0Zm-8.531-51.189h34.126v6.4a2.133,2.133,0,0,1-2.132,2.132H234.369a2.133,2.133,0,0,1-2.132-2.132Zm49.056,113.042a6.4,6.4,0,0,1-6.4,6.4H223.7a6.4,6.4,0,0,1-6.4-6.4V223.665a6.4,6.4,0,0,1,6.4-6.4h4.266v6.4a6.4,6.4,0,0,0,6.4,6.4H264.23a6.4,6.4,0,0,0,6.4-6.4v-6.4h4.265a6.4,6.4,0,0,1,6.4,6.4v17.062H264.506a21.329,21.329,0,1,0-.3,30.163c.1-.1.2-.2.3-.3h16.787v12.8H247.167a6.4,6.4,0,0,0-6.4,6.4v17.064a6.4,6.4,0,0,0,6.4,6.4h34.126ZM247.167,308.98a2.133,2.133,0,0,1-2.132-2.132V289.784a2.132,2.132,0,0,1,2.132-2.132h54.075a21.153,21.153,0,0,0,0,21.328Zm63.987,4.091v-1.958a6.4,6.4,0,0,1,6.4-6.4h4.266a6.4,6.4,0,0,1,6.4,6.4v1.958A16.924,16.924,0,0,1,311.153,313.071Zm8.531-14.756a4.266,4.266,0,1,1,4.266-4.265A4.264,4.264,0,0,1,319.685,298.315Zm12.658,11.4a10.625,10.625,0,0,0-7.62-8.817,8.532,8.532,0,1,0-10.073,0,10.624,10.624,0,0,0-7.62,8.817,17.063,17.063,0,1,1,25.313,0Z" transform="translate(0)"/>
    <path id="Trazado_143925" data-name="Trazado 143925" d="M257.474,237.367h4.266v4.265h-4.266Z" transform="translate(21.686 11.893)"/>
    <path id="Trazado_143926" data-name="Trazado 143926" d="M263.207,237.367H288.8v4.265H263.207Z" transform="translate(24.484 11.893)"/>
    <path id="Trazado_143927" data-name="Trazado 143927" d="M257.474,243.1h4.266v4.266h-4.266Z" transform="translate(21.686 14.691)"/>
    <path id="Trazado_143928" data-name="Trazado 143928" d="M263.207,243.1H288.8v4.266H263.207Z" transform="translate(24.484 14.691)"/>
    <path id="Trazado_143929" data-name="Trazado 143929" d="M240.274,266.033h4.266V270.3h-4.266Z" transform="translate(13.291 25.884)"/>
    <path id="Trazado_143930" data-name="Trazado 143930" d="M246.007,266.033H271.6V270.3H246.007Z" transform="translate(16.09 25.884)"/>
    <path id="Trazado_143931" data-name="Trazado 143931" d="M240.274,271.767h4.266v4.265h-4.266Z" transform="translate(13.291 28.682)"/>
    <path id="Trazado_143932" data-name="Trazado 143932" d="M246.007,271.767H271.6v4.265H246.007Z" transform="translate(16.09 28.682)"/>
  </g>
</svg>
