<svg xmlns="http://www.w3.org/2000/svg" xmlns:xlink="http://www.w3.org/1999/xlink" width="90.968" height="94" viewBox="0 0 90.968 94">
  <defs>
    <clipPath id="clip-path">
      <rect id="Rectángulo_35551" data-name="Rectángulo 35551" width="90.968" height="94" transform="translate(323.942 62.861)" fill="none"/>
    </clipPath>
  </defs>
  <g id="Grupo_90878" data-name="Grupo 90878" transform="translate(-323.942 -62.861)">
    <g id="Grupo_91044" data-name="Grupo 91044">
      <g id="Grupo_90880" data-name="Grupo 90880">
        <path id="Trazado_144208" data-name="Trazado 144208" d="M382.326,87.119h16.65a1.514,1.514,0,0,0,1.457-1.1l1.419-4.965h-22.4l1.419,4.964a1.517,1.517,0,0,0,1.457,1.1Zm0,0" fill="#4dd0e1"/>
        <path id="Trazado_144209" data-name="Trazado 144209" d="M414.909,147.764V85.6a4.549,4.549,0,0,0-4.548-4.549h-5.354l-1.656,5.8a4.568,4.568,0,0,1-4.375,3.3h-16.65a4.567,4.567,0,0,1-4.374-3.3l-1.656-5.8h-5.354a4.549,4.549,0,0,0-4.549,4.549v62.161Zm-20.781-37.459,4.548-4.548a1.515,1.515,0,0,1,2.147,0l4.548,4.548a1.516,1.516,0,0,1-2.143,2.144l-1.964-1.961v20.6a1.516,1.516,0,0,1-3.032,0v-20.6l-1.96,1.961a1.516,1.516,0,0,1-2.144-2.144Zm-18.194,15.161a1.516,1.516,0,0,1,2.144,0l1.96,1.961v-20.6a1.517,1.517,0,1,1,3.033,0v20.6l1.96-1.961a1.516,1.516,0,0,1,2.144,2.144l-4.549,4.549a1.516,1.516,0,0,1-2.146,0l-4.549-4.549a1.517,1.517,0,0,1,0-2.144Zm0,0" fill="#4dd0e1"/>
        <g id="Grupo_90879" data-name="Grupo 90879">
          <g id="Grupo_90878-2" data-name="Grupo 90878" clip-path="url(#clip-path)">
            <path id="Trazado_144210" data-name="Trazado 144210" d="M366.393,150.8v1.516a4.549,4.549,0,0,0,4.549,4.549h39.419a4.549,4.549,0,0,0,4.548-4.549V150.8Zm0,0" fill="#4dd0e1"/>
          </g>
        </g>
      </g>
      <g id="Grupo_90881" data-name="Grupo 90881">
        <path id="Trazado_144211" data-name="Trazado 144211" d="M380.67,62.861H341.251a4.549,4.549,0,0,0-4.549,4.548v66.71a4.549,4.549,0,0,0,4.549,4.548H380.67a4.548,4.548,0,0,0,4.548-4.548V67.409a4.548,4.548,0,0,0-4.548-4.548ZM339.735,77.824l42.451.2v45.484l-42.451-.2Zm1.516-11.931H380.67a1.516,1.516,0,0,1,1.516,1.516v7.573l-42.451-.191V67.409a1.516,1.516,0,0,1,1.516-1.516Zm39.419,69.742H341.251a1.516,1.516,0,0,1-1.516-1.516V126.34l42.451.2v7.581a1.516,1.516,0,0,1-1.516,1.516Zm0,0" fill="#12263f"/>
        <path id="Trazado_144212" data-name="Trazado 144212" d="M354.9,71.958h12.129a1.516,1.516,0,0,0,0-3.033H354.9a1.516,1.516,0,0,0,0,3.033Zm0,0" fill="#12263f"/>
        <path id="Trazado_144213" data-name="Trazado 144213" d="M373.089,71.958h1.517a1.516,1.516,0,0,0,0-3.033h-1.517a1.516,1.516,0,0,0,0,3.033Zm0,0" fill="#12263f"/>
        <path id="Trazado_144214" data-name="Trazado 144214" d="M360.96,100.764a18.213,18.213,0,0,0-18.193,18.194,1.516,1.516,0,0,0,3.032,0,15.161,15.161,0,1,1,30.323,0,1.516,1.516,0,1,0,3.032,0,18.214,18.214,0,0,0-18.194-18.194Zm0,0" fill="#12263f"/>
        <path id="Trazado_144215" data-name="Trazado 144215" d="M360.96,97.732a8.339,8.339,0,1,0-8.338-8.339,8.339,8.339,0,0,0,8.338,8.339Zm0-13.645a5.306,5.306,0,1,1-5.306,5.306,5.307,5.307,0,0,1,5.306-5.306Zm0,0" fill="#12263f"/>
      </g>
    </g>
  </g>
</svg>
