<svg xmlns="http://www.w3.org/2000/svg" width="92" height="92" viewBox="0 0 92 92">
  <g id="Grupo_90926" data-name="Grupo 90926" transform="translate(-210 -210)">
    <g id="Grupo_86382" data-name="Grupo 86382">
      <circle id="Elipse_5014" data-name="Elipse 5014" cx="46" cy="46" r="46" transform="translate(210 210)" fill="#00e2ff"/>
      <circle id="Elipse_5015" data-name="Elipse 5015" cx="39.292" cy="39.292" r="39.292" transform="translate(216.708 216.708)" fill="#4dd0e1"/>
      <g id="Grupo_90927" data-name="Grupo 90927" transform="translate(1.295 1.242)">
        <g id="Grupo_90927-2" data-name="Grupo 90927">
          <path id="Trazado_144275" data-name="Trazado 144275" d="M229.834,237.138a2.14,2.14,0,0,0-2.111,2.228v30.468a2.09,2.09,0,0,0,2.111,1.994H271.2a2.089,2.089,0,0,0,2.111-1.994V254.128H271.4a1.575,1.575,0,0,1-1.575-1.575V251.43a1.708,1.708,0,0,0-2.532-1.462l-.972.562a1.575,1.575,0,0,1-2.152-.577l-1.813-3.139a1.577,1.577,0,0,1,.576-2.152l.973-.561a1.727,1.727,0,0,0,0-2.923l-.972-.561a1.577,1.577,0,0,1-.577-2.152l.766-1.327Z" fill="#fff"/>
        </g>
        <g id="Grupo_90928" data-name="Grupo 90928">
          <path id="Trazado_144276" data-name="Trazado 144276" d="M273.316,265.978v3.856a2.09,2.09,0,0,1-2.112,1.994h-41.37a2.09,2.09,0,0,1-2.111-1.994v-3.856Z" fill="#ced3dd"/>
        </g>
        <g id="Grupo_90932" data-name="Grupo 90932">
          <g id="Grupo_90929" data-name="Grupo 90929">
            <path id="Trazado_144277" data-name="Trazado 144277" d="M256.421,277.916l-.71-6.089H246.5l-.71,6.089a3.307,3.307,0,0,1-3.289,2.932c-.056,0,.057,0,0,0h17.207c-.056,0,.056,0,0,0A3.306,3.306,0,0,1,256.421,277.916Z" fill="#868eaf"/>
          </g>
          <g id="Grupo_90930" data-name="Grupo 90930">
            <path id="Trazado_144278" data-name="Trazado 144278" d="M242.5,280.851h-1.36" fill="#7ba8bd"/>
          </g>
          <g id="Grupo_90931" data-name="Grupo 90931">
            <path id="Trazado_144279" data-name="Trazado 144279" d="M261.07,280.851h-1.361" fill="#7ba8bd"/>
          </g>
        </g>
        <g id="Grupo_90933" data-name="Grupo 90933">
          <path id="Trazado_144280" data-name="Trazado 144280" d="M262.932,240.616l.971.562a1.727,1.727,0,0,1,0,2.923l-.972.562a1.574,1.574,0,0,0-.576,2.151l1.812,3.139a1.575,1.575,0,0,0,2.152.577l.973-.562a1.708,1.708,0,0,1,2.531,1.461v1.124a1.575,1.575,0,0,0,1.575,1.575h3.625a1.576,1.576,0,0,0,1.576-1.575v-1.124a1.708,1.708,0,0,1,2.531-1.461l.973.562a1.573,1.573,0,0,0,2.151-.577l1.813-3.139a1.575,1.575,0,0,0-.577-2.151l-.972-.562a1.727,1.727,0,0,1,0-2.923l.972-.562a1.575,1.575,0,0,0,.577-2.151l-1.813-3.14a1.575,1.575,0,0,0-2.151-.576l-.973.561a1.707,1.707,0,0,1-2.531-1.461v-1.124a1.576,1.576,0,0,0-1.576-1.575H271.4a1.575,1.575,0,0,0-1.575,1.575v1.124a1.707,1.707,0,0,1-2.531,1.461l-.973-.561a1.576,1.576,0,0,0-2.152.576l-1.812,3.14A1.573,1.573,0,0,0,262.932,240.616ZM273.21,239a3.638,3.638,0,1,1-3.638,3.638A3.638,3.638,0,0,1,273.21,239Z" fill="#ced3dd"/>
        </g>
        <g id="Grupo_90934" data-name="Grupo 90934">
          <path id="Trazado_144281" data-name="Trazado 144281" d="M238.018,241.4a1.149,1.149,0,0,0-1.625.04l-3.267,3.434a1.148,1.148,0,0,0,0,1.585l3.267,3.433a1.15,1.15,0,0,0,1.666-1.585l-2.514-2.641,2.514-2.641a1.15,1.15,0,0,0-.041-1.625Z"/>
          <path id="Trazado_144282" data-name="Trazado 144282" d="M249.346,249.927a1.16,1.16,0,0,0,1.625-.04l3.268-3.434a1.149,1.149,0,0,0,0-1.584l-3.268-3.434a1.149,1.149,0,0,0-1.665,1.585l2.513,2.641-2.513,2.641a1.149,1.149,0,0,0,.04,1.625Z"/>
          <path id="Trazado_144283" data-name="Trazado 144283" d="M241.032,250.073a1.161,1.161,0,0,0,1.582-.375l4.23-6.868a1.15,1.15,0,0,0-1.958-1.205l-4.23,6.867a1.148,1.148,0,0,0,.376,1.581Z"/>
          <path id="Trazado_144284" data-name="Trazado 144284" d="M253.622,253.129H233.958a1.149,1.149,0,0,0,0,2.3h19.664a1.149,1.149,0,0,0,0-2.3Z"/>
          <path id="Trazado_144285" data-name="Trazado 144285" d="M233.958,258.962a1.149,1.149,0,0,0,0,2.3h14.064a1.149,1.149,0,1,0,0-2.3Z"/>
          <path id="Trazado_144286" data-name="Trazado 144286" d="M253.04,260.112a1.15,1.15,0,0,0,1.15,1.149h9.819a1.149,1.149,0,1,0,0-2.3H254.19a1.15,1.15,0,0,0-1.15,1.15Z"/>
          <path id="Trazado_144287" data-name="Trazado 144287" d="M245.75,237.578a1.149,1.149,0,1,0,.508-1.448,1.158,1.158,0,0,0-.508,1.448Z"/>
          <path id="Trazado_144288" data-name="Trazado 144288" d="M257.815,254.916a1.149,1.149,0,1,0,.317-1.593,1.162,1.162,0,0,0-.317,1.593Z"/>
          <path id="Trazado_144289" data-name="Trazado 144289" d="M284.065,243.667l-.972-.561a.581.581,0,0,1,0-.933l.972-.561a2.728,2.728,0,0,0,1-3.722l-1.813-3.14a2.753,2.753,0,0,0-3.722-1l-.973.562a.566.566,0,0,1-.807-.466v-1.124A2.728,2.728,0,0,0,275.023,230H271.4a2.729,2.729,0,0,0-2.725,2.725v1.124a.565.565,0,0,1-.807.465l-.972-.561a2.754,2.754,0,0,0-3.722,1l-.715,1.238h-10.5a1.149,1.149,0,0,0,0,2.3h9.213a2.751,2.751,0,0,0,1.187,3.325l.971.561a.581.581,0,0,1,0,.933l-.975.561a2.729,2.729,0,0,0-.995,3.722l1.812,3.138a2.754,2.754,0,0,0,3.723,1l.972-.562a.566.566,0,0,1,.807.465v1.124a2.75,2.75,0,0,0,2.685,2.725l.807.049v9.5H228.873V239.366a.991.991,0,0,1,.961-1.079h11.8a1.149,1.149,0,1,0,0-2.3h-11.8a3.285,3.285,0,0,0-3.26,3.378v30.468h0a3.246,3.246,0,0,0,3.26,3.143h15.375l-.56,4.809a2.155,2.155,0,0,1-2.143,1.912h0c-.015,0-.032,0-.048,0l-1.314,0a1.15,1.15,0,0,0,0,2.3h19.927a1.15,1.15,0,1,0,0-2.3l-1.314,0h-.049a2.155,2.155,0,0,1-2.143-1.912v0l-.56-4.806h14.2a3.246,3.246,0,0,0,3.261-3.143V255.278h.559a2.728,2.728,0,0,0,2.725-2.725v-1.124a.566.566,0,0,1,.807-.466l.973.563a2.752,2.752,0,0,0,3.721-1l1.814-3.139a2.728,2.728,0,0,0-1-3.722Zm-11.9,23.46v2.707a.944.944,0,0,1-.962.844h-41.37a.943.943,0,0,1-.961-.844v-2.707Zm-16.887,10.92a4.438,4.438,0,0,0,.528,1.654h-9.4a4.428,4.428,0,0,0,.528-1.652l.591-5.072h7.164Zm27.793-31.808-1.813,3.139a.428.428,0,0,1-.581.157l-.973-.562a2.88,2.88,0,0,0-4.256,2.456v1.124a.427.427,0,0,1-.426.426H271.4a.429.429,0,0,1-.425-.426V251.43a2.881,2.881,0,0,0-4.257-2.458l-.972.563a.431.431,0,0,1-.581-.157l-1.813-3.139a.427.427,0,0,1,.155-.581l.974-.562a2.894,2.894,0,0,0,0-4.914l-.971-.561a.435.435,0,0,1-.157-.582l1.813-3.139a.428.428,0,0,1,.582-.156l.972.561a2.88,2.88,0,0,0,4.256-2.456v-1.124a.426.426,0,0,1,.425-.426h3.625a.426.426,0,0,1,.426.426v1.124A2.88,2.88,0,0,0,279.7,236.3l.973-.561a.428.428,0,0,1,.581.155l1.813,3.14a.427.427,0,0,1-.157.582l-.97.561a2.894,2.894,0,0,0,0,4.914l.971.562a.426.426,0,0,1,.157.581Z"/>
          <path id="Trazado_144290" data-name="Trazado 144290" d="M273.21,237.851A4.788,4.788,0,1,0,278,242.639,4.793,4.793,0,0,0,273.21,237.851Zm0,7.277a2.489,2.489,0,0,1,0-4.978,2.521,2.521,0,0,1,2.49,2.489A2.493,2.493,0,0,1,273.21,245.128Z"/>
        </g>
      </g>
    </g>
  </g>
</svg>
