<svg xmlns="http://www.w3.org/2000/svg" xmlns:xlink="http://www.w3.org/1999/xlink" width="193.837" height="193.782" viewBox="0 0 193.837 193.782">
  <defs>
    <linearGradient id="linear-gradient" x1="1.129" y1="1.296" x2="0.237" y2="0.19" gradientUnits="objectBoundingBox">
      <stop offset="0" stop-color="#daf6fe"/>
      <stop offset="1" stop-color="#e9f9fd"/>
    </linearGradient>
    <linearGradient id="linear-gradient-2" x1="0.031" y1="-0.158" x2="1.15" y2="1.412" gradientUnits="objectBoundingBox">
      <stop offset="0" stop-color="#00125d"/>
      <stop offset="1" stop-color="#0f2991"/>
    </linearGradient>
    <linearGradient id="linear-gradient-3" x1="-0.297" y1="0.086" x2="0.985" y2="0.752" gradientUnits="objectBoundingBox">
      <stop offset="0" stop-color="#4f8cff"/>
      <stop offset="1" stop-color="#4077e2"/>
    </linearGradient>
    <linearGradient id="linear-gradient-4" x1="0.166" y1="-8.411" x2="2.133" y2="41.674" xlink:href="#linear-gradient-2"/>
    <clipPath id="clip-path">
      <rect id="Rectángulo_35211" data-name="Rectángulo 35211" width="93.522" height="162.136" rx="29.249" fill="none"/>
    </clipPath>
    <linearGradient id="linear-gradient-5" x1="0.808" y1="-0.596" x2="-0.925" y2="5.805" gradientUnits="objectBoundingBox">
      <stop offset="0" stop-color="#ffca5d"/>
      <stop offset="1" stop-color="#feb423"/>
    </linearGradient>
    <linearGradient id="linear-gradient-6" x1="1.851" y1="-1.28" x2="-2.689" y2="5.24" xlink:href="#linear-gradient-5"/>
    <linearGradient id="linear-gradient-7" x1="0.758" y1="-0.937" x2="0.179" y2="2.092" xlink:href="#linear-gradient-5"/>
    <linearGradient id="linear-gradient-8" x1="0.816" y1="-0.395" x2="-0.64" y2="2.119" xlink:href="#linear-gradient-5"/>
    <linearGradient id="linear-gradient-9" x1="0.347" y1="-0.003" x2="0.678" y2="1.086" xlink:href="#linear-gradient-5"/>
    <linearGradient id="linear-gradient-10" x1="0.388" y1="0.051" x2="0.612" y2="0.948" xlink:href="#linear-gradient-5"/>
  </defs>
  <g id="Grupo_90916" data-name="Grupo 90916" transform="translate(-1754.971 -1742.91)">
    <path id="Trazado_118213" data-name="Trazado 118213" d="M1926.017,1909.434a69.932,69.932,0,0,1-10.7,8.983c-34.911,24.973-76.22,17.693-85,15.915-12.964-2.625-38.024-7.7-56.141-28.94-27.411-32.135-23.142-82.764-1.881-116.185,3.889-6.113,24.432-40.043,66.186-45.484,25.269-3.292,54.724,3.349,76.055,21.165C1959.311,1802.286,1956.123,1877.836,1926.017,1909.434Z" fill="url(#linear-gradient)"/>
    <g id="Grupo_90007" data-name="Grupo 90007" transform="translate(1757.607 1747.044)">
      <path id="Trazado_118214" data-name="Trazado 118214" d="M1849.3,1884.294s-29.938-89.646-79.4-135.574a5.73,5.73,0,0,0-9.548,3.171C1755,1781.754,1747.644,1871.532,1849.3,1884.294Z" transform="translate(-1757.692 -1747.177)" fill="#91e9fa"/>
      <path id="Trazado_118215" data-name="Trazado 118215" d="M1840.088,1880.152a.25.25,0,0,1-.29.406c-9.87-6.048-48.677-36.635-67.942-102.816a.175.175,0,0,1,.329-.117C1778.081,1792.837,1801.62,1848.769,1840.088,1880.152Z" transform="translate(-1758.132 -1748.12)" fill="#fff" opacity="0.5"/>
    </g>
    <g id="Grupo_90008" data-name="Grupo 90008" transform="translate(1755.687 1831.248)">
      <path id="Trazado_118216" data-name="Trazado 118216" d="M1859.58,1913.24s-62.132-50.755-97.583-78.486c-2.849-2.228-6.883,1.515-6.214,5.069C1760.259,1863.587,1774.849,1934.136,1859.58,1913.24Z" transform="translate(-1755.71 -1834.083)" fill="#bdf0fb"/>
      <path id="Trazado_118217" data-name="Trazado 118217" d="M1846.931,1915.852a.2.2,0,0,1-.107.383c-12.164-1.373-50.143-12.415-78.774-58.682-.093-.15.1-.31.215-.177C1776.8,1867.184,1809.594,1902.74,1846.931,1915.852Z" transform="translate(-1756.093 -1834.806)" fill="#fff" opacity="0.5"/>
    </g>
    <g id="Grupo_90009" data-name="Grupo 90009" transform="translate(1883.125 1765.786)">
      <path id="Trazado_118218" data-name="Trazado 118218" d="M1904.853,1909.107s-37.1-45.223-3.625-86.744c20.917-25.948,26.275-43.315,27.351-52.693a3.381,3.381,0,0,1,5.965-1.924C1949.108,1785.086,1978.882,1836.354,1904.853,1909.107Z" transform="translate(-1887.237 -1766.521)" fill="#7dd2f4"/>
      <path id="Trazado_118219" data-name="Trazado 118219" d="M1938.131,1782.906a.219.219,0,0,1,.437-.032c1.4,10.581,2.3,56.172-31.848,108.694a.155.155,0,0,1-.263-.166C1913.488,1878.284,1938.3,1828.723,1938.131,1782.906Z" transform="translate(-1887.834 -1767.023)" fill="#fff" opacity="0.5"/>
    </g>
    <g id="Grupo_90013" data-name="Grupo 90013" transform="translate(1802.808 1747.015)">
      <g id="Grupo_90010" data-name="Grupo 90010">
        <rect id="Rectángulo_35207" data-name="Rectángulo 35207" width="105.285" height="181.87" rx="8.531" fill="url(#linear-gradient-2)"/>
        <rect id="Rectángulo_35208" data-name="Rectángulo 35208" width="95.651" height="170.656" rx="6.631" transform="translate(4.814 5.653)" fill="url(#linear-gradient-3)"/>
        <path id="Rectángulo_35209" data-name="Rectángulo 35209" d="M0,0H57.956a0,0,0,0,1,0,0V0a5.513,5.513,0,0,1-5.513,5.513H5.513A5.513,5.513,0,0,1,0,0V0A0,0,0,0,1,0,0Z" transform="translate(23.973 5.406)" fill="url(#linear-gradient-4)"/>
        <rect id="Rectángulo_35210" data-name="Rectángulo 35210" width="35.332" height="2.015" rx="0.294" transform="translate(35.96 6.147)" fill="#7dd2f4"/>
      </g>
      <g id="Grupo_90012" data-name="Grupo 90012" transform="translate(5.818 10.373)">
        <g id="Grupo_90011" data-name="Grupo 90011" clip-path="url(#clip-path)">
          <path id="Trazado_118220" data-name="Trazado 118220" d="M1928.364,1805.456,1797.8,1773.95l2.663-10.419,130.562,31.505Z" transform="translate(-1809.957 -1758.029)" fill="#fff" opacity="0.21" style="mix-blend-mode: overlay;isolation: isolate"/>
          <path id="Trazado_118221" data-name="Trazado 118221" d="M1917.043,1905.573l-130.562-31.505,8.258-32.312,130.562,31.505Z" transform="translate(-1809.605 -1760.461)" fill="#fff" opacity="0.21" style="mix-blend-mode: overlay;isolation: isolate"/>
          <path id="Trazado_118222" data-name="Trazado 118222" d="M1924.395,1867.564l-130.562-31.505,2.144-8.391,130.562,31.505Z" transform="translate(-1809.834 -1760.023)" fill="#fff" opacity="0.21" style="mix-blend-mode: overlay;isolation: isolate"/>
          <path id="Trazado_118223" data-name="Trazado 118223" d="M1924.9,1823.948l-130.562-31.505,1.248-4.885,130.562,31.505Z" transform="translate(-1809.85 -1758.776)" fill="#fff" opacity="0.21" style="mix-blend-mode: overlay;isolation: isolate"/>
        </g>
      </g>
    </g>
    <g id="Grupo_90014" data-name="Grupo 90014" transform="translate(1850.404 1760.952)">
      <path id="Trazado_118224" data-name="Trazado 118224" d="M1866.083,1786.82c9.6,1.683,19.518,2.128,29.108.153a58.671,58.671,0,0,0,12.61-4.126c6.242-2.862,13.612-6.14,14.551-13.874.525-4.322-2.579-6.435-6.377-7.181a8.116,8.116,0,0,0-3.857-.047c-1.2.346-.989.814-.9,1.953q.139,1.776.278,3.554c.162,2.073-2.931,3.056-4.412,3.916a54.432,54.432,0,0,1-11.081,4.922c-9.251,2.891-19.094,3-28.652,1.894a4.464,4.464,0,0,0-1.267,8.834Z" transform="translate(-1853.743 -1761.531)" fill="url(#linear-gradient-5)"/>
      <path id="Trazado_118225" data-name="Trazado 118225" d="M1873.619,1796.6l-19.741-13.878a.972.972,0,0,1,.123-1.664l20.747-10.418a1.127,1.127,0,0,1,1.631,1.065,49.7,49.7,0,0,0-1.235,24.151A.969.969,0,0,1,1873.619,1796.6Z" transform="translate(-1853.466 -1761.81)" fill="url(#linear-gradient-6)"/>
    </g>
    <g id="Grupo_90015" data-name="Grupo 90015" transform="translate(1792.734 1893.99)">
      <path id="Trazado_118226" data-name="Trazado 118226" d="M1853.186,1913.367c-8.991,3.755-18.57,6.374-28.36,6.561a58.61,58.61,0,0,1-13.209-1.246c-6.718-1.416-14.63-2.99-17.25-10.327-1.465-4.1,1.1-6.845,4.638-8.409a8.782,8.782,0,0,1,5.255-1c-.554,1.654-1.137,4.923.176,6.3.936.979,4.006,1.479,5.308,1.887a54.406,54.406,0,0,0,11.893,2.36c9.661.782,19.286-1.284,28.365-4.465a4.465,4.465,0,0,1,3.184,8.338Z" transform="translate(-1793.946 -1898.838)" fill="url(#linear-gradient-7)"/>
      <path id="Trazado_118227" data-name="Trazado 118227" d="M1848.478,1924.33l16.2-17.885a.972.972,0,0,0-.486-1.6l-22.532-5.592a1.127,1.127,0,0,0-1.356,1.4,49.7,49.7,0,0,1,6.526,23.286A.969.969,0,0,0,1848.478,1924.33Z" transform="translate(-1795.386 -1898.85)" fill="url(#linear-gradient-8)"/>
    </g>
    <g id="Grupo_90019" data-name="Grupo 90019" transform="translate(1832.604 1800.281)">
      <g id="Grupo_90016" data-name="Grupo 90016" transform="translate(27.499 10.123)">
        <path id="Trazado_118228" data-name="Trazado 118228" d="M1892.974,1813.643a.219.219,0,0,1-.163-.073q-.285-.323-.578-.636a.217.217,0,1,1,.316-.3q.3.318.587.645a.217.217,0,0,1-.162.36Z" transform="translate(-1864.369 -1812.569)" fill="#fff"/>
        <path id="Trazado_118229" data-name="Trazado 118229" d="M1868.29,1866.9q-.374,0-.745-.009a.217.217,0,0,1,0-.433h0c.581.014,1.168.011,1.753-.008a.217.217,0,0,1,.014.433C1868.978,1866.895,1868.631,1866.9,1868.29,1866.9Zm3.882-.238a.217.217,0,0,1-.026-.432c.577-.071,1.16-.16,1.732-.263a.217.217,0,0,1,.077.426c-.58.1-1.172.194-1.757.266Zm4.539-.9a.217.217,0,0,1-.057-.425c.559-.154,1.123-.326,1.677-.512a.217.217,0,0,1,.138.411c-.562.188-1.134.362-1.7.518A.239.239,0,0,1,1876.712,1865.762Zm4.363-1.545a.217.217,0,0,1-.086-.415c.535-.233,1.069-.484,1.586-.745a.216.216,0,0,1,.195.386c-.525.265-1.066.518-1.608.755A.211.211,0,0,1,1881.075,1864.217Zm4.1-2.151a.217.217,0,0,1-.114-.4c.494-.307.986-.632,1.462-.965a.216.216,0,1,1,.248.355c-.481.338-.98.667-1.481.979A.217.217,0,0,1,1885.173,1862.066Zm3.742-2.721a.217.217,0,0,1-.14-.383c.445-.376.884-.768,1.305-1.167a.217.217,0,0,1,.3.315c-.427.4-.872.8-1.323,1.183A.218.218,0,0,1,1888.915,1859.345Zm3.3-3.234a.22.22,0,0,1-.143-.054.217.217,0,0,1-.018-.306c.385-.436.763-.889,1.122-1.344a.217.217,0,1,1,.34.268c-.364.462-.747.92-1.137,1.362A.217.217,0,0,1,1892.219,1856.111Zm2.8-3.68a.215.215,0,0,1-.118-.036.217.217,0,0,1-.063-.3c.318-.486.626-.988.917-1.493a.217.217,0,1,1,.375.217c-.295.511-.608,1.02-.929,1.512A.217.217,0,0,1,1895.022,1852.431Zm2.244-4.047a.212.212,0,0,1-.091-.019.217.217,0,0,1-.106-.288c.245-.53.479-1.072.693-1.609a.217.217,0,0,1,.4.16c-.218.546-.454,1.095-.7,1.632A.217.217,0,0,1,1897.266,1848.384Zm1.639-4.327a.2.2,0,0,1-.062-.01.216.216,0,0,1-.146-.269c.167-.557.32-1.127.455-1.693a.217.217,0,0,1,.422.1c-.138.573-.293,1.15-.461,1.715A.217.217,0,0,1,1898.9,1844.057Zm1-4.519a.168.168,0,0,1-.031,0,.216.216,0,0,1-.183-.245c.084-.576.153-1.162.206-1.741a.214.214,0,0,1,.234-.2.218.218,0,0,1,.2.235c-.053.588-.124,1.182-.209,1.764A.217.217,0,0,1,1899.9,1839.538Zm.336-4.617a.216.216,0,0,1-.216-.217c0-.584-.016-1.173-.048-1.752a.216.216,0,0,1,.2-.228.22.22,0,0,1,.229.2c.033.586.049,1.184.049,1.776A.217.217,0,0,1,1900.241,1834.921Zm-.337-4.616a.217.217,0,0,1-.214-.185c-.085-.576-.187-1.158-.3-1.727a.217.217,0,1,1,.424-.086c.118.576.221,1.165.307,1.749a.216.216,0,0,1-.182.246A.179.179,0,0,1,1899.9,1830.305Zm-1-4.518a.218.218,0,0,1-.207-.154c-.168-.56-.353-1.12-.549-1.665a.216.216,0,1,1,.407-.147c.2.552.386,1.12.557,1.687a.215.215,0,0,1-.145.269A.2.2,0,0,1,1898.9,1825.787Zm-1.644-4.326a.215.215,0,0,1-.2-.126c-.245-.528-.508-1.055-.781-1.569a.216.216,0,1,1,.382-.2c.277.52.544,1.055.792,1.59a.216.216,0,0,1-.1.288A.222.222,0,0,1,1897.255,1821.461Zm-2.246-4.047a.217.217,0,0,1-.181-.1c-.317-.485-.653-.97-1-1.44a.217.217,0,1,1,.349-.257c.351.477.692.967,1.013,1.459a.216.216,0,0,1-.181.335Z" transform="translate(-1863.596 -1812.661)" fill="#fff"/>
        <path id="Trazado_118230" data-name="Trazado 118230" d="M1864.552,1868.319l-.025,0q-.433-.049-.865-.11a.217.217,0,0,1,.061-.429c.284.041.569.077.854.11a.217.217,0,0,1-.024.432Z" transform="translate(-1863.477 -1814.286)" fill="#fff"/>
      </g>
      <g id="Grupo_90017" data-name="Grupo 90017">
        <path id="Trazado_118231" data-name="Trazado 118231" d="M1842.371,1855.944a.216.216,0,0,1-.17-.082c-.179-.228-.357-.459-.53-.693a.217.217,0,1,1,.348-.259q.257.346.522.683a.216.216,0,0,1-.169.351Z" transform="translate(-1835.298 -1803.76)" fill="#fff"/>
        <path id="Trazado_118232" data-name="Trazado 118232" d="M1840.06,1851.282a.215.215,0,0,1-.184-.1c-.3-.491-.6-1-.875-1.513a.217.217,0,1,1,.381-.207c.275.506.565,1.008.863,1.493a.217.217,0,0,1-.185.33Zm-2.1-4.04a.218.218,0,0,1-.2-.131c-.05-.116-.1-.234-.15-.351-.174-.417-.344-.844-.5-1.27a.217.217,0,0,1,.406-.152c.157.423.324.844.5,1.254l.148.347a.217.217,0,0,1-.113.285A.211.211,0,0,1,1837.957,1847.242Zm-1.515-4.3a.216.216,0,0,1-.208-.159c-.154-.561-.295-1.133-.417-1.7a.216.216,0,1,1,.422-.092c.122.559.26,1.122.412,1.675a.217.217,0,0,1-.151.266A.239.239,0,0,1,1836.442,1842.946Zm-.889-4.468a.216.216,0,0,1-.214-.19c-.073-.576-.13-1.163-.17-1.74a.217.217,0,0,1,.432-.03c.04.57.1,1.147.168,1.717a.215.215,0,0,1-.188.241Zm-.24-4.549h0a.218.218,0,0,1-.213-.221c.012-.58.039-1.169.081-1.747a.217.217,0,1,1,.432.032c-.042.571-.07,1.151-.08,1.723A.217.217,0,0,1,1835.312,1833.929Zm.412-4.537-.035,0a.217.217,0,0,1-.179-.249c.094-.573.2-1.15.329-1.717a.217.217,0,1,1,.423.093c-.123.559-.231,1.129-.325,1.694A.215.215,0,0,1,1835.724,1829.392Zm1.052-4.432a.214.214,0,0,1-.065-.01.216.216,0,0,1-.141-.271c.173-.553.364-1.109.569-1.653a.216.216,0,0,1,.405.151c-.2.537-.39,1.086-.561,1.632A.216.216,0,0,1,1836.776,1824.96Zm1.669-4.237a.212.212,0,0,1-.093-.021.217.217,0,0,1-.1-.289c.252-.526.519-1.049.8-1.556a.216.216,0,1,1,.38.208c-.273.5-.537,1.016-.785,1.535A.218.218,0,0,1,1838.445,1820.723Zm2.25-3.959a.209.209,0,0,1-.119-.037.216.216,0,0,1-.06-.3c.322-.483.661-.962,1.008-1.426a.217.217,0,1,1,.347.26c-.342.457-.677.931-.994,1.407A.216.216,0,0,1,1840.694,1816.764Zm2.79-3.6a.213.213,0,0,1-.145-.055.216.216,0,0,1-.016-.305c.385-.431.79-.857,1.2-1.268a.216.216,0,0,1,.306.306c-.406.405-.8.825-1.185,1.251A.216.216,0,0,1,1843.484,1813.166Zm3.272-3.162a.216.216,0,0,1-.14-.382c.446-.373.907-.737,1.37-1.083a.216.216,0,1,1,.259.347c-.456.341-.911.7-1.351,1.068A.215.215,0,0,1,1846.756,1810Zm3.692-2.662a.217.217,0,0,1-.113-.4c.493-.3,1-.6,1.512-.878a.217.217,0,0,1,.206.381c-.5.274-1,.566-1.491.865A.212.212,0,0,1,1850.447,1807.342Zm4.035-2.11a.217.217,0,0,1-.087-.416c.139-.06.278-.12.419-.179.4-.167.8-.328,1.2-.478a.218.218,0,0,1,.279.128.216.216,0,0,1-.128.278c-.394.148-.793.306-1.186.471-.139.059-.276.117-.413.177A.214.214,0,0,1,1854.482,1805.231Zm4.292-1.525a.217.217,0,0,1-.058-.425c.562-.155,1.133-.3,1.7-.421a.217.217,0,0,1,.093.423c-.558.122-1.121.262-1.674.416A.236.236,0,0,1,1858.774,1803.706Zm4.465-.9a.216.216,0,0,1-.027-.431c.575-.074,1.16-.132,1.74-.174a.216.216,0,1,1,.031.431c-.572.042-1.149.1-1.716.172Zm6.283-.175h-.015c-.572-.041-1.151-.066-1.723-.075a.217.217,0,0,1,0-.433h0c.58.01,1.168.036,1.747.077a.217.217,0,0,1-.016.433Z" transform="translate(-1835.095 -1802.122)" fill="#fff"/>
        <path id="Trazado_118233" data-name="Trazado 118233" d="M1874.385,1803.122a.193.193,0,0,1-.041,0c-.281-.053-.564-.1-.847-.148a.217.217,0,0,1,.069-.428c.288.047.574.1.859.151a.217.217,0,0,1-.041.429Z" transform="translate(-1836.283 -1802.135)" fill="#fff"/>
      </g>
      <g id="Grupo_90018" data-name="Grupo 90018" transform="translate(8.285 8.426)">
        <path id="Trazado_118234" data-name="Trazado 118234" d="M1875.094,1811.211a.384.384,0,0,0-.437.088l-3.188,3.41a20.324,20.324,0,0,0-6.587-.179l-3-3.575a.382.382,0,0,0-.43-.111l-5.23,2a.385.385,0,0,0-.246.371l.158,4.662a20.329,20.329,0,0,0-4.781,4.533l-4.651-.409a.383.383,0,0,0-.384.226l-2.282,5.114a.386.386,0,0,0,.088.437l3.411,3.188a20.335,20.335,0,0,0-.179,6.586l-3.575,3a.384.384,0,0,0-.111.431l2,5.229a.384.384,0,0,0,.371.247l4.662-.158a20.33,20.33,0,0,0,4.534,4.781l-.409,4.651a.385.385,0,0,0,.226.384l5.114,2.282a.384.384,0,0,0,.437-.089l3.188-3.41a20.337,20.337,0,0,0,6.587.179l3,3.575a.384.384,0,0,0,.43.111l5.23-2a.385.385,0,0,0,.246-.371l-.158-4.662a20.324,20.324,0,0,0,4.782-4.534l4.651.408a.382.382,0,0,0,.384-.226l2.282-5.114a.383.383,0,0,0-.088-.436l-3.411-3.188a20.339,20.339,0,0,0,.179-6.586l3.575-3a.383.383,0,0,0,.111-.431l-2-5.229a.385.385,0,0,0-.371-.246l-4.662.157a20.341,20.341,0,0,0-4.533-4.781l.409-4.651a.385.385,0,0,0-.226-.384Z" transform="translate(-1843.645 -1810.819)" fill="url(#linear-gradient-9)"/>
        <path id="Trazado_118235" data-name="Trazado 118235" d="M1868.244,1840.7a5.3,5.3,0,0,1-3.059-9.631h0a5.3,5.3,0,1,1,3.059,9.631Zm-.017-9.944a4.619,4.619,0,0,0-2.667.844h0a4.653,4.653,0,1,0,2.667-.844Zm-2.854.578h0Z" transform="translate(-1844.245 -1811.418)" fill="#fff" opacity="0.7"/>
        <path id="Trazado_118236" data-name="Trazado 118236" d="M1867.933,1849.09a13.837,13.837,0,0,1-4.965-26.759c.191-.073.384-.141.577-.206a13.937,13.937,0,0,1,2-.507l.266-.045.1.642a13.326,13.326,0,0,0-2.714.722h0a13.182,13.182,0,1,0,12.864,1.944l.4-.511a13.839,13.839,0,0,1-8.533,24.72Z" transform="translate(-1843.97 -1811.153)" fill="#fff" opacity="0.7"/>
      </g>
    </g>
    <g id="Grupo_90023" data-name="Grupo 90023" transform="translate(1809.783 1847.136)">
      <g id="Grupo_90020" data-name="Grupo 90020" transform="translate(15.795 5.551)">
        <path id="Trazado_118237" data-name="Trazado 118237" d="M1844.47,1857.282a.215.215,0,0,1-.164-.074c-.187-.214-.381-.427-.578-.631a.217.217,0,1,1,.312-.3c.2.209.4.426.592.646a.216.216,0,0,1-.163.359Z" transform="translate(-1828.336 -1856.21)" fill="#fff"/>
        <path id="Trazado_118238" data-name="Trazado 118238" d="M1831.8,1887.3a.216.216,0,0,1-.016-.432c.556-.042,1.115-.109,1.662-.2a.217.217,0,1,1,.073.427c-.56.095-1.133.165-1.7.207Zm4.351-.872a.216.216,0,0,1-.068-.422c.509-.169,1.019-.365,1.516-.581l.046-.02a.217.217,0,0,1,.175.4l-.048.021c-.509.222-1.031.422-1.552.595A.218.218,0,0,1,1836.151,1886.427Zm4.011-1.9a.213.213,0,0,1-.183-.1.215.215,0,0,1,.067-.3c.469-.3.93-.621,1.37-.961a.216.216,0,0,1,.264.342c-.449.349-.921.68-1.4.984A.213.213,0,0,1,1840.163,1884.527Zm3.426-2.819a.216.216,0,0,1-.157-.365c.383-.4.75-.83,1.092-1.267a.217.217,0,0,1,.341.267c-.351.448-.727.884-1.119,1.3A.214.214,0,0,1,1843.589,1881.707Zm2.631-3.57a.218.218,0,0,1-.189-.324c.273-.484.526-.987.752-1.495a.216.216,0,1,1,.4.176c-.232.519-.49,1.035-.769,1.532A.219.219,0,0,1,1846.22,1878.137Zm1.687-4.105a.245.245,0,0,1-.058-.008.217.217,0,0,1-.151-.266c.147-.536.27-1.085.367-1.634a.217.217,0,1,1,.426.076c-.1.561-.225,1.124-.376,1.673A.216.216,0,0,1,1847.907,1874.031Zm.64-4.391h0a.217.217,0,0,1-.212-.222c0-.127,0-.255,0-.382,0-.43-.016-.865-.046-1.293a.216.216,0,0,1,.2-.232.219.219,0,0,1,.233.2c.032.438.047.883.047,1.323,0,.131,0,.261,0,.391A.216.216,0,0,1,1848.548,1869.64Zm-.454-4.416a.214.214,0,0,1-.21-.168c-.126-.542-.278-1.085-.453-1.612a.216.216,0,0,1,.411-.136c.179.539.335,1.095.463,1.65a.217.217,0,0,1-.211.265Zm-1.517-4.171a.215.215,0,0,1-.193-.118c-.253-.5-.531-.985-.827-1.455a.217.217,0,0,1,.366-.232c.3.481.588.983.847,1.49a.216.216,0,0,1-.095.292A.206.206,0,0,1,1846.576,1861.053Z" transform="translate(-1827.96 -1856.302)" fill="#fff"/>
        <path id="Trazado_118239" data-name="Trazado 118239" d="M1828.922,1888.176h-.018c-.292-.023-.585-.054-.872-.091a.217.217,0,0,1,.056-.43c.279.036.566.066.851.089a.216.216,0,0,1-.017.432Z" transform="translate(-1827.844 -1857.188)" fill="#fff"/>
      </g>
      <g id="Grupo_90021" data-name="Grupo 90021">
        <path id="Trazado_118240" data-name="Trazado 118240" d="M1815.9,1881.3a.215.215,0,0,1-.169-.081c-.186-.229-.365-.462-.535-.694a.217.217,0,1,1,.35-.256c.166.226.341.453.522.678a.217.217,0,0,1-.169.353Z" transform="translate(-1811.654 -1851.404)" fill="#fff"/>
        <path id="Trazado_118241" data-name="Trazado 118241" d="M1813.83,1877.39a.218.218,0,0,1-.192-.116c-.2-.39-.4-.79-.57-1.19-.048-.113-.1-.227-.143-.34a.217.217,0,0,1,.4-.164c.045.11.092.22.14.33.171.391.358.782.556,1.163a.216.216,0,0,1-.092.292A.208.208,0,0,1,1813.83,1877.39Zm-1.548-4.084a.218.218,0,0,1-.21-.165c-.134-.544-.244-1.1-.328-1.655a.217.217,0,0,1,.428-.065c.081.542.189,1.085.32,1.616a.215.215,0,0,1-.158.262A.193.193,0,0,1,1812.281,1873.306Zm-.523-4.336h0a.215.215,0,0,1-.216-.217c0-.561.028-1.128.08-1.685a.215.215,0,0,1,.236-.2.218.218,0,0,1,.2.236c-.052.544-.078,1.1-.079,1.645A.218.218,0,0,1,1811.758,1868.97Zm.537-4.334a.238.238,0,0,1-.052-.006.216.216,0,0,1-.158-.263c.135-.542.3-1.087.482-1.617a.217.217,0,1,1,.409.143c-.18.517-.339,1.048-.471,1.578A.217.217,0,0,1,1812.295,1864.636Zm1.556-4.079a.222.222,0,0,1-.1-.025.217.217,0,0,1-.09-.293c.262-.5.549-.987.854-1.454a.216.216,0,1,1,.362.236c-.3.456-.578.934-.833,1.419A.218.218,0,0,1,1813.851,1860.557Zm2.485-3.59a.212.212,0,0,1-.143-.054.217.217,0,0,1-.019-.306c.372-.419.768-.824,1.177-1.206a.217.217,0,0,1,.3.317c-.4.372-.786.768-1.15,1.177A.214.214,0,0,1,1816.336,1856.967Zm3.276-2.885a.217.217,0,0,1-.122-.4c.461-.315.944-.613,1.434-.886a.216.216,0,1,1,.211.378c-.479.267-.95.558-1.4.867A.216.216,0,0,1,1819.612,1854.082Zm3.874-2.015a.217.217,0,0,1-.077-.42c.525-.2,1.065-.373,1.6-.521a.217.217,0,0,1,.115.418c-.527.145-1.054.317-1.567.51A.234.234,0,0,1,1823.486,1852.067Zm4.243-1.035a.216.216,0,0,1-.025-.431c.555-.066,1.121-.107,1.683-.12a.221.221,0,0,1,.222.211.217.217,0,0,1-.211.222c-.548.014-1.1.053-1.643.117Z" transform="translate(-1811.542 -1850.481)" fill="#fff"/>
        <path id="Trazado_118242" data-name="Trazado 118242" d="M1833.614,1851.186a.245.245,0,0,1-.038,0c-.276-.048-.56-.092-.846-.128a.217.217,0,0,1,.055-.43c.292.037.583.081.866.132a.216.216,0,0,1-.038.429Z" transform="translate(-1812.195 -1850.485)" fill="#fff"/>
      </g>
      <g id="Grupo_90022" data-name="Grupo 90022" transform="translate(4.831 4.903)">
        <path id="Trazado_118243" data-name="Trazado 118243" d="M1834.1,1855.663a.218.218,0,0,0-.246.053l-1.778,1.953a11.5,11.5,0,0,0-3.727-.053l-1.722-2a.219.219,0,0,0-.245-.06l-2.944,1.172a.217.217,0,0,0-.137.211l.124,2.636a11.508,11.508,0,0,0-2.671,2.6l-2.633-.2a.217.217,0,0,0-.216.131l-1.253,2.91a.219.219,0,0,0,.053.246l1.953,1.778a11.5,11.5,0,0,0-.052,3.727l-2,1.723a.218.218,0,0,0-.06.244l1.172,2.943a.215.215,0,0,0,.211.137l2.637-.123a11.487,11.487,0,0,0,2.6,2.67l-.2,2.634a.217.217,0,0,0,.131.215l2.91,1.253a.217.217,0,0,0,.247-.053l1.778-1.953a11.494,11.494,0,0,0,3.726.053l1.723,2a.218.218,0,0,0,.245.06l2.943-1.171a.218.218,0,0,0,.137-.212l-.123-2.636a11.527,11.527,0,0,0,2.671-2.6l2.634.2a.216.216,0,0,0,.215-.131l1.253-2.91a.216.216,0,0,0-.053-.246l-1.952-1.778a11.521,11.521,0,0,0,.052-3.727l2-1.723a.215.215,0,0,0,.06-.244l-1.172-2.943a.218.218,0,0,0-.212-.137l-2.636.124a11.51,11.51,0,0,0-2.6-2.671l.2-2.634a.217.217,0,0,0-.131-.215Z" transform="translate(-1816.528 -1855.541)" fill="url(#linear-gradient-10)"/>
        <path id="Trazado_118244" data-name="Trazado 118244" d="M1830.39,1872.536a3.136,3.136,0,1,1,1.835-.594A3.135,3.135,0,0,1,1830.39,1872.536Zm-.009-5.625a2.495,2.495,0,1,0,.4.032A2.419,2.419,0,0,0,1830.381,1866.911Z" transform="translate(-1816.862 -1855.875)" fill="#fff" opacity="0.7"/>
        <path id="Trazado_118245" data-name="Trazado 118245" d="M1830.208,1877.287a7.972,7.972,0,0,1-2.947-15.378h0a8.048,8.048,0,0,1,1.528-.439l.106-.018.107.641a7.4,7.4,0,0,0-1.5.42h0a7.316,7.316,0,1,0,7.154.985l.394-.516a7.975,7.975,0,0,1-4.842,14.305Z" transform="translate(-1816.706 -1855.725)" fill="#fff" opacity="0.7"/>
      </g>
    </g>
  </g>
</svg>
