<svg xmlns="http://www.w3.org/2000/svg" xmlns:xlink="http://www.w3.org/1999/xlink" width="100.483" height="94" viewBox="0 0 100.483 94">
  <defs>
    <clipPath id="clip-path">
      <rect id="Rectángulo_35548" data-name="Rectángulo 35548" width="100.483" height="94" transform="translate(610.501 136.086)" fill="none"/>
    </clipPath>
  </defs>
  <g id="Grupo_90865" data-name="Grupo 90865" transform="translate(-610.501 -136.086)">
    <g id="Grupo_90867" data-name="Grupo 90867">
      <g id="Grupo_90866" data-name="Grupo 90866" clip-path="url(#clip-path)">
        <path id="Trazado_144200" data-name="Trazado 144200" d="M678.827,153.777c-17.254,2.655-17.646,20.831-19.815,25.163A12.629,12.629,0,0,1,646.842,188c-14.677,0-15.721,20.527-5.673,32.385,19.542,23.07,69.814,3.007,69.814-39.016a27.916,27.916,0,0,0-32.156-27.588Zm-14.844,65.012a6.483,6.483,0,1,1,6.483-6.483,6.483,6.483,0,0,1-6.483,6.483Zm22.69-11.345a6.483,6.483,0,1,1,6.483-6.483,6.483,6.483,0,0,1-6.483,6.483Zm4.862-24.31a6.483,6.483,0,1,1,6.483-6.483,6.483,6.483,0,0,1-6.483,6.483Zm0,0" fill="#4dd0e1"/>
        <path id="Trazado_144201" data-name="Trazado 144201" d="M689.161,140.754l-2.292-2.292a8.1,8.1,0,0,0-11.458,0l-13.048,13.047V140.948a4.862,4.862,0,0,0-4.862-4.862H615.363a4.862,4.862,0,0,0-4.862,4.862v71.31a4.862,4.862,0,0,0,4.862,4.863H657.5a4.862,4.862,0,0,0,4.862-4.863V179.011l26.8-26.8a8.1,8.1,0,0,0,0-11.46ZM659.6,177.2l-9.4,9.4-9.168-9.168,20.858-20.858L674.2,144.251l9.17,9.176Zm-22,12.836a6.483,6.483,0,0,1,0-9.167l1.146-1.146,9.168,9.167-1.146,1.146a6.644,6.644,0,0,1-9.168,0Zm9.731-50.7-.505,2.014a1.621,1.621,0,0,1-1.573,1.228H627.618a1.621,1.621,0,0,1-1.573-1.228l-.5-2.014ZM657.5,213.879H615.363a1.621,1.621,0,0,1-1.621-1.621v-1.62h45.379v1.62a1.621,1.621,0,0,1-1.62,1.621Zm1.62-6.483H613.742V140.948a1.621,1.621,0,0,1,1.621-1.621H622.2l.7,2.8a4.863,4.863,0,0,0,4.718,3.682h17.627a4.863,4.863,0,0,0,4.718-3.682l.7-2.8h6.84a1.621,1.621,0,0,1,1.62,1.621v13.8L635.3,178.572a9.7,9.7,0,0,0-1.045,12.5l-3.832,3.833a1.62,1.62,0,0,0,2.292,2.29l3.831-3.831a9.7,9.7,0,0,0,12.506-1.044l10.072-10.071Zm27.748-57.474-1.212,1.212-9.168-9.168,1.213-1.212a4.977,4.977,0,0,1,6.875,0l2.292,2.292a4.86,4.86,0,0,1,0,6.876Zm0,0" fill="#12263f"/>
      </g>
    </g>
    <path id="Trazado_144202" data-name="Trazado 144202" d="M662.8,164.82a1.619,1.619,0,0,0-2.292,0l-3.44,3.437a1.621,1.621,0,1,0,2.292,2.292l3.44-3.438a1.621,1.621,0,0,0,0-2.291Zm0,0" fill="#12263f"/>
    <path id="Trazado_144203" data-name="Trazado 144203" d="M652.49,172.842l-3.438,3.437a1.621,1.621,0,0,0,2.29,2.292l3.437-3.437a1.621,1.621,0,1,0-2.291-2.292Zm0,0" fill="#12263f"/>
    <path id="Trazado_144204" data-name="Trazado 144204" d="M628.328,181.465h-3.241a8.1,8.1,0,1,0,0,16.207,1.62,1.62,0,0,0,0-3.241,4.862,4.862,0,0,1,0-9.724h3.241a1.621,1.621,0,0,0,0-3.242Zm0,0" fill="#12263f"/>
    <path id="Trazado_144205" data-name="Trazado 144205" d="M623.466,165.258h21.069a1.62,1.62,0,1,0,0-3.241H623.466a3.242,3.242,0,0,1,0-6.483h14.586a1.62,1.62,0,1,0,0-3.241H623.466a6.482,6.482,0,1,0,0,12.965Zm0,0" fill="#12263f"/>
  </g>
</svg>
