<svg xmlns="http://www.w3.org/2000/svg" xmlns:xlink="http://www.w3.org/1999/xlink" width="90.892" height="94" viewBox="0 0 90.892 94">
  <defs>
    <clipPath id="clip-path">
      <rect id="Rectángulo_35537" data-name="Rectángulo 35537" width="90.892" height="94" transform="translate(0 0)" fill="none"/>
    </clipPath>
  </defs>
  <g id="Grupo_91043" data-name="Grupo 91043" transform="translate(-335 -1105)">
    <g id="Grupo_90856" data-name="Grupo 90856" transform="translate(-105 1141)">
      <g id="Grupo_90855" data-name="Grupo 90855" transform="translate(440 -36)">
        <g id="Grupo_90854" data-name="Grupo 90854" transform="translate(0 0)" clip-path="url(#clip-path)">
          <path id="Trazado_144170" data-name="Trazado 144170" d="M578.848,79.665a27.7,27.7,0,0,0,0-11.523l7.306-6.013A1.515,1.515,0,0,0,586.5,60.2l-6.065-10.5a1.515,1.515,0,0,0-1.845-.66l-8.868,3.322a28.985,28.985,0,0,0-9.971-5.773L558.2,37.267A1.517,1.517,0,0,0,556.711,36H544.582a1.516,1.516,0,0,0-1.5,1.267l-1.553,9.318a28.944,28.944,0,0,0-9.97,5.773L522.7,49.039a1.515,1.515,0,0,0-1.845.66l-6.065,10.5a1.515,1.515,0,0,0,.348,1.928l7.306,6.01a27.772,27.772,0,0,0,0,11.523l-7.3,6.01A1.514,1.514,0,0,0,514.8,87.6l6.065,10.5a1.515,1.515,0,0,0,1.845.66l8.865-3.319a28.906,28.906,0,0,0,9.97,5.774l1.552,9.317a1.518,1.518,0,0,0,1.5,1.267h12.129a1.516,1.516,0,0,0,1.5-1.267l1.554-9.317a28.962,28.962,0,0,0,9.958-5.774l8.862,3.319a1.515,1.515,0,0,0,1.845-.66L586.5,87.6a1.515,1.515,0,0,0-.348-1.928Zm-28.2,7.884A13.645,13.645,0,1,1,564.292,73.9a13.645,13.645,0,0,1-13.645,13.645Zm0,0" transform="translate(-495.738 -17.807)" fill="#feca2e"/>
        </g>
      </g>
      <path id="Trazado_144171" data-name="Trazado 144171" d="M511.258-36h-66.71A4.548,4.548,0,0,0,440-31.452V23.129a4.548,4.548,0,0,0,4.548,4.548h66.71a4.548,4.548,0,0,0,4.548-4.548V-31.452A4.548,4.548,0,0,0,511.258-36Zm-66.71,3.032h66.71a1.517,1.517,0,0,1,1.516,1.516v7.581H443.032v-7.581a1.517,1.517,0,0,1,1.516-1.516Zm66.71,57.613h-66.71a1.517,1.517,0,0,1-1.516-1.516V-20.839h69.742V23.129a1.517,1.517,0,0,1-1.516,1.516Zm0,0" transform="translate(0)" fill="#12263f"/>
      <path id="Trazado_144172" data-name="Trazado 144172" d="M465.516-8.968h1.516a1.517,1.517,0,0,0,1.516-1.516A1.517,1.517,0,0,0,467.032-12h-1.516A1.517,1.517,0,0,0,464-10.484a1.517,1.517,0,0,0,1.516,1.516Zm0,0" transform="translate(-17.935 -17.935)" fill="#12263f"/>
      <path id="Trazado_144173" data-name="Trazado 144173" d="M495.516-8.968h1.516a1.517,1.517,0,0,0,1.516-1.516A1.517,1.517,0,0,0,497.032-12h-1.516A1.517,1.517,0,0,0,494-10.484a1.517,1.517,0,0,0,1.516,1.516Zm0,0" transform="translate(-40.355 -17.935)" fill="#12263f"/>
      <path id="Trazado_144174" data-name="Trazado 144174" d="M525.516-8.968h1.516a1.517,1.517,0,0,0,1.516-1.516A1.517,1.517,0,0,0,527.032-12h-1.516A1.517,1.517,0,0,0,524-10.484a1.517,1.517,0,0,0,1.516,1.516Zm0,0" transform="translate(-62.774 -17.935)" fill="#12263f"/>
      <path id="Trazado_144175" data-name="Trazado 144175" d="M633.516-8.968H651.71a1.517,1.517,0,0,0,1.516-1.516A1.517,1.517,0,0,0,651.71-12H633.516A1.517,1.517,0,0,0,632-10.484a1.517,1.517,0,0,0,1.516,1.516Zm0,0" transform="translate(-143.484 -17.935)" fill="#12263f"/>
      <path id="Trazado_144176" data-name="Trazado 144176" d="M476.509,62.772a1.516,1.516,0,0,0,2.144-2.144l-4.993-4.993,4.993-4.993a1.516,1.516,0,0,0-2.144-2.144l-6.065,6.064a1.515,1.515,0,0,0,0,2.144Zm0,0" transform="translate(-22.419 -62.829)" fill="#12263f"/>
      <path id="Trazado_144177" data-name="Trazado 144177" d="M548.444,62.772a1.515,1.515,0,0,0,2.144,0l6.065-6.064a1.515,1.515,0,0,0,0-2.144L550.588,48.5a1.516,1.516,0,0,0-2.144,2.144l4.993,4.993-4.993,4.993a1.515,1.515,0,0,0,0,2.144Zm0,0" transform="translate(-80.71 -62.829)" fill="#12263f"/>
      <path id="Trazado_144178" data-name="Trazado 144178" d="M512.985,63.073a1.515,1.515,0,0,0,1.952-.886l4.548-12.129A1.516,1.516,0,0,0,516.645,49L512.1,61.124a1.516,1.516,0,0,0,.889,1.948Zm0,0" transform="translate(-53.807 -62.781)" fill="#12263f"/>
      <path id="Trazado_144179" data-name="Trazado 144179" d="M650.193,96H633.516a1.516,1.516,0,0,0,0,3.032h16.677a1.516,1.516,0,1,0,0-3.032Zm0,0" transform="translate(-143.484 -98.645)" fill="#12263f"/>
      <path id="Trazado_144180" data-name="Trazado 144180" d="M596.387,132H561.516a1.516,1.516,0,1,0,0,3.032h34.871a1.516,1.516,0,0,0,0-3.032Zm0,0" transform="translate(-89.677 -125.548)" fill="#12263f"/>
      <path id="Trazado_144181" data-name="Trazado 144181" d="M471.516,135.032h16.677a1.516,1.516,0,0,0,0-3.032H471.516a1.516,1.516,0,1,0,0,3.032Zm0,0" transform="translate(-22.419 -125.548)" fill="#12263f"/>
      <path id="Trazado_144182" data-name="Trazado 144182" d="M650.193,168H633.516a1.516,1.516,0,0,0,0,3.032h16.677a1.516,1.516,0,1,0,0-3.032Zm0,0" transform="translate(-143.484 -152.452)" fill="#12263f"/>
      <path id="Trazado_144183" data-name="Trazado 144183" d="M506.387,168H471.516a1.516,1.516,0,1,0,0,3.032h34.871a1.516,1.516,0,0,0,0-3.032Zm0,0" transform="translate(-22.419 -152.452)" fill="#12263f"/>
    </g>
  </g>
</svg>
