<svg xmlns="http://www.w3.org/2000/svg" width="179.473" height="154.413" viewBox="0 0 179.473 154.413">
  <g id="Grupo_90987" data-name="Grupo 90987" transform="translate(317.747 -154.58)">
    <path id="Trazado_141676" data-name="Trazado 141676" d="M-151.241,218.354c5.343-9.749,4.522-22.246-1.55-31.567s-17.006-15.316-28.336-16.158c-13.952-1.036-28.884,5.024-41.494-.858a70.8,70.8,0,0,1-6.617-3.919c-4.637-3.5-27.429-22.211-57.536-2.1-27.849,18.605-11.373,48.854-8.747,53.284,4.328,7.077,8.455,14.493,7.511,22.506-.9,7.669-6.338,14.078-8.807,21.416a29.145,29.145,0,0,0,4.253,26.352c4.6,6.159,11.476,10.343,18.539,13.635,10.265,4.787,21.558,8.049,32.932,7.4l51.173-.242c9.4-.886,18.951-3.527,26.135-9.493s11.5-15.755,8.927-24.579c-1.858-6.382-6.895-11.434-9.467-17.577a24.71,24.71,0,0,1,.345-19.659C-160.865,230.025-154.829,224.9-151.241,218.354Z" transform="translate(-3.419)" fill="#85cfea" opacity="0.59"/>
    <g id="Grupo_90094" data-name="Grupo 90094" transform="translate(-211.252 235.455)">
      <path id="Trazado_141677" data-name="Trazado 141677" d="M-119.616,282.243a6.792,6.792,0,0,0-3.476-.357,16.355,16.355,0,0,0-7.283,2.644c-5.311,3.543-8.381,10.072-14.222,12.649a1.623,1.623,0,0,1-1.306.151,1.338,1.338,0,0,1-.65-1.056c-.222-1.468.688-2.832,1.265-4.2s.666-3.282-.627-4.012a2.669,2.669,0,0,0-1.744-.212,32.244,32.244,0,0,0,9.551-6.263,6.308,6.308,0,0,0,1.913-2.705,40.421,40.421,0,0,1-10.6,4c-2.695.6-6.556,3.272-8.957,5.191.107-.155.209-.312.317-.466a64.8,64.8,0,0,1,4.354-5.55,65.067,65.067,0,0,1,4.541-4.678,51.208,51.208,0,0,0,5.472-1.913,18.973,18.973,0,0,0,4.806-2.262,17.953,17.953,0,0,0,3.574-3.814q1.826-2.4,3.564-4.872a1.3,1.3,0,0,0-1.084-.043c-4.5,1.167-9.2,2.437-12.614,5.586a14.324,14.324,0,0,0-4.159,7.013q-2.029,1.9-3.893,3.966c-.524.582-1.034,1.177-1.537,1.778,1.394-2.732,2.408-5.852,3.455-8.463a34.721,34.721,0,0,0,1.674-6.493l.964-5.069a58.547,58.547,0,0,0-6.171,7.978c-1.492,2.177-3.017,4.432-3.539,7.02-.572,2.834.12,5.743.867,8.547-.073.1-.149.2-.222.3-1.185,1.646-2.288,3.351-3.314,5.1a19.938,19.938,0,0,0-.085-5.91c-.61-2.838-2.488-5.384-2.538-8.287a29.5,29.5,0,0,1-.247,3.92,21.172,21.172,0,0,0-.249,7.254,6.755,6.755,0,0,0,2.342,4.382,63.926,63.926,0,0,0-2.918,5.963q-.175.41-.344.822a.262.262,0,0,0,.182.32.267.267,0,0,0,.32-.182,63.248,63.248,0,0,1,2.959-6.207,6.181,6.181,0,0,0,3.681.957c-.613,1.142-1.155,2.327-1.691,3.507l-3.811,8.4c-.352.776-.864,1.668-1.716,1.712-.962.049-1.577-1.043-1.693-2-.252-2.081.7-4.192.314-6.252a2.183,2.183,0,0,0-.574-1.215c-.872-.822-2.308-.228-3.245.52a17.828,17.828,0,0,0-5.544,8.626c-1.059,3.3-3.3,10.7-1.272,15.418,7.181,3.088,16,3.742,22.921,4.209a50.875,50.875,0,0,0,7.43-.117,4.146,4.146,0,0,0,3.343-1.913c.886-1.408-.08-3.292-1.358-4.358s-2.891-1.77-3.876-3.111a1.892,1.892,0,0,1-.432-1.089c0-.86.888-1.418,1.676-1.761a23.1,23.1,0,0,1,10.973-1.833,29.4,29.4,0,0,0,6,.324c1.993-.254,4.049-1.384,4.649-3.3.744-2.381-1.121-4.933-3.423-5.9-1.473-.615-3.393-1.029-3.811-2.57a3.213,3.213,0,0,1,.945-2.806c1.723-1.984,4.29-2.965,6.614-4.2,2.453-1.3,4.833-3.084,5.872-5.658S-117.076,283.365-119.616,282.243ZM-156.06,292.66c-.793.247-2.119.538-3.045.836q1.365-2.477,2.945-4.826c1.695,1.011,3.839.774,5.789.191a12.056,12.056,0,0,0-3.457,3.115c-.02.026-.038.053-.057.08C-154.548,292.217-155.154,292.378-156.06,292.66Z" transform="translate(178.862 -260.119)" fill="#44cfdd" opacity="0.46"/>
      <g id="Grupo_90093" data-name="Grupo 90093" transform="translate(0)">
        <path id="Trazado_141678" data-name="Trazado 141678" d="M-130.564,261.013c-4.5,1.167-9.2,2.437-12.615,5.586a14.32,14.32,0,0,0-4.158,7.013q-2.03,1.9-3.894,3.966c-.524.582-1.034,1.177-1.536,1.778,1.394-2.731,2.408-5.852,3.455-8.462a34.8,34.8,0,0,0,1.674-6.494q.482-2.534.963-5.069a58.505,58.505,0,0,0-6.17,7.978c-1.492,2.177-3.018,4.432-3.54,7.019-.571,2.833.121,5.744.868,8.547-.073.1-.15.2-.222.3q-1.777,2.469-3.314,5.1a19.94,19.94,0,0,0-.084-5.91c-.61-2.838-2.488-5.384-2.538-8.287a29.769,29.769,0,0,1-.247,3.921,21.152,21.152,0,0,0-.249,7.254,6.756,6.756,0,0,0,2.342,4.382,63.825,63.825,0,0,0-2.919,5.963q-.174.409-.343.821a.261.261,0,0,0,.182.32.266.266,0,0,0,.32-.181,63.346,63.346,0,0,1,2.958-6.207,6.954,6.954,0,0,0,5.81.6,20.212,20.212,0,0,0,5.53-3.026.977.977,0,0,0,.364-.364.338.338,0,0,0-.13-.449.479.479,0,0,0-.264,0c-1.5.259-2.937.775-4.415,1.129-1.5.359-2.169.494-3.68.964-.793.247-2.119.538-3.045.835q1.364-2.476,2.945-4.825c1.943,1.158,4.476.677,6.631-.084a32.249,32.249,0,0,0,11.422-7,6.315,6.315,0,0,0,1.913-2.706,40.432,40.432,0,0,1-10.6,4c-2.7.6-6.556,3.272-8.957,5.191.107-.154.209-.312.317-.466a64.9,64.9,0,0,1,4.354-5.55,64.917,64.917,0,0,1,4.54-4.678A51.571,51.571,0,0,0-141.424,272a18.983,18.983,0,0,0,4.805-2.262,17.939,17.939,0,0,0,3.575-3.815q1.826-2.4,3.564-4.871A1.293,1.293,0,0,0-130.564,261.013Z" transform="translate(176.004 -259.331)" fill="#fda31a"/>
        <g id="Grupo_90092" data-name="Grupo 90092" transform="translate(0 19.026)">
          <path id="Trazado_141679" data-name="Trazado 141679" d="M-178.989,325.638c-2.032-4.721.212-12.115,1.271-15.417a17.837,17.837,0,0,1,5.545-8.626c.937-.747,2.373-1.341,3.245-.519a2.19,2.19,0,0,1,.574,1.214c.384,2.06-.567,4.171-.315,6.252.116.957.732,2.048,1.694,2,.851-.043,1.363-.935,1.716-1.711q1.905-4.2,3.811-8.4a31.482,31.482,0,0,1,3.456-6.295,10.585,10.585,0,0,1,5.778-4.049,2.979,2.979,0,0,1,2.135.137c1.293.73,1.205,2.644.628,4.012s-1.488,2.732-1.265,4.2a1.336,1.336,0,0,0,.65,1.055,1.623,1.623,0,0,0,1.306-.151c5.841-2.577,8.911-9.106,14.222-12.65a16.374,16.374,0,0,1,7.283-2.644,6.785,6.785,0,0,1,3.476.357c2.539,1.121,3.355,4.587,2.317,7.161s-3.419,4.358-5.872,5.658c-2.322,1.231-4.889,2.211-6.614,4.2a3.213,3.213,0,0,0-.944,2.806c.418,1.54,2.338,1.954,3.811,2.569,2.3.962,4.168,3.514,3.423,5.9-.6,1.918-2.656,3.048-4.649,3.3a29.388,29.388,0,0,1-6-.325,23.1,23.1,0,0,0-10.973,1.834c-.789.343-1.672.9-1.676,1.76a1.885,1.885,0,0,0,.432,1.089c.984,1.342,2.6,2.045,3.876,3.111s2.244,2.95,1.357,4.358a4.144,4.144,0,0,1-3.342,1.912,50.984,50.984,0,0,1-7.43.118c-6.918-.468-15.74-1.122-22.921-4.21" transform="translate(179.811 -283.975)" fill="#2a4c80"/>
          <path id="Trazado_141680" data-name="Trazado 141680" d="M-125.357,289.749c-3.045,2.609-6.089,5.218-9.161,7.8-.459.385-.92.767-1.38,1.151.208-.418.417-.835.622-1.255q.457-.939.907-1.882t.91-1.9q.452-.945.909-1.888.438-.9.887-1.8l.11-.217a.125.125,0,0,0-.221-.116q-.448.891-.884,1.787-.457.939-.907,1.882t-.91,1.9q-.453.945-.909,1.888-.439.9-.888,1.8c-.032.065-.065.13-.1.2q-3.684,3.064-7.44,6.041c-3.133,2.47-6.316,4.876-9.571,7.184q-2.58,1.83-5.223,3.567,1.023-2.741,1.936-5.523.944-2.884,1.766-5.807.46-1.638.882-3.286c.039-.155-.2-.209-.243-.054q-.752,2.94-1.628,5.847t-1.863,5.744q-.558,1.605-1.154,3.2a.156.156,0,0,0-.008.083c-1.468.961-2.949,1.9-4.45,2.813q-5.04,3.06-10.316,5.7-.318-1.7-.487-3.422-.171-1.774-.18-3.558t.148-3.565q.156-1.775.473-3.531.318-1.775.793-3.518.059-.218.12-.435c.044-.154-.2-.207-.242-.053q-.495,1.746-.836,3.531-.336,1.767-.513,3.561t-.19,3.581q-.013,1.806.143,3.606t.48,3.59c.02.11.041.222.062.332-.1.049-.2.1-.3.151q-.686.342-1.375.675c-.144.07-.008.279.134.21.567-.275,1.13-.56,1.693-.842a.1.1,0,0,0,.021,0,.11.11,0,0,0,.05-.033c1.231-.617,2.457-1.245,3.67-1.9q1.273.089,2.546.171,1.248.081,2.5.158l2.474.151q1.246.076,2.492.156,1.27.081,2.541.168l.33.023a.125.125,0,0,0,.118-.13.128.128,0,0,0-.131-.118q-1.281-.089-2.564-.171-1.248-.081-2.5-.157l-2.473-.151q-1.246-.078-2.492-.156-1.218-.079-2.436-.162,2.58-1.394,5.106-2.888c3.456-2.051,6.824-4.246,10.119-6.546q2.366-1.651,4.683-3.374a8.824,8.824,0,0,0,1.017.141c.418.044.838.083,1.256.124q1.809.173,3.622.315t3.626.253q1.814.112,3.63.193t3.633.13l.456.012c.16,0,.147-.245-.013-.249q-1.808-.046-3.616-.123t-3.63-.185q-1.807-.107-3.61-.245t-3.606-.3q-.706-.066-1.413-.137c-.359-.036-.719-.073-1.076-.13q2.365-1.759,4.686-3.574c2.883-2.251,5.719-4.559,8.531-6.9a.112.112,0,0,0,.032-.026c.249-.208.5-.413.748-.621,3.064-2.559,6.1-5.153,9.132-7.75l1.124-.964C-125.052,289.813-125.237,289.645-125.357,289.749Z" transform="translate(178.862 -285.249)" fill="#2ebcf3"/>
        </g>
      </g>
    </g>
    <g id="Grupo_90097" data-name="Grupo 90097" transform="translate(-317.747 233.375)">
      <path id="Trazado_141681" data-name="Trazado 141681" d="M-257.679,298.816a17.83,17.83,0,0,0-5.544-8.626c-.892-.71-2.234-1.28-3.113-.626q-.659-1.326-1.375-2.623a6.756,6.756,0,0,0,2.342-4.382,21.171,21.171,0,0,0-.249-7.254,29.755,29.755,0,0,1-.247-3.92c-.049,2.9-1.928,5.448-2.538,8.287a19.938,19.938,0,0,0-.084,5.91q-1.54-2.624-3.314-5.1c-.073-.1-.149-.2-.222-.3.747-2.8,1.439-5.712.868-8.546-.523-2.587-2.048-4.842-3.54-7.02a58.551,58.551,0,0,0-6.17-7.978q.481,2.534.963,5.069a34.737,34.737,0,0,0,1.674,6.494c1.047,2.61,2.061,5.731,3.455,8.462-.5-.6-1.013-1.2-1.536-1.778q-1.86-2.065-3.894-3.966a14.326,14.326,0,0,0-4.158-7.013c-3.419-3.149-8.115-4.419-12.615-5.586a1.292,1.292,0,0,0-1.084.043q1.737,2.468,3.564,4.872a17.953,17.953,0,0,0,3.574,3.814,18.972,18.972,0,0,0,4.806,2.262,51.4,51.4,0,0,0,5.473,1.913,65.06,65.06,0,0,1,4.54,4.678,64.893,64.893,0,0,1,4.354,5.55c.107.154.21.311.317.466-2.4-1.919-6.262-4.589-8.957-5.191a40.459,40.459,0,0,1-10.6-4,6.314,6.314,0,0,0,1.913,2.706,32.034,32.034,0,0,0,4.042,3.253,1.915,1.915,0,0,0-.281.127c-1.292.73-1.2,2.644-.627,4.012s1.488,2.732,1.265,4.2a1.338,1.338,0,0,1-.65,1.056,1.626,1.626,0,0,1-1.306-.151c-5.841-2.577-8.911-9.106-14.222-12.65a16.374,16.374,0,0,0-7.283-2.644,6.784,6.784,0,0,0-3.476.357c-2.539,1.121-3.356,4.587-2.317,7.161s3.419,4.358,5.872,5.658c2.323,1.231,4.89,2.211,6.613,4.2a3.212,3.212,0,0,1,.945,2.806c-.418,1.54-2.338,1.954-3.811,2.57-2.3.961-4.168,3.514-3.423,5.9.6,1.918,2.656,3.048,4.649,3.3a29.393,29.393,0,0,0,6-.325,23.1,23.1,0,0,1,10.973,1.834c.788.343,1.672.9,1.676,1.76a1.666,1.666,0,0,1-.287.872c-1.018-.211-2.054-.363-3.079-.508a58.513,58.513,0,0,0-10.05-.844l4.387,2.716a47.977,47.977,0,0,0,4.237,2.424,4.164,4.164,0,0,0-1.213,2.681,14.221,14.221,0,0,0-4.418-.333c-4.632.392-8.741,2.995-12.642,5.523-.314.2-.66.456-.7.828q2.994.388,6,.666a17.93,17.93,0,0,0,5.227-.057,18.964,18.964,0,0,0,4.915-2.014c1.219-.638,2.5-1.218,3.714-1.892a5.753,5.753,0,0,0,1.587.408,50.98,50.98,0,0,0,7.43.118c.88-.059,1.792-.122,2.726-.192a19.732,19.732,0,0,0-6.12,2.349,40.434,40.434,0,0,1-10.109,5.113,6.308,6.308,0,0,0,3.287.418,32.233,32.233,0,0,0,12.877-3.689c1.941-1.033,3.923-2.5,4.479-4.583q.471-.05.945-.1,2.349.389,4.666.947c-.845.482-1.956,1.262-2.674,1.68-1.368.8-1.922,1.2-3.2,2.061-1.259.85-2.613,1.562-3.816,2.491a.479.479,0,0,0-.175.2.338.338,0,0,0,.243.4.976.976,0,0,0,.515-.023,20.214,20.214,0,0,0,5.967-2.03,6.957,6.957,0,0,0,3.48-4.691,63.377,63.377,0,0,1,6.574,2.014.267.267,0,0,0,.351-.113.263.263,0,0,0-.113-.351q-.418-.154-.837-.3a63.839,63.839,0,0,0-6.368-1.878,4.571,4.571,0,0,0-.014-1.052,45.7,45.7,0,0,0,10.232-2.87C-254.376,309.512-256.62,302.118-257.679,298.816Zm-9.033-8.839a2.63,2.63,0,0,0-.33.908c-.385,2.06.567,4.171.314,6.252-.116.957-.731,2.048-1.693,2-.852-.043-1.363-.935-1.716-1.711q-1.906-4.2-3.811-8.4-.226-.5-.456-1c.225.085.452.164.684.233a6.955,6.955,0,0,0,5.81-.6C-267.494,288.42-267.1,289.2-266.712,289.977Zm-4.312-7.458q1.575,2.349,2.945,4.825c-.926-.3-2.252-.588-3.045-.835-1.512-.47-2.184-.605-3.68-.964-.32-.076-.637-.163-.954-.25a19.962,19.962,0,0,0-1.645-2.565c-.074-.1-.151-.191-.228-.286C-275.481,283.2-272.959,283.673-271.024,282.519Zm2.872,35.291c-.444-.1-.889-.185-1.335-.272.266-.036.533-.076.8-.114C-268.507,317.559-268.328,317.69-268.152,317.81Z" transform="translate(316.978 -256.638)" fill="#44cfdd" opacity="0.28"/>
      <g id="Grupo_90096" data-name="Grupo 90096" transform="translate(0 2.079)">
        <path id="Trazado_141682" data-name="Trazado 141682" d="M-295.538,261.013c4.5,1.167,9.2,2.437,12.614,5.586a14.327,14.327,0,0,1,4.159,7.013q2.029,1.9,3.893,3.966c.524.582,1.034,1.177,1.537,1.778-1.4-2.731-2.408-5.852-3.455-8.462a34.744,34.744,0,0,1-1.675-6.494q-.481-2.534-.963-5.069a58.5,58.5,0,0,1,6.17,7.978c1.492,2.177,3.018,4.432,3.54,7.019.572,2.833-.121,5.744-.867,8.547.073.1.149.2.222.3q1.778,2.469,3.314,5.1a19.939,19.939,0,0,1,.084-5.91c.61-2.838,2.488-5.384,2.539-8.287a29.633,29.633,0,0,0,.246,3.921,21.152,21.152,0,0,1,.249,7.254,6.759,6.759,0,0,1-2.341,4.382,64.015,64.015,0,0,1,2.918,5.963q.174.409.344.821a.263.263,0,0,1-.182.32.267.267,0,0,1-.321-.181,63.339,63.339,0,0,0-2.958-6.207,6.953,6.953,0,0,1-5.809.6,20.19,20.19,0,0,1-5.53-3.026.978.978,0,0,1-.365-.364.337.337,0,0,1,.13-.449.479.479,0,0,1,.264,0c1.5.259,2.936.775,4.414,1.129,1.5.359,2.169.494,3.681.964.792.247,2.119.538,3.044.835q-1.364-2.476-2.945-4.825c-1.942,1.158-4.476.677-6.63-.084a32.242,32.242,0,0,1-11.422-7,6.308,6.308,0,0,1-1.913-2.706,40.417,40.417,0,0,0,10.6,4c2.7.6,6.556,3.272,8.957,5.191-.106-.154-.208-.312-.317-.466a64.89,64.89,0,0,0-4.354-5.55,65.1,65.1,0,0,0-4.541-4.678A51.577,51.577,0,0,1-284.679,272a19,19,0,0,1-4.805-2.262,17.917,17.917,0,0,1-3.574-3.815q-1.828-2.4-3.565-4.871A1.294,1.294,0,0,1-295.538,261.013Z" transform="translate(312.932 -259.331)" fill="#2a4c80"/>
        <path id="Trazado_141683" data-name="Trazado 141683" d="M-309.053,337.736c3.9-2.528,8.01-5.131,12.642-5.523a14.314,14.314,0,0,1,7.979,1.674q2.772-.212,5.554-.189c.784.007,1.567.033,2.349.069-2.955-.818-5.941-2.18-8.572-3.172a34.693,34.693,0,0,1-5.918-3.155l-4.387-2.715a58.528,58.528,0,0,1,10.051.843c2.613.372,5.306.771,7.565,2.135,2.475,1.493,4.152,3.971,5.714,6.415.123.014.247.024.37.039q3.021.359,6,1a19.958,19.958,0,0,1-4.3-4.056c-1.68-2.368-2.288-5.473-4.393-7.471a29.659,29.659,0,0,0,3.056,2.467,21.157,21.157,0,0,1,5.515,4.719,6.758,6.758,0,0,1,1.648,4.687,63.88,63.88,0,0,1,6.367,1.878q.419.148.837.3a.262.262,0,0,1,.113.351.267.267,0,0,1-.351.113,63.373,63.373,0,0,0-6.573-2.014,6.96,6.96,0,0,1-3.48,4.691,20.211,20.211,0,0,1-5.968,2.03.976.976,0,0,1-.515.023.337.337,0,0,1-.242-.4.485.485,0,0,1,.174-.2c1.2-.928,2.556-1.64,3.816-2.49,1.275-.86,1.83-1.265,3.2-2.061.717-.418,1.828-1.2,2.674-1.68q-2.748-.667-5.547-1.09c-.459,2.214-2.525,3.757-4.543,4.831A32.249,32.249,0,0,1-291.1,343.48a6.307,6.307,0,0,1-3.287-.418,40.409,40.409,0,0,0,10.109-5.113c2.265-1.58,6.843-2.622,9.879-3.094-.185-.025-.371-.056-.557-.081a64.757,64.757,0,0,0-7.034-.541,65.1,65.1,0,0,0-6.517.186,51.4,51.4,0,0,1-5.109,2.741,18.953,18.953,0,0,1-4.915,2.014,17.958,17.958,0,0,1-5.227.057q-3.005-.278-6-.666C-309.713,338.192-309.368,337.94-309.053,337.736Z" transform="translate(315.925 -273.987)" fill="#f79f45"/>
        <g id="Grupo_90095" data-name="Grupo 90095" transform="translate(0 15.932)">
          <path id="Trazado_141684" data-name="Trazado 141684" d="M-259.784,321.63c2.032-4.722-.212-12.115-1.271-15.418a17.838,17.838,0,0,0-5.545-8.626c-.937-.747-2.373-1.341-3.245-.519a2.189,2.189,0,0,0-.574,1.214c-.384,2.06.567,4.171.315,6.252-.116.957-.731,2.048-1.694,2-.851-.043-1.363-.935-1.716-1.711q-1.905-4.2-3.811-8.4a31.478,31.478,0,0,0-3.456-6.295,10.589,10.589,0,0,0-5.778-4.05,2.979,2.979,0,0,0-2.135.137c-1.293.73-1.205,2.644-.628,4.012s1.488,2.732,1.265,4.2a1.336,1.336,0,0,1-.65,1.055,1.623,1.623,0,0,1-1.306-.151c-5.841-2.577-8.911-9.106-14.221-12.649a16.38,16.38,0,0,0-7.284-2.644,6.781,6.781,0,0,0-3.475.357c-2.539,1.121-3.356,4.587-2.318,7.161s3.419,4.358,5.872,5.658c2.322,1.231,4.889,2.211,6.614,4.2a3.213,3.213,0,0,1,.944,2.806c-.418,1.541-2.338,1.955-3.811,2.57-2.3.962-4.168,3.514-3.423,5.9.6,1.918,2.656,3.048,4.649,3.3a29.393,29.393,0,0,0,6-.325,23.1,23.1,0,0,1,10.973,1.834c.788.343,1.672.9,1.675,1.76a1.88,1.88,0,0,1-.432,1.089c-.984,1.342-2.6,2.045-3.876,3.111s-2.244,2.949-1.357,4.358a4.144,4.144,0,0,0,3.342,1.912,51,51,0,0,0,7.43.118c6.918-.468,15.74-1.122,22.921-4.21" transform="translate(317.747 -279.967)" fill="#fda31a"/>
          <path id="Trazado_141685" data-name="Trazado 141685" d="M-310.972,285.741c3.044,2.609,6.089,5.218,9.16,7.8.459.385.919.767,1.38,1.151-.208-.418-.417-.835-.622-1.255q-.456-.939-.907-1.882t-.91-1.9q-.452-.945-.909-1.889-.438-.9-.887-1.8l-.109-.217a.124.124,0,0,1,.22-.116q.449.891.884,1.787.457.939.907,1.882t.91,1.9q.453.945.909,1.888.439.9.888,1.8c.032.065.065.13.1.2q3.684,3.064,7.44,6.04c3.133,2.471,6.316,4.877,9.57,7.185q2.58,1.829,5.223,3.567-1.023-2.741-1.936-5.523-.944-2.885-1.766-5.807-.46-1.638-.882-3.286c-.039-.156.2-.209.243-.054q.753,2.94,1.628,5.847t1.863,5.744q.558,1.605,1.155,3.2a.164.164,0,0,1,.008.083c1.468.961,2.949,1.9,4.45,2.813q5.04,3.06,10.316,5.7.319-1.7.487-3.422.171-1.774.18-3.558t-.148-3.566q-.156-1.774-.473-3.531-.318-1.775-.793-3.518-.059-.218-.12-.435c-.044-.154.2-.207.243-.053q.493,1.746.835,3.53.337,1.768.513,3.561t.19,3.581q.013,1.805-.143,3.606t-.479,3.59l-.062.332c.1.049.2.1.3.151q.686.342,1.375.675c.144.07.008.279-.134.21-.568-.275-1.13-.561-1.693-.842a.161.161,0,0,1-.02,0,.115.115,0,0,1-.051-.033c-1.231-.617-2.457-1.245-3.67-1.9q-1.273.089-2.545.171-1.25.081-2.5.158l-2.474.151q-1.246.076-2.492.156-1.27.081-2.541.168l-.331.023a.125.125,0,0,1-.118-.13.128.128,0,0,1,.131-.118q1.282-.089,2.564-.171,1.249-.081,2.5-.157l2.473-.151q1.246-.078,2.492-.156,1.218-.079,2.436-.162-2.58-1.394-5.106-2.888c-3.456-2.051-6.824-4.246-10.119-6.546q-2.366-1.651-4.683-3.374a8.639,8.639,0,0,1-1.017.14c-.418.045-.838.084-1.256.124q-1.809.173-3.621.314t-3.627.254q-1.813.111-3.629.192t-3.633.131l-.456.012c-.16,0-.147-.245.013-.249q1.809-.046,3.616-.123t3.63-.185q1.807-.107,3.61-.245t3.606-.3q.706-.066,1.413-.137c.359-.035.72-.073,1.076-.13q-2.365-1.759-4.686-3.574c-2.883-2.251-5.719-4.559-8.531-6.9a.1.1,0,0,1-.032-.026c-.249-.208-.5-.413-.749-.621-3.064-2.559-6.1-5.153-9.131-7.75l-1.125-.964C-311.277,285.8-311.092,285.637-310.972,285.741Z" transform="translate(316.254 -281.241)" fill="#fff"/>
        </g>
      </g>
    </g>
    <g id="Grupo_90099" data-name="Grupo 90099" transform="translate(-303.35 212.607)">
      <path id="Trazado_141686" data-name="Trazado 141686" d="M-279.424,232.313a1.3,1.3,0,0,0-.188-.124,1.33,1.33,0,0,0-1.178-.052l-17.515,7.74a1.333,1.333,0,0,0-.657.632,1.419,1.419,0,0,0-.083.212,1.326,1.326,0,0,0,.059.914L-294.406,252a1.333,1.333,0,0,0,1.758.68l17.515-7.739a1.333,1.333,0,0,0,.68-1.759l-4.579-10.362A1.319,1.319,0,0,0-279.424,232.313Z" transform="translate(299.1 -230.259)" fill="#85cfea"/>
      <g id="Grupo_90098" data-name="Grupo 90098" transform="translate(0.855)">
        <path id="Trazado_141687" data-name="Trazado 141687" d="M-284.425,240.859a.976.976,0,0,1-.452.411.966.966,0,0,1-.608.058l-12.452-2.807a1.331,1.331,0,0,0,.059.914L-293.3,249.8a1.333,1.333,0,0,0,1.759.68l17.514-7.739a1.334,1.334,0,0,0,.681-1.759l-4.58-10.362a1.319,1.319,0,0,0-.391-.506Z" transform="translate(297.993 -229.824)" fill="#2ebcf3"/>
        <path id="Trazado_141688" data-name="Trazado 141688" d="M-284.581,240.663l6.116-10.76a1.33,1.33,0,0,0-1.178-.052l-17.514,7.74a1.331,1.331,0,0,0-.658.632l12.419,2.8A.744.744,0,0,0-284.581,240.663Z" transform="translate(297.952 -229.738)" fill="#2ebcf3"/>
        <path id="Trazado_141689" data-name="Trazado 141689" d="M-284.862,241.233a.976.976,0,0,0,.452-.411l6.108-10.747a1.215,1.215,0,0,0-.188-.124l-6.116,10.759a.744.744,0,0,1-.815.361l-12.419-2.8a1.412,1.412,0,0,0-.082.212l12.452,2.807A.967.967,0,0,0-284.862,241.233Z" transform="translate(297.976 -229.787)" fill="#fff"/>
      </g>
    </g>
    <g id="Grupo_90104" data-name="Grupo 90104" transform="translate(-192.762 185.807)">
      <g id="Grupo_90101" data-name="Grupo 90101" transform="translate(0 10.093)">
        <path id="Trazado_141690" data-name="Trazado 141690" d="M-110.1,220.2a2.57,2.57,0,0,0-.151-.407,2.562,2.562,0,0,0-1.773-1.421l-36.024-7.926a2.557,2.557,0,0,0-1.741.232,2.664,2.664,0,0,0-.369.235,2.56,2.56,0,0,0-.95,1.488l-4.69,21.314a2.568,2.568,0,0,0,1.956,3.06l36.024,7.926a2.568,2.568,0,0,0,3.06-1.956l4.69-21.313A2.556,2.556,0,0,0-110.1,220.2Z" transform="translate(155.862 -208.621)" fill="#85cfea"/>
        <g id="Grupo_90100" data-name="Grupo 90100" transform="translate(3.338)">
          <path id="Trazado_141691" data-name="Trazado 141691" d="M-127.513,227.808a1.872,1.872,0,0,1-1.17.123,1.87,1.87,0,0,1-1.011-.6l-16.145-18.544a2.553,2.553,0,0,0-.95,1.487l-4.689,21.314a2.568,2.568,0,0,0,1.956,3.06l36.025,7.926a2.568,2.568,0,0,0,3.06-1.956l4.689-21.313a2.547,2.547,0,0,0-.032-1.231Z" transform="translate(151.54 -208.255)" fill="#2ebcf3"/>
          <path id="Trazado_141692" data-name="Trazado 141692" d="M-125.9,227.256l21.756-9.75a2.561,2.561,0,0,0-1.772-1.421l-36.024-7.926a2.552,2.552,0,0,0-1.741.233l16.1,18.495A1.434,1.434,0,0,0-125.9,227.256Z" transform="translate(149.748 -208.099)" fill="#2ebcf3"/>
          <path id="Trazado_141693" data-name="Trazado 141693" d="M-127,227.861a1.872,1.872,0,0,0,1.17-.123L-104.1,218a2.6,2.6,0,0,0-.151-.407l-21.756,9.75a1.434,1.434,0,0,1-1.678-.369l-16.1-18.495a2.49,2.49,0,0,0-.369.235l16.145,18.544A1.87,1.87,0,0,0-127,227.861Z" transform="translate(149.857 -208.185)" fill="#fff"/>
        </g>
      </g>
      <g id="Grupo_90103" data-name="Grupo 90103" transform="translate(37.212 0)">
        <path id="Trazado_141694" data-name="Trazado 141694" d="M-99.026,195.026a8.637,8.637,0,0,0-8.638,8.637,8.6,8.6,0,0,0,1.581,4.978l-1.3,5.842,4.579-3.054a8.6,8.6,0,0,0,3.782.871,8.637,8.637,0,0,0,8.637-8.637A8.637,8.637,0,0,0-99.026,195.026Z" transform="translate(107.664 -195.026)" fill="#fda31a"/>
        <g id="Grupo_90102" data-name="Grupo 90102" transform="translate(1.396 5.644)">
          <path id="Trazado_141695" data-name="Trazado 141695" d="M-104.6,203l-.919.538a.227.227,0,0,1-.111.037.226.226,0,0,1-.195-.111.215.215,0,0,1,.083-.307l1.252-.76a.235.235,0,0,1,.306.083.267.267,0,0,1,.028.167v5.963a.22.22,0,0,1-.222.223.226.226,0,0,1-.222-.223Z" transform="translate(105.856 -202.345)" fill="#fff"/>
          <path id="Trazado_141696" data-name="Trazado 141696" d="M-101.453,205.582a4.139,4.139,0,0,1,.621-2.272,2.023,2.023,0,0,1,1.623-.974,2.024,2.024,0,0,1,1.624.974,4.222,4.222,0,0,1,.63,2.272,4.162,4.162,0,0,1-.63,2.263,2.011,2.011,0,0,1-1.624.984,2.01,2.01,0,0,1-1.623-.984A4.082,4.082,0,0,1-101.453,205.582Zm.454,0a3.678,3.678,0,0,0,.547,2.013,1.559,1.559,0,0,0,1.242.779,1.573,1.573,0,0,0,1.243-.779,3.686,3.686,0,0,0,.557-2.013,3.683,3.683,0,0,0-.557-2.012,1.528,1.528,0,0,0-1.243-.779,1.515,1.515,0,0,0-1.242.779A3.675,3.675,0,0,0-101,205.582Z" transform="translate(104.853 -202.336)" fill="#fff"/>
          <path id="Trazado_141697" data-name="Trazado 141697" d="M-92.922,205.582a4.133,4.133,0,0,1,.622-2.272,2.022,2.022,0,0,1,1.623-.974,2.023,2.023,0,0,1,1.623.974,4.222,4.222,0,0,1,.631,2.272,4.163,4.163,0,0,1-.631,2.263,2.01,2.01,0,0,1-1.623.984,2.009,2.009,0,0,1-1.623-.984A4.076,4.076,0,0,1-92.922,205.582Zm.455,0a3.684,3.684,0,0,0,.547,2.013,1.562,1.562,0,0,0,1.243.779,1.571,1.571,0,0,0,1.242-.779,3.679,3.679,0,0,0,.557-2.013,3.676,3.676,0,0,0-.557-2.012,1.527,1.527,0,0,0-1.242-.779,1.517,1.517,0,0,0-1.243.779A3.681,3.681,0,0,0-92.467,205.582Z" transform="translate(102.908 -202.336)" fill="#fff"/>
        </g>
      </g>
    </g>
    <g id="Grupo_90105" data-name="Grupo 90105" transform="translate(-156.32 271.312)">
      <path id="Trazado_141698" data-name="Trazado 141698" d="M-105.05,307.288l0-.024.005.084a3.927,3.927,0,0,1-3.615,4.234s3.361.788,4.1,3.66c.3-2.949,3.744-4.044,3.744-4.044A4.082,4.082,0,0,1-105.05,307.288Z" transform="translate(108.662 -306.114)" fill="#fff"/>
      <path id="Trazado_141699" data-name="Trazado 141699" d="M-95.44,305.781v-.007l0,.024a1.133,1.133,0,0,1-1.042,1.221,1.668,1.668,0,0,1,1.181,1.055c.086-.851,1.079-1.167,1.079-1.167A1.177,1.177,0,0,1-95.44,305.781Z" transform="translate(105.886 -305.774)" fill="#fff"/>
      <path id="Trazado_141700" data-name="Trazado 141700" d="M-95.817,311.83v-.01l0,.036a1.649,1.649,0,0,1-1.519,1.779,2.431,2.431,0,0,1,1.721,1.538c.125-1.239,1.573-1.7,1.573-1.7A1.716,1.716,0,0,1-95.817,311.83Z" transform="translate(106.08 -307.152)" fill="#fff"/>
    </g>
    <g id="Grupo_90117" data-name="Grupo 90117" transform="translate(-275.562 165.42)">
      <g id="Grupo_90108" data-name="Grupo 90108" transform="translate(0)">
        <g id="Grupo_90106" data-name="Grupo 90106">
          <rect id="Rectángulo_35232" data-name="Rectángulo 35232" width="80.264" height="143.573" rx="9.924" fill="#192e35"/>
          <path id="Trazado_141701" data-name="Trazado 141701" d="M-185.938,297.412V179.772a5.608,5.608,0,0,0-5.609-5.608h-16.277l-2.406,2.067a3.726,3.726,0,0,1-2.427.9h-19a3.727,3.727,0,0,1-2.595-1.052l-1.97-1.913h-15.594a5.608,5.608,0,0,0-5.608,5.608v117.64Z" transform="translate(261.811 -169.884)" fill="#fff"/>
          <circle id="Elipse_4561" data-name="Elipse 4561" cx="4.358" cy="4.358" r="4.358" transform="translate(35.183 138.064) rotate(-81.582)"/>
        </g>
        <g id="Grupo_90107" data-name="Grupo 90107" transform="translate(4.309 13.819)">
          <path id="Trazado_141702" data-name="Trazado 141702" d="M-185.938,186.519l-71.482,45.517v33.033l71.482-14.138" transform="translate(257.503 -186.519)" fill="#ebe8ff" opacity="0.4"/>
          <path id="Trazado_141703" data-name="Trazado 141703" d="M-257.527,304.735l71.564-12.139v23.265h-71.564" transform="translate(257.527 -210.698)" fill="#ebe8ff" opacity="0.4"/>
        </g>
      </g>
      <g id="Grupo_90109" data-name="Grupo 90109" transform="translate(13.136 57.981)">
        <path id="Trazado_141704" data-name="Trazado 141704" d="M-196.295,243.718H-241.9a4.193,4.193,0,0,0-4.193,4.193v16.46a4.194,4.194,0,0,0,4.193,4.193h.249v5.916l8.434-5.916h36.922a4.193,4.193,0,0,0,4.192-4.193v-16.46A4.192,4.192,0,0,0-196.295,243.718Z" transform="translate(246.093 -243.718)" fill="#ebe8ff"/>
        <path id="Trazado_141705" data-name="Trazado 141705" d="M-194.69,253.38H-241.8a.506.506,0,0,1-.506-.506h0a.505.505,0,0,1,.506-.506h47.108a.505.505,0,0,1,.506.506h0A.506.506,0,0,1-194.69,253.38Z" transform="translate(245.229 -245.69)" fill="#85cfea"/>
        <path id="Trazado_141706" data-name="Trazado 141706" d="M-194.69,258.263H-241.8a.506.506,0,0,1-.506-.506h0a.505.505,0,0,1,.506-.506h47.108a.505.505,0,0,1,.506.506h0A.506.506,0,0,1-194.69,258.263Z" transform="translate(245.229 -246.803)" fill="#85cfea"/>
        <path id="Trazado_141707" data-name="Trazado 141707" d="M-194.69,263.146H-241.8a.506.506,0,0,1-.506-.506h0a.505.505,0,0,1,.506-.506h47.108a.505.505,0,0,1,.506.506h0A.506.506,0,0,1-194.69,263.146Z" transform="translate(245.229 -247.916)" fill="#85cfea"/>
      </g>
      <g id="Grupo_90111" data-name="Grupo 90111" transform="translate(12.164 21.951)">
        <rect id="Rectángulo_35233" data-name="Rectángulo 35233" width="22.323" height="20.236" rx="2.8" transform="translate(0 1.868)" fill="#ebe8ff" opacity="0.4"/>
        <g id="Grupo_90110" data-name="Grupo 90110" transform="translate(2.724)">
          <rect id="Rectángulo_35234" data-name="Rectángulo 35234" width="22.323" height="20.236" rx="4.994" fill="#f79f45"/>
          <path id="Trazado_141708" data-name="Trazado 141708" d="M-234.576,203.115v10.6a.6.6,0,0,0,.915.517l8.675-5.221a.6.6,0,0,0,.007-1.031l-8.675-5.375A.6.6,0,0,0-234.576,203.115Z" transform="translate(241.716 -198.296)" fill="#fff"/>
        </g>
      </g>
      <g id="Grupo_90114" data-name="Grupo 90114" transform="translate(38.998 19.612)">
        <circle id="Elipse_4562" data-name="Elipse 4562" cx="12.457" cy="12.457" r="12.457" transform="translate(0 1.868)" fill="#ebe8ff" opacity="0.4"/>
        <g id="Grupo_90113" data-name="Grupo 90113" transform="translate(2.431)">
          <circle id="Elipse_4563" data-name="Elipse 4563" cx="12.457" cy="12.457" r="12.457" fill="#ebe8ff"/>
          <g id="Grupo_90112" data-name="Grupo 90112" transform="translate(5.655 3.235)">
            <path id="Trazado_141709" data-name="Trazado 141709" d="M-196.869,212.809v-8.878a4.372,4.372,0,0,0,3.925-3.477c.981-3.449,2.027-2.021,2.019-1.514-.056,3.463-1.6,4.4-.954,4.6s4.122-.252,4.374.449.028,1.658-.617,1.8c0,0,2.018,1.092.112,2.241a1.227,1.227,0,0,1,0,2.187s1.065,1.317.168,2.075S-196.869,212.809-196.869,212.809Z" transform="translate(200.926 -198.213)" fill="#0c55af"/>
            <rect id="Rectángulo_35235" data-name="Rectángulo 35235" width="3.477" height="8.846" transform="translate(0 5.75)" fill="#0c55af"/>
          </g>
        </g>
      </g>
      <g id="Grupo_90116" data-name="Grupo 90116" transform="translate(13.304 91.709)">
        <path id="Trazado_141710" data-name="Trazado 141710" d="M-241.7,287.4h45.464a4.179,4.179,0,0,1,4.179,4.179v16.41a4.179,4.179,0,0,1-4.179,4.18h-.249v5.9l-8.408-5.9H-241.7a4.18,4.18,0,0,1-4.18-4.18v-16.41A4.18,4.18,0,0,1-241.7,287.4Z" transform="translate(245.876 -287.404)" fill="#fda31a" opacity="0.1"/>
        <g id="Grupo_90115" data-name="Grupo 90115" transform="translate(2.936 6.657)">
          <rect id="Rectángulo_35236" data-name="Rectángulo 35236" width="47.971" height="1.009" rx="0.505" transform="translate(47.971 1.009) rotate(180)" fill="#fda31a" opacity="0.26"/>
          <rect id="Rectángulo_35237" data-name="Rectángulo 35237" width="47.971" height="1.009" rx="0.505" transform="translate(47.971 4.767) rotate(180)" fill="#fda31a" opacity="0.26"/>
          <rect id="Rectángulo_35238" data-name="Rectángulo 35238" width="47.971" height="1.009" rx="0.504" transform="translate(47.971 8.526) rotate(180)" fill="#fda31a" opacity="0.26"/>
        </g>
      </g>
    </g>
  </g>
</svg>
