<svg xmlns="http://www.w3.org/2000/svg" width="50.507" height="86" viewBox="0 0 50.507 86">
  <g id="Grupo_90950" data-name="Grupo 90950" transform="translate(-219.997 -213)">
    <g id="Grupo_89922" data-name="Grupo 89922">
      <g id="Grupo_89917" data-name="Grupo 89917">
        <rect id="Rect치ngulo_35190" data-name="Rect치ngulo 35190" width="47.926" height="83.428" rx="7.367" transform="translate(221.287 214.286)" fill="#4dd0e1"/>
        <rect id="Rect치ngulo_35191" data-name="Rect치ngulo 35191" width="33.193" height="54.023" rx="2.21" transform="translate(228.653 228.934)" fill="#f0f7ff"/>
        <circle id="Elipse_4534" data-name="Elipse 4534" cx="2.964" cy="2.964" r="2.964" transform="translate(242.287 287.372)" fill="#4dd0e1"/>
      </g>
      <g id="Grupo_89921" data-name="Grupo 89921">
        <g id="Grupo_89918" data-name="Grupo 89918">
          <path id="Trazado_117998" data-name="Trazado 117998" d="M234.025,235.976h8.706v8.706h-8.706Z" fill="#9cdd04"/>
          <path id="Trazado_117999" data-name="Trazado 117999" d="M247.771,235.976h8.706v8.706h-8.706Z" fill="#ff651b"/>
        </g>
        <g id="Grupo_89919" data-name="Grupo 89919">
          <path id="Trazado_118000" data-name="Trazado 118000" d="M234.025,251.647h8.706v8.706h-8.706Z" fill="#4dd0e1"/>
          <path id="Trazado_118001" data-name="Trazado 118001" d="M247.771,251.647h8.706v8.706h-8.706Z" fill="#fed843"/>
        </g>
        <g id="Grupo_89920" data-name="Grupo 89920">
          <path id="Trazado_118002" data-name="Trazado 118002" d="M234.025,267.318h8.706v8.706h-8.706Z" fill="#fbbe2c"/>
          <path id="Trazado_118003" data-name="Trazado 118003" d="M247.771,267.318h8.706v8.706h-8.706Z" fill="#ff9201"/>
        </g>
      </g>
    </g>
    <g id="Grupo_89923" data-name="Grupo 89923">
      <path id="Trazado_118004" data-name="Trazado 118004" d="M261.848,213H228.653A8.666,8.666,0,0,0,220,221.656v23.832a1.29,1.29,0,0,0,2.579,0V221.656a6.084,6.084,0,0,1,6.077-6.078h33.195a6.085,6.085,0,0,1,6.078,6.078v68.688a6.085,6.085,0,0,1-6.078,6.078H258.8a1.289,1.289,0,1,0,0,2.578h3.05a8.665,8.665,0,0,0,8.656-8.656V221.656A8.665,8.665,0,0,0,261.848,213Z"/>
      <path id="Trazado_118005" data-name="Trazado 118005" d="M230.642,296.422h-1.989a6.084,6.084,0,0,1-6.077-6.078V253.62a1.29,1.29,0,0,0-2.579,0v36.724A8.666,8.666,0,0,0,228.653,299h1.989a1.289,1.289,0,1,0,0-2.578Z"/>
      <path id="Trazado_118006" data-name="Trazado 118006" d="M250.665,296.422h-11.89a1.289,1.289,0,0,0,0,2.578h11.89a1.289,1.289,0,1,0,0-2.578Z"/>
      <path id="Trazado_118007" data-name="Trazado 118007" d="M227.365,231.145v49.6a3.5,3.5,0,0,0,3.5,3.5h28.773a3.5,3.5,0,0,0,3.5-3.5v-49.6a3.5,3.5,0,0,0-3.5-3.5H230.864A3.5,3.5,0,0,0,227.365,231.145Zm33.193,0v49.6a.922.922,0,0,1-.921.921H230.864a.923.923,0,0,1-.921-.921v-49.6a.923.923,0,0,1,.921-.921h28.773A.922.922,0,0,1,260.558,231.145Z"/>
      <path id="Trazado_118008" data-name="Trazado 118008" d="M241,290.336a4.253,4.253,0,1,0,4.253-4.253A4.253,4.253,0,0,0,241,290.336Zm5.927,0a1.674,1.674,0,1,1-1.674-1.675A1.673,1.673,0,0,1,246.925,290.336Z"/>
      <path id="Trazado_118009" data-name="Trazado 118009" d="M254.686,222.849a1.289,1.289,0,1,0,0-2.578H235.815a1.289,1.289,0,0,0,0,2.578Z"/>
      <path id="Trazado_118010" data-name="Trazado 118010" d="M234.025,245.971h8.706a1.292,1.292,0,0,0,1.29-1.289v-8.706a1.292,1.292,0,0,0-1.29-1.29h-8.706a1.292,1.292,0,0,0-1.29,1.29v8.706A1.292,1.292,0,0,0,234.025,245.971Zm1.289-8.706h6.128v6.127h-6.128Z"/>
      <path id="Trazado_118011" data-name="Trazado 118011" d="M247.77,245.971h8.707a1.29,1.29,0,0,0,1.289-1.289v-8.706a1.29,1.29,0,0,0-1.289-1.29H247.77a1.29,1.29,0,0,0-1.289,1.29v8.706A1.29,1.29,0,0,0,247.77,245.971Zm1.289-8.706h6.129v6.127h-6.129Z"/>
      <path id="Trazado_118012" data-name="Trazado 118012" d="M234.025,261.642h8.706a1.29,1.29,0,0,0,1.29-1.289v-8.706a1.29,1.29,0,0,0-1.29-1.289h-8.706a1.29,1.29,0,0,0-1.29,1.289v8.706A1.29,1.29,0,0,0,234.025,261.642Zm1.289-8.706h6.128v6.128h-6.128Z"/>
      <path id="Trazado_118013" data-name="Trazado 118013" d="M247.77,261.642h8.707a1.289,1.289,0,0,0,1.289-1.289v-8.706a1.289,1.289,0,0,0-1.289-1.289H247.77a1.289,1.289,0,0,0-1.289,1.289v8.706A1.289,1.289,0,0,0,247.77,261.642Zm1.289-8.706h6.129v6.128h-6.129Z"/>
      <path id="Trazado_118014" data-name="Trazado 118014" d="M234.025,277.314h8.706a1.292,1.292,0,0,0,1.29-1.29v-8.706a1.291,1.291,0,0,0-1.29-1.289h-8.706a1.291,1.291,0,0,0-1.29,1.289v8.706A1.292,1.292,0,0,0,234.025,277.314Zm1.289-8.706h6.128v6.127h-6.128Z"/>
      <path id="Trazado_118015" data-name="Trazado 118015" d="M247.77,277.314h8.707a1.29,1.29,0,0,0,1.289-1.29v-8.706a1.29,1.29,0,0,0-1.289-1.289H247.77a1.29,1.29,0,0,0-1.289,1.289v8.706A1.29,1.29,0,0,0,247.77,277.314Zm1.289-8.706h6.129v6.127h-6.129Z"/>
    </g>
  </g>
</svg>
