<svg xmlns="http://www.w3.org/2000/svg" width="92" height="92" viewBox="0 0 92 92">
  <g id="Grupo_90981" data-name="Grupo 90981" transform="translate(-210 -210)">
    <g id="Grupo_86382" data-name="Grupo 86382">
      <circle id="Elipse_5014" data-name="Elipse 5014" cx="46" cy="46" r="46" transform="translate(210 210)" fill="#00e2ff"/>
      <circle id="Elipse_5015" data-name="Elipse 5015" cx="39.292" cy="39.292" r="39.292" transform="translate(216.708 216.708)" fill="#4dd0e1"/>
      <g id="Grupo_91005" data-name="Grupo 91005" transform="translate(19.517 20.525)">
        <path id="Trazado_146040" data-name="Trazado 146040" d="M212.766,213h47.669a1.766,1.766,0,0,1,1.766,1.766v28.248H211V214.766A1.766,1.766,0,0,1,212.766,213Z" transform="translate(-0.117 -0.117)" fill="#75c1ff"/>
        <path id="Trazado_146041" data-name="Trazado 146041" d="M211,247h51.2v8.828a1.766,1.766,0,0,1-1.766,1.766H212.766A1.766,1.766,0,0,1,211,255.828Z" transform="translate(-0.117 -4.104)" fill="#efefef"/>
        <path id="Trazado_146042" data-name="Trazado 146042" d="M235,259h8.828v7.062H235Z" transform="translate(-2.931 -5.51)" fill="#bcbcbc"/>
        <path id="Trazado_146043" data-name="Trazado 146043" d="M249.952,231.124v-5.3H246.9l-.6-1.431,2.163-2.163-3.745-3.745-2.163,2.163-1.431-.6V217h-5.3v3.053l-1.431.6-2.163-2.163-3.745,3.745,2.163,2.163-.6,1.431H227v5.3h3.053l.6,1.431-2.163,2.163,3.745,3.745L234.4,236.3l1.431.6v3.053h5.3V236.9l1.431-.6,2.163,2.163,3.745-3.745-2.163-2.163.6-1.431Zm-11.476.883a3.531,3.531,0,1,1,3.531-3.531A3.531,3.531,0,0,1,238.476,232.007Z" transform="translate(-1.993 -0.586)" fill="#ffe675"/>
        <path id="Trazado_146044" data-name="Trazado 146044" d="M233.531,262v3.531H230V267.3h17.655v-1.766h-3.531V262h-1.766v3.531H235.3V262Z" transform="translate(-2.345 -5.862)"/>
        <path id="Trazado_146045" data-name="Trazado 146045" d="M260.317,212H212.648A2.651,2.651,0,0,0,210,214.648v37.076a2.651,2.651,0,0,0,2.648,2.648h47.669a2.651,2.651,0,0,0,2.648-2.648V214.648A2.651,2.651,0,0,0,260.317,212Zm.883,39.724a.883.883,0,0,1-.883.883H212.648a.883.883,0,0,1-.883-.883v-7.945H261.2Zm-49.434-9.71V214.648a.883.883,0,0,1,.883-.883h47.669a.883.883,0,0,1,.883.883v27.365Z"/>
        <path id="Trazado_146046" data-name="Trazado 146046" d="M241.531,252.766A1.766,1.766,0,1,1,239.766,251,1.766,1.766,0,0,1,241.531,252.766Z" transform="translate(-3.283 -4.573)"/>
        <path id="Trazado_146047" data-name="Trazado 146047" d="M239.414,225a4.414,4.414,0,1,0,4.414,4.414A4.414,4.414,0,0,0,239.414,225Zm0,7.062a2.648,2.648,0,1,1,2.648-2.648A2.648,2.648,0,0,1,239.414,232.062Z" transform="translate(-2.931 -1.524)"/>
        <path id="Trazado_146048" data-name="Trazado 146048" d="M247.225,224.485l2.369-2.368-4.994-4.994-2.368,2.368-.343-.143V216h-7.062v3.348l-.343.143-2.368-2.368-4.994,4.994,2.369,2.368-.144.343H226v7.062h3.348l.144.343-2.369,2.368,4.994,4.994,2.368-2.368.343.143v3.348h7.062v-3.348l.343-.143,2.368,2.368,4.994-4.994-2.369-2.368.144-.343h3.348v-7.062h-3.348Zm1.727,5.639h-2.759l-1.053,2.519L247.1,234.6l-2.5,2.5-1.957-1.957-2.519,1.053v2.759h-3.531v-2.759l-2.519-1.053-1.957,1.957-2.5-2.5,1.957-1.957-1.053-2.519h-2.759v-3.531h2.759l1.053-2.519-1.957-1.957,2.5-2.5,1.957,1.957,2.519-1.053v-2.759h3.531v2.759l2.519,1.053,1.957-1.957,2.5,2.5-1.957,1.957,1.053,2.519h2.759Z" transform="translate(-1.876 -0.469)"/>
      </g>
    </g>
  </g>
</svg>
