<svg xmlns="http://www.w3.org/2000/svg" width="95.797" height="125.2" viewBox="0 0 95.797 125.2">
  <g id="Grupo_91006" data-name="Grupo 91006" transform="translate(-208.479 -191.902)">
    <path id="Trazado_146089" data-name="Trazado 146089" d="M296.562,315.268H237.756a5.881,5.881,0,0,1-5.882-5.88V207.458a5.881,5.881,0,0,1,5.882-5.88h58.806a5.88,5.88,0,0,1,5.88,5.88v101.93A5.88,5.88,0,0,1,296.562,315.268Z" fill="#eceaec"/>
    <path id="Trazado_146090" data-name="Trazado 146090" d="M237.756,299.587V201.578a5.881,5.881,0,0,0-5.882,5.88v101.93a5.881,5.881,0,0,0,5.882,5.88h58.806a5.88,5.88,0,0,0,5.88-5.88H247.556A9.8,9.8,0,0,1,237.756,299.587Z" fill="#dad8db"/>
    <path id="Trazado_146091" data-name="Trazado 146091" d="M231.874,217.259h70.568v82.328H231.874Z" fill="#fff"/>
    <path id="Trazado_146092" data-name="Trazado 146092" d="M210.313,211.378v75.663a.784.784,0,0,0,.784.785H286.76ZM224.034,274.1V244.5l29.6,29.6Z" fill="#ffe09f"/>
    <path id="Trazado_146093" data-name="Trazado 146093" d="M273.039,307.427a5.881,5.881,0,1,1-5.88-5.88A5.881,5.881,0,0,1,273.039,307.427Z" fill="#c8c5c9"/>
    <path id="Trazado_146094" data-name="Trazado 146094" d="M294.188,255.88l-4.683,15.608a.82.82,0,0,1-1.57,0l-4.682-15.608a9.8,9.8,0,0,1-.413-2.816V195.7a1.96,1.96,0,0,1,1.96-1.961h7.84A1.96,1.96,0,0,1,294.6,195.7v57.367A9.8,9.8,0,0,1,294.188,255.88Z" fill="#b3e59f"/>
    <path id="Trazado_146095" data-name="Trazado 146095" d="M284.8,193.736a1.96,1.96,0,0,0-1.96,1.961v57.367a9.834,9.834,0,0,0,.413,2.816l4.682,15.608a.8.8,0,0,0,.785.584V193.736Z" fill="#95d6a4"/>
    <path id="Trazado_146096" data-name="Trazado 146096" d="M282.947,254.5a9.861,9.861,0,0,0,.306,1.378L288.72,274.1l5.468-18.224a9.716,9.716,0,0,0,.305-1.378Z" fill="#ffe07d"/>
    <path id="Trazado_146097" data-name="Trazado 146097" d="M282.947,254.5a9.722,9.722,0,0,0,.307,1.378L288.72,274.1V254.5Z" fill="#ffd064"/>
    <path id="Trazado_146098" data-name="Trazado 146098" d="M216.193,272.144V217.259l-5.88-5.881v75.663a.784.784,0,0,0,.784.785H286.76l-5.88-5.881H225.994A9.8,9.8,0,0,1,216.193,272.144Z" fill="#f6d190"/>
    <path id="Trazado_146099" data-name="Trazado 146099" d="M292.249,262.344h-7.057l3.528,11.76Z" fill="#4b3f4e"/>
    <path id="Trazado_146100" data-name="Trazado 146100" d="M292.64,193.736H284.8a1.961,1.961,0,0,0-1.961,1.961v5.88H294.6V195.7A1.959,1.959,0,0,0,292.64,193.736Z" fill="#ffc269"/>
    <path id="Trazado_146101" data-name="Trazado 146101" d="M288.72,201.578h-5.88V195.7a1.96,1.96,0,0,1,1.96-1.961h3.92Z" fill="#ffa95f"/>
    <path id="Trazado_146102" data-name="Trazado 146102" d="M296.562,199.743h-.127V195.7a3.8,3.8,0,0,0-3.795-3.8H284.8a3.8,3.8,0,0,0-3.794,3.8v4.046h-43.25a7.724,7.724,0,0,0-7.716,7.715v21.054l-18.431-18.43a1.833,1.833,0,0,0-3.13,1.3v76.448a1.834,1.834,0,0,0,1.834,1.834H230.04v19.727a7.723,7.723,0,0,0,7.715,7.715h58.806a7.723,7.723,0,0,0,7.715-7.715V207.458A7.724,7.724,0,0,0,296.562,199.743Zm0,3.668a4.051,4.051,0,0,1,4.046,4.047v7.966h-4.173V203.411Zm-3.8,49.257h-8.093V203.411h8.093Zm-1.882,7.841h-4.327l-1.253-4.173h6.832Zm-1.1,3.668-1.063,3.544-1.063-3.544Zm-5.109-68.48a.126.126,0,0,1,.126-.127h7.84a.126.126,0,0,1,.126.127v4.046h-8.093V195.7ZM271.08,289.66a1.834,1.834,0,1,0,0-3.668h-2.087V283.9a1.834,1.834,0,0,0-3.668,0v2.087h-4.174V283.9a1.834,1.834,0,0,0-3.668,0v2.087h-4.172V283.9a1.834,1.834,0,0,0-3.668,0v2.087H245.47V283.9a1.834,1.834,0,0,0-3.668,0v2.087h-4.173V283.9a1.833,1.833,0,1,0-3.667,0v2.087h-4.173V283.9a1.834,1.834,0,0,0-3.668,0v2.087h-4.173V283.9a1.834,1.834,0,0,0-3.668,0v2.087h-6.133V215.806l70.186,70.186H278.92a1.834,1.834,0,1,0,0,3.668h7.84a1.834,1.834,0,0,0,1.3-3.131L233.708,232.18V219.093h2.087a1.834,1.834,0,1,0,0-3.668h-2.087v-7.967a4.051,4.051,0,0,1,4.047-4.046h43.25v12.013H243.636a1.834,1.834,0,1,0,0,3.668h37.37V254.5a1.848,1.848,0,0,0,.077.528l5.881,19.6a1.834,1.834,0,0,0,3.513,0l5.88-19.6a1.814,1.814,0,0,0,.077-.528V219.093h4.174v78.66h-66.9V289.66Zm-3.921,21.814a4.046,4.046,0,1,1,4.046-4.046A4.051,4.051,0,0,1,267.159,311.474Zm-33.451-2.086v-7.967h28.617a7.7,7.7,0,0,0,0,12.013H237.756A4.051,4.051,0,0,1,233.708,309.388Zm62.854,4.046h-24.57a7.7,7.7,0,0,0,0-12.013h28.616v7.967A4.05,4.05,0,0,1,296.562,313.434Z"/>
    <path id="Trazado_146103" data-name="Trazado 146103" d="M261.277,211.252h11.762a1.834,1.834,0,0,0,0-3.668H261.277a1.834,1.834,0,1,0,0,3.668Z"/>
    <path id="Trazado_146104" data-name="Trazado 146104" d="M225.33,243.207a1.834,1.834,0,0,0-3.13,1.3v29.6a1.833,1.833,0,0,0,1.834,1.834h29.6a1.834,1.834,0,0,0,1.3-3.13Zm.538,5.725,4.172,4.173V272.27h-4.172Zm7.84,23.338v-15.5l15.5,15.5Z"/>
  </g>
</svg>
