<svg xmlns="http://www.w3.org/2000/svg" width="74.312" height="125.199" viewBox="0 0 74.312 125.199">
  <g id="Grupo_91011" data-name="Grupo 91011" transform="translate(2996 7320)">
    <g id="Grupo_90746" data-name="Grupo 90746" transform="translate(-2996 -7320)">
      <path id="Trazado_143933" data-name="Trazado 143933" d="M302.824,218.293V328.764a5.532,5.532,0,0,1-5.532,5.531H237.713a5.531,5.531,0,0,1-5.532-5.531V218.293a5.531,5.531,0,0,1,5.532-5.532h59.579A5.532,5.532,0,0,1,302.824,218.293Z" transform="translate(-230.347 -210.928)" fill="#43a3f9"/>
      <path id="Trazado_143934" data-name="Trazado 143934" d="M285.925,218.293V328.764a5.53,5.53,0,0,1-5.532,5.531H271.21a5.53,5.53,0,0,0,5.531-5.531V218.293c0-3.056-4.43-5.532-7.487-5.532h11.14A5.531,5.531,0,0,1,285.925,218.293Z" transform="translate(-213.449 -210.928)" fill="#1685fb"/>
      <path id="Trazado_143935" data-name="Trazado 143935" d="M302.822,218.293v9.025H232.181v-9.025a5.531,5.531,0,0,1,5.532-5.532H297.29A5.531,5.531,0,0,1,302.822,218.293Z" transform="translate(-230.347 -210.928)" fill="#e3f4ff"/>
      <path id="Trazado_143936" data-name="Trazado 143936" d="M285.925,218.293v9.025H276.74v-9.025c0-3.056-4.43-5.532-7.487-5.532h11.14A5.531,5.531,0,0,1,285.925,218.293Z" transform="translate(-213.449 -210.928)" fill="#bddff4"/>
      <path id="Trazado_143937" data-name="Trazado 143937" d="M302.822,286.362v8.854a5.53,5.53,0,0,1-5.532,5.531H237.713a5.53,5.53,0,0,1-5.532-5.531v-8.854Z" transform="translate(-230.347 -177.38)" fill="#e3f4ff"/>
      <path id="Trazado_143938" data-name="Trazado 143938" d="M276.128,286.362h9.185v8.854a5.53,5.53,0,0,1-5.532,5.531H270.6a5.53,5.53,0,0,0,5.531-5.531Z" transform="translate(-212.837 -177.38)" fill="#bddff4"/>
      <path id="Trazado_143939" data-name="Trazado 143939" d="M257.6,247.725H242.978a2.17,2.17,0,0,1-2.169-2.171V230.928a2.17,2.17,0,0,1,2.169-2.171h14.628a2.171,2.171,0,0,1,2.169,2.171v14.626A2.171,2.171,0,0,1,257.6,247.725Z" transform="translate(-226.414 -203.637)" fill="#4e7693"/>
      <path id="Trazado_143940" data-name="Trazado 143940" d="M259.775,234.433H240.809v-3.506a2.17,2.17,0,0,1,2.169-2.171h14.628a2.171,2.171,0,0,1,2.169,2.171Z" transform="translate(-226.414 -203.637)" fill="#e3f4ff"/>
      <path id="Trazado_143941" data-name="Trazado 143941" d="M275.847,247.725H261.219a2.17,2.17,0,0,1-2.169-2.171V230.928a2.171,2.171,0,0,1,2.169-2.171h14.628a2.17,2.17,0,0,1,2.169,2.171v14.626A2.17,2.17,0,0,1,275.847,247.725Z" transform="translate(-218.1 -203.637)" fill="#27e6fc"/>
      <path id="Trazado_143942" data-name="Trazado 143942" d="M278.016,234.433H259.05v-3.506a2.171,2.171,0,0,1,2.169-2.171h14.628a2.17,2.17,0,0,1,2.169,2.171Z" transform="translate(-218.1 -203.637)" fill="#e3f4ff"/>
      <path id="Trazado_143943" data-name="Trazado 143943" d="M257.6,266.956H242.978a2.171,2.171,0,0,1-2.169-2.172V250.159a2.169,2.169,0,0,1,2.169-2.171h14.628a2.17,2.17,0,0,1,2.169,2.171v14.625A2.172,2.172,0,0,1,257.6,266.956Z" transform="translate(-226.414 -194.871)" fill="#32dfb7"/>
      <path id="Trazado_143944" data-name="Trazado 143944" d="M259.775,253.663H240.809v-3.5a2.169,2.169,0,0,1,2.169-2.171h14.628a2.17,2.17,0,0,1,2.169,2.171Z" transform="translate(-226.414 -194.871)" fill="#e3f4ff"/>
      <path id="Trazado_143945" data-name="Trazado 143945" d="M275.847,266.956H261.219a2.171,2.171,0,0,1-2.169-2.172V250.159a2.17,2.17,0,0,1,2.169-2.171h14.628a2.169,2.169,0,0,1,2.169,2.171v14.625A2.171,2.171,0,0,1,275.847,266.956Z" transform="translate(-218.1 -194.871)" fill="#fd6096"/>
      <path id="Trazado_143946" data-name="Trazado 143946" d="M278.016,253.663H259.05v-3.5a2.17,2.17,0,0,1,2.169-2.171h14.628a2.169,2.169,0,0,1,2.169,2.171Z" transform="translate(-218.1 -194.871)" fill="#e3f4ff"/>
      <path id="Trazado_143947" data-name="Trazado 143947" d="M257.6,286.186H242.978a2.17,2.17,0,0,1-2.169-2.171V269.389a2.17,2.17,0,0,1,2.169-2.171h14.628a2.171,2.171,0,0,1,2.169,2.171v14.626A2.171,2.171,0,0,1,257.6,286.186Z" transform="translate(-226.414 -186.106)" fill="#f01054"/>
      <path id="Trazado_143948" data-name="Trazado 143948" d="M259.775,272.893H240.809v-3.5a2.17,2.17,0,0,1,2.169-2.171h14.628a2.171,2.171,0,0,1,2.169,2.171Z" transform="translate(-226.414 -186.106)" fill="#e3f4ff"/>
      <path id="Trazado_143949" data-name="Trazado 143949" d="M275.847,286.186H261.219a2.17,2.17,0,0,1-2.169-2.171V269.389a2.171,2.171,0,0,1,2.169-2.171h14.628a2.17,2.17,0,0,1,2.169,2.171v14.626A2.17,2.17,0,0,1,275.847,286.186Z" transform="translate(-218.1 -186.106)" fill="#fdb659"/>
      <path id="Trazado_143950" data-name="Trazado 143950" d="M278.016,272.893H259.05v-3.5a2.171,2.171,0,0,1,2.169-2.171h14.628a2.17,2.17,0,0,1,2.169,2.171Z" transform="translate(-218.1 -186.106)" fill="#e3f4ff"/>
      <path id="Trazado_143951" data-name="Trazado 143951" d="M297.866,211.5H238.287a7.374,7.374,0,0,0-7.366,7.365V329.336a7.375,7.375,0,0,0,7.366,7.365h10.18a1.834,1.834,0,1,0,0-3.669h-10.18a3.7,3.7,0,0,1-3.7-3.7v-7.02h66.973v7.02a3.7,3.7,0,0,1-3.7,3.7h-41.41a1.834,1.834,0,1,0,0,3.669h41.41a7.374,7.374,0,0,0,7.365-7.365V290.443a1.834,1.834,0,0,0-3.669,0v28.206H234.59V229.726h66.973v25.956a1.834,1.834,0,0,0,3.669,0V218.867A7.371,7.371,0,0,0,297.866,211.5ZM234.59,226.057v-7.19a3.7,3.7,0,0,1,3.7-3.7h59.579a3.7,3.7,0,0,1,3.7,3.7v7.19Z" transform="translate(-230.921 -211.502)"/>
      <path id="Trazado_143952" data-name="Trazado 143952" d="M281.28,246.075a1.834,1.834,0,0,0-1.834,1.833V266.7a1.834,1.834,0,1,0,3.669,0V247.908A1.835,1.835,0,0,0,281.28,246.075Z" transform="translate(-208.803 -195.743)"/>
      <path id="Trazado_143953" data-name="Trazado 143953" d="M260.011,216.5H250.72a1.834,1.834,0,1,0,0,3.669h9.291a1.834,1.834,0,0,0,0-3.669Z" transform="translate(-222.733 -209.223)"/>
      <path id="Trazado_143954" data-name="Trazado 143954" d="M263.7,216.5h-1.223a1.834,1.834,0,0,0,0,3.669H263.7a1.834,1.834,0,1,0,0-3.669Z" transform="translate(-217.374 -209.223)"/>
      <path id="Trazado_143955" data-name="Trazado 143955" d="M262.184,231.5a4.008,4.008,0,0,0-4-4H243.552a4.008,4.008,0,0,0-4,4v14.626a4.008,4.008,0,0,0,4,4H258.18a4.008,4.008,0,0,0,4-4Zm-18.631-.336H258.18a.337.337,0,0,1,.336.336v1.671h-15.3V231.5A.337.337,0,0,1,243.552,231.165Zm14.626,15.3H243.552a.337.337,0,0,1-.336-.336V236.84h15.3v9.288A.338.338,0,0,1,258.179,246.464Z" transform="translate(-226.988 -204.211)"/>
      <path id="Trazado_143956" data-name="Trazado 143956" d="M280.425,231.5a4.008,4.008,0,0,0-4-4H261.793a4.008,4.008,0,0,0-4,4v14.626a4.008,4.008,0,0,0,4,4h14.628a4.008,4.008,0,0,0,4-4Zm-18.631-.336h14.628a.337.337,0,0,1,.336.336v1.671h-15.3V231.5A.337.337,0,0,1,261.793,231.165Zm14.628,15.3H261.793a.337.337,0,0,1-.336-.336V236.84h15.3v9.288A.337.337,0,0,1,276.421,246.464Z" transform="translate(-218.674 -204.211)"/>
      <path id="Trazado_143957" data-name="Trazado 143957" d="M262.184,250.733a4.009,4.009,0,0,0-4-4H243.552a4.009,4.009,0,0,0-4,4v14.625a4.009,4.009,0,0,0,4,4H258.18a4.009,4.009,0,0,0,4-4Zm-18.631-.336H258.18a.336.336,0,0,1,.336.336v1.67h-15.3v-1.67A.336.336,0,0,1,243.552,250.4Zm14.626,15.3H243.552a.336.336,0,0,1-.336-.336v-9.287h15.3v9.287A.337.337,0,0,1,258.179,265.694Z" transform="translate(-226.988 -195.446)"/>
      <path id="Trazado_143958" data-name="Trazado 143958" d="M280.425,250.733a4.009,4.009,0,0,0-4-4H261.793a4.009,4.009,0,0,0-4,4v14.625a4.009,4.009,0,0,0,4,4h14.628a4.009,4.009,0,0,0,4-4Zm-18.631-.336h14.628a.336.336,0,0,1,.336.336v1.67h-15.3v-1.67A.336.336,0,0,1,261.793,250.4Zm14.628,15.3H261.793a.336.336,0,0,1-.336-.336v-9.287h15.3v9.287A.336.336,0,0,1,276.421,265.694Z" transform="translate(-218.674 -195.446)"/>
      <path id="Trazado_143959" data-name="Trazado 143959" d="M258.179,265.959H243.552a4.009,4.009,0,0,0-4,4v14.626a4.009,4.009,0,0,0,4,4H258.18a4.009,4.009,0,0,0,4-4V269.962A4.009,4.009,0,0,0,258.179,265.959Zm-14.626,3.667H258.18a.337.337,0,0,1,.336.336v1.671h-15.3v-1.671A.337.337,0,0,1,243.552,269.626Zm14.626,15.3H243.552a.336.336,0,0,1-.336-.336V275.3h15.3v9.287A.337.337,0,0,1,258.179,284.925Z" transform="translate(-226.988 -186.68)"/>
      <path id="Trazado_143960" data-name="Trazado 143960" d="M276.421,265.959H261.793a4.009,4.009,0,0,0-4,4v14.626a4.009,4.009,0,0,0,4,4h14.628a4.009,4.009,0,0,0,4-4V269.962A4.009,4.009,0,0,0,276.421,265.959Zm-14.628,3.667h14.628a.337.337,0,0,1,.336.336v1.671h-15.3v-1.671A.337.337,0,0,1,261.793,269.626Zm14.628,15.3H261.793a.336.336,0,0,1-.336-.336V275.3h15.3v9.287A.336.336,0,0,1,276.421,284.925Z" transform="translate(-218.674 -186.68)"/>
    </g>
  </g>
</svg>
