<svg xmlns="http://www.w3.org/2000/svg" xmlns:xlink="http://www.w3.org/1999/xlink" width="356" height="214.828" viewBox="0 0 356 214.828">
  <defs>
    <clipPath id="clip-path">
      <rect id="Rectángulo_35653" data-name="Rectángulo 35653" width="267.883" height="172.811" fill="none"/>
    </clipPath>
  </defs>
  <g id="Grupo_90971" data-name="Grupo 90971" transform="translate(-404.486 -215.421)">
    <g id="Grupo_90970" data-name="Grupo 90970" transform="translate(404.486 215.421)">
      <g id="Grupo_90967" data-name="Grupo 90967">
        <g id="Grupo_90957" data-name="Grupo 90957">
          <g id="Grupo_90954" data-name="Grupo 90954">
            <rect id="Rectángulo_35649" data-name="Rectángulo 35649" width="282.101" height="199.766" rx="5.727" transform="translate(32.102)" fill="#05145b"/>
            <g id="Grupo_90953" data-name="Grupo 90953" transform="translate(0 188.966)">
              <path id="Trazado_144294" data-name="Trazado 144294" d="M676.053,340.576H404.486s3.756,4.156,15.167,4.156H736c11.411,0,15.167-4.156,15.167-4.156Z" transform="translate(-404.485 -333.932)" fill="#639ecc"/>
              <rect id="Rectángulo_35650" data-name="Rectángulo 35650" width="346.683" height="6.644" fill="#d4e8fd"/>
              <path id="Trazado_144295" data-name="Trazado 144295" d="M548.621,336.848H499.989a3.035,3.035,0,0,0,3.034,3.035h42.565A3.035,3.035,0,0,0,548.621,336.848Z" transform="translate(-350.723 -336.031)" fill="#639ecc"/>
            </g>
          </g>
          <g id="Grupo_90956" data-name="Grupo 90956" transform="translate(39.4 10.596)">
            <g id="Grupo_90955" data-name="Grupo 90955" clip-path="url(#clip-path)">
              <rect id="Rectángulo_35651" data-name="Rectángulo 35651" width="273.285" height="10.79" transform="translate(-1.366 0.256)" fill="#88baeb"/>
              <path id="Trazado_144296" data-name="Trazado 144296" d="M435.232,226.716a2.284,2.284,0,1,1-2.283-2.283,2.284,2.284,0,0,1,2.283,2.283" transform="translate(-429.149 -220.944)" fill="#bcd8f7"/>
              <path id="Trazado_144297" data-name="Trazado 144297" d="M440.037,226.716a2.285,2.285,0,1,1-2.285-2.283,2.285,2.285,0,0,1,2.285,2.283" transform="translate(-426.445 -220.944)" fill="#bcd8f7"/>
              <path id="Trazado_144298" data-name="Trazado 144298" d="M444.84,226.716a2.285,2.285,0,1,1-2.285-2.283,2.285,2.285,0,0,1,2.285,2.283" transform="translate(-423.741 -220.944)" fill="#bcd8f7"/>
              <rect id="Rectángulo_35652" data-name="Rectángulo 35652" width="273.285" height="161.766" transform="translate(-1.366 11.046)" fill="#bcd8f7"/>
            </g>
          </g>
        </g>
        <g id="Grupo_90961" data-name="Grupo 90961" transform="translate(176.455 32.627)">
          <g id="Grupo_90958" data-name="Grupo 90958">
            <rect id="Rectángulo_35654" data-name="Rectángulo 35654" width="115.774" height="136.892" fill="#fff" opacity="0.62"/>
          </g>
          <g id="Grupo_90959" data-name="Grupo 90959" transform="translate(8.905 76.986)">
            <rect id="Rectángulo_35655" data-name="Rectángulo 35655" width="52.324" height="2.863" fill="#fff"/>
            <rect id="Rectángulo_35656" data-name="Rectángulo 35656" width="36.769" height="2.863" transform="translate(58.918)" fill="#4c7bed"/>
            <rect id="Rectángulo_35657" data-name="Rectángulo 35657" width="36.769" height="2.863" transform="translate(48.822 23.056)" fill="#feca2e"/>
            <rect id="Rectángulo_35658" data-name="Rectángulo 35658" width="44.369" height="2.863" transform="translate(0.317 26.527)" fill="#fff"/>
            <rect id="Rectángulo_35659" data-name="Rectángulo 35659" width="38.674" height="2.863" transform="translate(13.651 8.302)" fill="#feca2e"/>
            <rect id="Rectángulo_35660" data-name="Rectángulo 35660" width="24.153" height="2.863" transform="translate(0.317 16.603)" fill="#fff"/>
            <rect id="Rectángulo_35661" data-name="Rectángulo 35661" width="20.552" height="2.863" transform="translate(31.773 16.603)" fill="#4c7bed"/>
            <rect id="Rectángulo_35662" data-name="Rectángulo 35662" width="30.318" height="2.863" transform="translate(0 44.33)" fill="#958bfa"/>
            <rect id="Rectángulo_35663" data-name="Rectángulo 35663" width="28.589" height="2.863" transform="translate(62.53 15.863)" fill="#fff"/>
            <rect id="Rectángulo_35664" data-name="Rectángulo 35664" width="37.967" height="2.863" transform="translate(36.717 44.33)" fill="#feca2e"/>
            <rect id="Rectángulo_35665" data-name="Rectángulo 35665" width="62.53" height="2.863" transform="translate(0 36.028)" fill="#feca2e"/>
            <rect id="Rectángulo_35666" data-name="Rectángulo 35666" width="4.746" height="2.863" transform="translate(58.398 8.302)" fill="#fff"/>
            <rect id="Rectángulo_35667" data-name="Rectángulo 35667" width="4.746" height="2.863" transform="translate(68.963 8.302)" fill="#fff"/>
            <rect id="Rectángulo_35668" data-name="Rectángulo 35668" width="4.746" height="2.863" transform="translate(61.903 50.513)" fill="#fff"/>
            <rect id="Rectángulo_35669" data-name="Rectángulo 35669" width="53.645" height="2.863" transform="translate(0 50.513)" fill="#fff"/>
            <rect id="Rectángulo_35670" data-name="Rectángulo 35670" width="24.408" height="2.863" transform="translate(67.864 32.54)" fill="#4c7bed"/>
            <rect id="Rectángulo_35671" data-name="Rectángulo 35671" width="19.277" height="2.863" transform="translate(72.468 50.513)" fill="#4c7bed"/>
          </g>
          <g id="Grupo_90960" data-name="Grupo 90960" transform="translate(8.905 7.63)">
            <rect id="Rectángulo_35672" data-name="Rectángulo 35672" width="54.118" height="2.863" fill="#fff"/>
            <rect id="Rectángulo_35673" data-name="Rectángulo 35673" width="28.985" height="2.863" transform="translate(25.134 8.302)" fill="#4c7bed"/>
            <rect id="Rectángulo_35674" data-name="Rectángulo 35674" width="8.282" height="2.863" transform="translate(0 8.215)" fill="#fff"/>
            <rect id="Rectángulo_35675" data-name="Rectángulo 35675" width="8.282" height="2.863" transform="translate(12.23 8.215)" fill="#fff"/>
            <rect id="Rectángulo_35676" data-name="Rectángulo 35676" width="38.261" height="2.863" transform="translate(60.98 8.302)" fill="#fff"/>
            <rect id="Rectángulo_35677" data-name="Rectángulo 35677" width="38.261" height="2.863" transform="translate(60.98)" fill="#feca2e"/>
            <rect id="Rectángulo_35678" data-name="Rectángulo 35678" width="38.261" height="2.863" transform="translate(50.473 31.357)" fill="#4c7bed"/>
            <rect id="Rectángulo_35679" data-name="Rectángulo 35679" width="46.17" height="2.863" transform="translate(0 34.829)" fill="#fff"/>
            <rect id="Rectángulo_35680" data-name="Rectángulo 35680" width="54.118" height="2.863" transform="translate(0 16.603)" fill="#feca2e"/>
            <rect id="Rectángulo_35681" data-name="Rectángulo 35681" width="25.134" height="2.863" transform="translate(0 24.905)" fill="#feca2e"/>
            <rect id="Rectángulo_35682" data-name="Rectángulo 35682" width="21.386" height="2.863" transform="translate(32.733 24.905)" fill="#fff"/>
            <rect id="Rectángulo_35683" data-name="Rectángulo 35683" width="29.749" height="2.863" transform="translate(1.47 52.631)" fill="#4c7bed"/>
            <rect id="Rectángulo_35684" data-name="Rectángulo 35684" width="29.749" height="2.863" transform="translate(64.738 24.164)" fill="#fff"/>
            <rect id="Rectángulo_35685" data-name="Rectángulo 35685" width="39.508" height="2.863" transform="translate(37.877 52.631)" fill="#fff"/>
            <rect id="Rectángulo_35686" data-name="Rectángulo 35686" width="62.872" height="2.863" transform="translate(1.866 44.33)" fill="#fff"/>
            <rect id="Rectángulo_35687" data-name="Rectángulo 35687" width="4.939" height="2.863" transform="translate(60.438 16.603)" fill="#fff"/>
            <rect id="Rectángulo_35688" data-name="Rectángulo 35688" width="4.938" height="2.863" transform="translate(71.432 16.603)" fill="#fff"/>
            <rect id="Rectángulo_35689" data-name="Rectángulo 35689" width="4.938" height="2.863" transform="translate(64.086 58.815)" fill="#4c7bed"/>
            <rect id="Rectángulo_35690" data-name="Rectángulo 35690" width="54.023" height="2.863" transform="translate(1.47 58.815)" fill="#fff"/>
            <rect id="Rectángulo_35691" data-name="Rectángulo 35691" width="25.398" height="2.863" transform="translate(70.289 40.841)" fill="#feca2e"/>
            <rect id="Rectángulo_35692" data-name="Rectángulo 35692" width="20.06" height="2.863" transform="translate(75.08 58.815)" fill="#feca2e"/>
          </g>
        </g>
        <g id="Grupo_90964" data-name="Grupo 90964" transform="translate(68.931 29.542)">
          <rect id="Rectángulo_35693" data-name="Rectángulo 35693" width="71.048" height="140.836" rx="7.066" transform="translate(2.886 3.359)" fill="#fff" opacity="0.76"/>
          <path id="Trazado_144299" data-name="Trazado 144299" d="M510.8,234.323H463.2a14.606,14.606,0,0,0-14.607,14.606V367.271A14.606,14.606,0,0,0,463.2,381.877H510.8a14.606,14.606,0,0,0,14.606-14.606V248.929A14.606,14.606,0,0,0,510.8,234.323Zm11.719,133.15a11.044,11.044,0,0,1-11.044,11.045H462.52a11.044,11.044,0,0,1-11.044-11.045V248.725a11.044,11.044,0,0,1,11.044-11.044h48.959a11.044,11.044,0,0,1,11.044,11.044Z" transform="translate(-448.589 -234.323)" fill="#05145b"/>
          <g id="Grupo_90963" data-name="Grupo 90963" transform="translate(24.288 2.269)">
            <path id="Trazado_144300" data-name="Trazado 144300" d="M486.321,241.827H470.181a6.053,6.053,0,0,1-6.052-6.052h28.244A6.053,6.053,0,0,1,486.321,241.827Z" transform="translate(-464.129 -235.775)" fill="#05145b"/>
            <g id="Grupo_90962" data-name="Grupo 90962" transform="translate(5.948 1.594)">
              <rect id="Rectángulo_35694" data-name="Rectángulo 35694" width="11.691" height="0.95" transform="translate(0 0.198)" fill="#fff"/>
              <path id="Trazado_144301" data-name="Trazado 144301" d="M478.878,237.467a.672.672,0,1,1-.672-.672A.671.671,0,0,1,478.878,237.467Z" transform="translate(-462.531 -236.795)" fill="#fff"/>
            </g>
          </g>
        </g>
        <g id="Grupo_90965" data-name="Grupo 90965" transform="translate(80.35 72.08)">
          <rect id="Rectángulo_35695" data-name="Rectángulo 35695" width="53.982" height="53.982" rx="3.746" fill="#91e5f7"/>
          <path id="Trazado_144302" data-name="Trazado 144302" d="M501.955,277.634l-20.889-9-20.89,9h5.593v22.813h11.391v-12.5h7.811v12.5h11.391V277.634Z" transform="translate(-453.485 -257.548)" fill="#f3f3f3"/>
        </g>
        <g id="Grupo_90966" data-name="Grupo 90966" transform="translate(85.479 136.14)">
          <path id="Trazado_144303" data-name="Trazado 144303" d="M497.266,313.795h-32.2a5.31,5.31,0,0,1-5.309-5.309h0a5.31,5.31,0,0,1,5.309-5.309h32.2a5.31,5.31,0,0,1,5.309,5.309h0A5.31,5.31,0,0,1,497.266,313.795Z" transform="translate(-458.852 -302.16)" fill="#606060" opacity="0.18"/>
          <path id="Trazado_144304" data-name="Trazado 144304" d="M496.309,313.145H464.486a5.31,5.31,0,0,1-5.309-5.309h0a5.31,5.31,0,0,1,5.309-5.309h31.823a5.31,5.31,0,0,1,5.309,5.309h0A5.31,5.31,0,0,1,496.309,313.145Z" transform="translate(-459.177 -302.526)" fill="#4c7bed"/>
          <text id="APP_" data-name="APP " transform="translate(13.705 7.392)" fill="#fff" font-size="5" font-family="Montserrat-ExtraBoldItalic, Montserrat" font-weight="800" font-style="italic" letter-spacing="0.2em"><tspan x="0" y="0">APP </tspan></text>
        </g>
      </g>
      <g id="Grupo_90968" data-name="Grupo 90968" transform="translate(287.966 64.421)">
        <path id="Rectángulo_35696" data-name="Rectángulo 35696" d="M6.068,0h55.9a6.068,6.068,0,0,1,6.068,6.068v55.9a6.068,6.068,0,0,1-6.068,6.068H6.069A6.069,6.069,0,0,1,0,61.966V6.068A6.068,6.068,0,0,1,6.068,0Z" fill="#4dd0e1"/>
        <text id="C_" data-name="C++" transform="translate(10.32 44.028)" fill="#12263f" font-size="24" font-family="Montserrat-Bold, Montserrat" font-weight="700"><tspan x="0" y="0">C++</tspan></text>
      </g>
      <g id="Grupo_90969" data-name="Grupo 90969" transform="translate(185.711 151.986)">
        <rect id="Rectángulo_35697" data-name="Rectángulo 35697" width="62.843" height="62.843" rx="5.605" fill="#feca2e"/>
        <text id="JAVA" transform="translate(7.52 36.047)" fill="#12263f" font-size="17" font-family="Montserrat-Bold, Montserrat" font-weight="700"><tspan x="0" y="0">JAVA</tspan></text>
      </g>
    </g>
  </g>
</svg>
