<svg xmlns="http://www.w3.org/2000/svg" width="125.2" height="125.2" viewBox="0 0 125.2 125.2">
  <g id="mobile_setting" data-name="mobile setting" transform="translate(-193.4 -193.4)">
    <path id="Trazado_146106" data-name="Trazado 146106" d="M309.732,292.12a12.6,12.6,0,0,1-.71,1.732l4.194,5.384-5.634,5.634-5.383-4.194a12.6,12.6,0,0,1-1.732.709l-.856,6.782h-7.929l-.209-1.649V268.082l.209-1.649h7.929l.856,6.782a12.588,12.588,0,0,1,1.732.709l5.383-4.194,5.634,5.634-4.194,5.384a12.6,12.6,0,0,1,.71,1.732l6.781.855v7.93Z" fill="#c0ab91"/>
    <path id="Trazado_146107" data-name="Trazado 146107" d="M309.732,292.12a12.6,12.6,0,0,1-.71,1.732l4.194,5.384-5.634,5.634-5.383-4.194a12.6,12.6,0,0,1-1.732.709l-.856,6.782h-7.929l-.856-6.782a12.533,12.533,0,0,1-1.731-.709l-5.384,4.194-2.859-2.859A44.506,44.506,0,0,0,301.907,287.3a43.647,43.647,0,0,0,7.637-15.608l3.672,3.672-4.194,5.384a12.6,12.6,0,0,1,.71,1.732l6.781.855v7.93Z" fill="#b39a7c"/>
    <path id="Trazado_146108" data-name="Trazado 146108" d="M295.647,278.953a8.347,8.347,0,1,1-4.174,15.567V280.08A8.338,8.338,0,0,1,295.647,278.953Z" fill="#ffde55"/>
    <path id="Trazado_146109" data-name="Trazado 146109" d="M303.993,287.3a8.336,8.336,0,0,1-15.942,3.422,8.2,8.2,0,0,0,3.422.751,8.347,8.347,0,0,0,8.347-8.346,8.2,8.2,0,0,0-.751-3.422A8.32,8.32,0,0,1,303.993,287.3Z" fill="#ffcd00"/>
    <path id="Trazado_146110" data-name="Trazado 146110" d="M287.3,195.487a4.185,4.185,0,0,1,4.173,4.173V312.34a4.185,4.185,0,0,1-4.173,4.173H224.7a4.185,4.185,0,0,1-4.173-4.173V199.66a4.185,4.185,0,0,1,4.173-4.173" fill="#57a4ff"/>
    <path id="Trazado_146111" data-name="Trazado 146111" d="M291.473,199.66V312.34a4.185,4.185,0,0,1-4.173,4.173h-8.347a4.186,4.186,0,0,0,4.174-4.173V199.66a4.186,4.186,0,0,0-4.174-4.173H287.3A4.185,4.185,0,0,1,291.473,199.66Z" fill="#2488ff"/>
    <rect id="Rectángulo_35822" data-name="Rectángulo 35822" width="54.253" height="33.387" rx="4.173" transform="translate(228.873 239.307)" fill="#46f8ff"/>
    <path id="Trazado_146112" data-name="Trazado 146112" d="M283.127,243.48v25.04a4.186,4.186,0,0,1-4.174,4.173h-8.346a4.185,4.185,0,0,0,4.173-4.173V243.48a4.185,4.185,0,0,0-4.173-4.173h8.346A4.186,4.186,0,0,1,283.127,243.48Z" fill="#00e7f0"/>
    <path id="Trazado_146113" data-name="Trazado 146113" d="M278.953,195.487v4.173a4.185,4.185,0,0,1-4.173,4.173H237.22a4.185,4.185,0,0,1-4.173-4.173v-4.173Z" fill="#ffde55"/>
    <path id="Trazado_146114" data-name="Trazado 146114" d="M278.953,195.487v4.173a4.185,4.185,0,0,1-4.173,4.173h-8.347a4.186,4.186,0,0,0,4.174-4.173v-4.173Z" fill="#ffcd00"/>
    <path id="Trazado_146115" data-name="Trazado 146115" d="M208.007,224.7a8.335,8.335,0,0,0,12.52,7.22v12l-.209,1.649h-7.929l-.856-6.782a12.474,12.474,0,0,1-1.732-.71l-5.383,4.2-5.634-5.634,4.194-5.384a12.6,12.6,0,0,1-.71-1.732l-6.781-.855v-7.93l6.781-.855a12.6,12.6,0,0,1,.71-1.732l-4.194-5.384,5.634-5.634,5.383,4.194a12.59,12.59,0,0,1,1.732-.709l.856-6.782h7.929l.209,1.649v12a8.334,8.334,0,0,0-12.52,7.22Z" fill="#c0ab91"/>
    <path id="Trazado_146116" data-name="Trazado 146116" d="M220.527,224.7v7.22a8.347,8.347,0,1,1,0-14.44Z" fill="#ffde55"/>
    <path id="Trazado_146117" data-name="Trazado 146117" d="M251.827,253.913h25.04v4.174h-25.04Z"/>
    <path id="Trazado_146118" data-name="Trazado 146118" d="M235.133,253.913h12.52v4.174h-12.52Z"/>
    <path id="Trazado_146119" data-name="Trazado 146119" d="M235.133,262.26h41.734v4.173H235.133Z"/>
    <path id="Trazado_146120" data-name="Trazado 146120" d="M235.133,245.567h41.734v4.173H235.133Z"/>
    <path id="Trazado_146121" data-name="Trazado 146121" d="M260.173,210.093h4.174v4.174h-4.174Z"/>
    <path id="Trazado_146122" data-name="Trazado 146122" d="M251.827,218.44H256v4.173h-4.173Z"/>
    <path id="Trazado_146123" data-name="Trazado 146123" d="M256,289.387h4.173v4.173H256Z"/>
    <path id="Trazado_146124" data-name="Trazado 146124" d="M247.653,297.733h4.174v4.174h-4.174Z"/>
    <path id="Trazado_146125" data-name="Trazado 146125" d="M316.764,281.27l-5.008-.647,3.109-3.986a2.1,2.1,0,0,0-.167-2.754l-5.634-5.634a2.1,2.1,0,0,0-2.754-.167l-3.986,3.109-.647-5.008a2.086,2.086,0,0,0-2.066-1.836H293.56V199.66a6.278,6.278,0,0,0-6.26-6.26H224.7a6.278,6.278,0,0,0-6.26,6.26v2.087h-6.051a2.086,2.086,0,0,0-2.066,1.836l-.647,5.008-3.986-3.109a2.1,2.1,0,0,0-2.754.167l-5.634,5.634a2.1,2.1,0,0,0-.167,2.754l3.109,3.986-5.008.646a2.087,2.087,0,0,0-1.836,2.066v7.93a2.086,2.086,0,0,0,1.836,2.065l5.008.647-3.109,3.986a2.1,2.1,0,0,0,.167,2.754l5.634,5.634a2.1,2.1,0,0,0,2.754.167l3.986-3.109.647,5.008a2.086,2.086,0,0,0,2.066,1.836h6.051V312.34a6.278,6.278,0,0,0,6.26,6.26h62.6a6.278,6.278,0,0,0,6.26-6.26v-2.087h6.051a2.086,2.086,0,0,0,2.066-1.836l.647-5.008,3.986,3.109a2.1,2.1,0,0,0,2.754-.167l5.634-5.634a2.1,2.1,0,0,0,.167-2.754l-3.109-3.986,5.008-.647a2.086,2.086,0,0,0,1.836-2.065v-7.93a2.088,2.088,0,0,0-1.836-2.066ZM218.44,230.543a5.925,5.925,0,0,1-2.087.417,6.26,6.26,0,0,1,0-12.52,5.925,5.925,0,0,1,2.087.417Zm0-16.047a11.613,11.613,0,0,0-2.087-.229,10.433,10.433,0,0,0,0,20.866,11.615,11.615,0,0,0,2.087-.229v8.576h-4.215l-.626-4.966a2.128,2.128,0,0,0-1.44-1.732,8.858,8.858,0,0,1-1.461-.585,2.05,2.05,0,0,0-2.17.23l-3.943,3.067-3.026-3.025,3.067-3.944a2.044,2.044,0,0,0,.23-2.17,8.851,8.851,0,0,1-.584-1.461,2.128,2.128,0,0,0-1.732-1.44l-4.967-.626v-4.256l4.967-.626a2.128,2.128,0,0,0,1.732-1.44,8.852,8.852,0,0,1,.584-1.461,2.044,2.044,0,0,0-.23-2.17l-3.067-3.944,3.026-3.026,3.943,3.068a2.048,2.048,0,0,0,2.17.229,8.941,8.941,0,0,1,1.461-.584,2.128,2.128,0,0,0,1.44-1.732l.626-4.966h4.215Zm16.693-16.923h41.734v2.087a2.088,2.088,0,0,1-2.087,2.087H237.22a2.088,2.088,0,0,1-2.087-2.087Zm54.254,29.214H274.78v-6.26a2.086,2.086,0,0,0-2.087-2.087h-12.52v4.173h10.434v6.26a2.086,2.086,0,0,0,2.086,2.087h16.694v54.253H268.52a2.088,2.088,0,0,0-2.087,2.087v10.433H256v4.174h12.52a2.088,2.088,0,0,0,2.087-2.087V289.387h18.78V312.34a2.088,2.088,0,0,1-2.087,2.087H224.7a2.088,2.088,0,0,1-2.087-2.087V285.213H237.22v6.26a2.087,2.087,0,0,0,2.087,2.087h12.52v-4.173H241.393v-6.26a2.086,2.086,0,0,0-2.086-2.087H222.613V226.787H243.48a2.088,2.088,0,0,0,2.087-2.087V214.267H256v-4.174H243.48a2.088,2.088,0,0,0-2.087,2.087v10.433h-18.78V199.66a2.088,2.088,0,0,1,2.087-2.087h6.26v2.087a6.278,6.278,0,0,0,6.26,6.26h37.56a6.278,6.278,0,0,0,6.26-6.26v-2.087h6.26a2.088,2.088,0,0,1,2.087,2.087Zm4.173,54.67a5.925,5.925,0,0,1,2.087-.417,6.26,6.26,0,1,1,0,12.52,5.925,5.925,0,0,1-2.087-.417Zm20.867,7.971-4.967.626a2.128,2.128,0,0,0-1.732,1.44,8.853,8.853,0,0,1-.584,1.461,2.044,2.044,0,0,0,.23,2.17l3.067,3.944-3.026,3.025-3.943-3.067a2.046,2.046,0,0,0-2.17-.23,8.856,8.856,0,0,1-1.461.585,2.126,2.126,0,0,0-1.44,1.732l-.626,4.966H293.56V297.5a11.614,11.614,0,0,0,2.087.229,10.433,10.433,0,0,0,0-20.866,11.614,11.614,0,0,0-2.087.229V268.52h4.215l.626,4.966a2.126,2.126,0,0,0,1.44,1.732,8.941,8.941,0,0,1,1.461.584,2.044,2.044,0,0,0,2.17-.229l3.943-3.067,3.026,3.025-3.067,3.944a2.044,2.044,0,0,0-.23,2.17,8.855,8.855,0,0,1,.584,1.461,2.128,2.128,0,0,0,1.732,1.44l4.967.626Z"/>
    <path id="Trazado_146126" data-name="Trazado 146126" d="M278.953,237.22H233.047a6.278,6.278,0,0,0-6.26,6.26v25.04a6.278,6.278,0,0,0,6.26,6.26h45.906a6.278,6.278,0,0,0,6.26-6.26V243.48A6.278,6.278,0,0,0,278.953,237.22Zm2.087,31.3a2.087,2.087,0,0,1-2.087,2.087H233.047a2.087,2.087,0,0,1-2.087-2.087V243.48a2.087,2.087,0,0,1,2.087-2.087h45.906a2.087,2.087,0,0,1,2.087,2.087Z"/>
  </g>
</svg>
