<svg xmlns="http://www.w3.org/2000/svg" width="94" height="94" viewBox="0 0 94 94">
  <g id="Grupo_91044" data-name="Grupo 91044" transform="translate(-333 -1311)">
    <g id="Grupo_90857" data-name="Grupo 90857" transform="translate(-153.586 1175)">
      <rect id="Rect치ngulo_35540" data-name="Rect치ngulo 35540" width="15.161" height="16.677" transform="translate(526.005 204.226)" fill="#feca2e"/>
      <rect id="Rect치ngulo_35541" data-name="Rect치ngulo 35541" width="45.484" height="6.065" transform="translate(526.005 189.064)" fill="#feca2e"/>
      <path id="Trazado_144184" data-name="Trazado 144184" d="M512.392,174.71v43.967a4.549,4.549,0,0,0,4.548,4.548h54.581a4.548,4.548,0,0,0,4.548-4.548V174.71Zm27.29,40.935a1.517,1.517,0,0,1-1.516,1.517H519.973a1.517,1.517,0,0,1-1.516-1.517V195.935a1.516,1.516,0,0,1,1.516-1.516h18.194a1.516,1.516,0,0,1,1.516,1.516Zm28.806,1.517H544.231a1.516,1.516,0,0,1,0-3.033h24.258a1.516,1.516,0,1,1,0,3.033Zm0-6.065H544.231a1.516,1.516,0,1,1,0-3.031h24.258a1.516,1.516,0,1,1,0,3.031Zm0-6.064H544.231a1.516,1.516,0,0,1,0-3.033h24.258a1.516,1.516,0,1,1,0,3.033Zm0-6.064H544.231a1.516,1.516,0,0,1,0-3.033h24.258a1.516,1.516,0,1,1,0,3.033Zm1.517-9.1a1.517,1.517,0,0,1-1.517,1.516H519.973a1.516,1.516,0,0,1-1.516-1.516v-9.1a1.516,1.516,0,0,1,1.516-1.516h48.516a1.517,1.517,0,0,1,1.517,1.516Zm0,0" transform="translate(4.516 6.774)" fill="#feca2e"/>
      <path id="Trazado_144185" data-name="Trazado 144185" d="M576.07,173.936v-7.581a4.549,4.549,0,0,0-4.548-4.548H516.94a4.55,4.55,0,0,0-4.548,4.548v7.581Zm-9.1-7.581h1.516a1.516,1.516,0,1,1,0,3.033h-1.516a1.516,1.516,0,0,1,0-3.033Zm-7.581,0h1.517a1.516,1.516,0,0,1,0,3.033h-1.517a1.516,1.516,0,0,1,0-3.033Zm-7.58,0h1.516a1.516,1.516,0,0,1,0,3.033h-1.516a1.516,1.516,0,1,1,0-3.033Zm0,0" transform="translate(4.516 4.516)" fill="#feca2e"/>
      <path id="Trazado_144186" data-name="Trazado 144186" d="M530.553,136H491.134a4.548,4.548,0,0,0-4.548,4.548v66.709a4.548,4.548,0,0,0,4.548,4.548h39.419a4.548,4.548,0,0,0,4.548-4.548V140.548A4.548,4.548,0,0,0,530.553,136Zm-40.935,9.1H532.07v57.613H489.619Zm1.516-6.064h39.419a1.517,1.517,0,0,1,1.517,1.516v1.516H489.619v-1.516a1.516,1.516,0,0,1,1.516-1.516Zm39.419,69.741H491.134a1.516,1.516,0,0,1-1.516-1.516v-1.516H532.07v1.516a1.517,1.517,0,0,1-1.517,1.516Zm0,0" fill="#12263f"/>
      <path id="Trazado_144187" data-name="Trazado 144187" d="M509.489,180.516a15.162,15.162,0,1,0-15.161-15.161,15.16,15.16,0,0,0,15.161,15.161Zm-12.024-13.645h5.578a27.292,27.292,0,0,0,1.97,9.748,12.15,12.15,0,0,1-7.548-9.748Zm12.024-13.645c.962,0,3.135,3.607,3.417,10.613h-6.833c.281-7.005,2.453-10.613,3.416-10.613Zm3.417,13.645c-.282,7.007-2.455,10.613-3.417,10.613s-3.135-3.606-3.416-10.613Zm1.061,9.748a27.292,27.292,0,0,0,1.97-9.748h5.578a12.149,12.149,0,0,1-7.554,9.748Zm7.547-12.78h-5.578a27.3,27.3,0,0,0-1.972-9.748,12.15,12.15,0,0,1,7.549,9.748Zm-16.5-9.748a27.269,27.269,0,0,0-1.97,9.748h-5.582a12.149,12.149,0,0,1,7.553-9.748Zm0,0" transform="translate(1.355 2.484)" fill="#12263f"/>
      <path id="Trazado_144188" data-name="Trazado 144188" d="M520.1,178.581H498.876a4.548,4.548,0,0,0,0,9.1H520.1a4.548,4.548,0,0,0,0-9.1Zm0,6.064H498.876a1.516,1.516,0,0,1,0-3.033H520.1a1.516,1.516,0,1,1,0,3.033Zm0,0" transform="translate(1.355 7.452)" fill="#12263f"/>
    </g>
  </g>
</svg>
