<svg xmlns="http://www.w3.org/2000/svg" width="50.506" height="86" viewBox="0 0 50.506 86">
  <g id="Grupo_90951" data-name="Grupo 90951" transform="translate(193.137 -213)">
    <g id="Grupo_89912" data-name="Grupo 89912">
      <g id="Grupo_89910" data-name="Grupo 89910">
        <g id="Grupo_89909" data-name="Grupo 89909">
          <rect id="Rect치ngulo_35188" data-name="Rect치ngulo 35188" width="47.926" height="83.428" rx="7.367" transform="translate(-191.847 214.286)" fill="#4dd0e1"/>
          <rect id="Rect치ngulo_35189" data-name="Rect치ngulo 35189" width="33.193" height="54.023" rx="2.21" transform="translate(-184.481 228.934)" fill="#f0f7ff"/>
          <circle id="Elipse_4533" data-name="Elipse 4533" cx="2.964" cy="2.964" r="2.964" transform="translate(-170.848 287.372)" fill="#4dd0e1"/>
        </g>
      </g>
      <g id="Grupo_89911" data-name="Grupo 89911">
        <path id="Trazado_117988" data-name="Trazado 117988" d="M-151.287,213h-33.194a8.665,8.665,0,0,0-8.656,8.656v4.84a1.289,1.289,0,0,0,1.289,1.289,1.289,1.289,0,0,0,1.289-1.289v-4.84a6.085,6.085,0,0,1,6.078-6.078h33.194a6.085,6.085,0,0,1,6.078,6.078v68.688a6.085,6.085,0,0,1-6.078,6.078h-33.194a6.085,6.085,0,0,1-6.078-6.078V285.5a1.289,1.289,0,0,0-1.289-1.289,1.289,1.289,0,0,0-1.289,1.289h0v4.84A8.665,8.665,0,0,0-184.481,299h33.194a8.665,8.665,0,0,0,8.656-8.656V221.656A8.665,8.665,0,0,0-151.287,213Z"/>
        <path id="Trazado_117989" data-name="Trazado 117989" d="M-191.848,258.645a1.29,1.29,0,0,0,1.289-1.29V234.629a1.289,1.289,0,0,0-1.289-1.289,1.289,1.289,0,0,0-1.289,1.289v22.726A1.29,1.29,0,0,0-191.848,258.645Z"/>
        <path id="Trazado_117990" data-name="Trazado 117990" d="M-191.848,278.668a1.29,1.29,0,0,0,1.289-1.29v-11.9a1.289,1.289,0,0,0-1.289-1.289,1.289,1.289,0,0,0-1.289,1.289v11.9A1.29,1.29,0,0,0-191.848,278.668Z"/>
        <path id="Trazado_117991" data-name="Trazado 117991" d="M-185.77,231.145v49.6a3.5,3.5,0,0,0,3.5,3.5H-153.5a3.5,3.5,0,0,0,3.5-3.5v-49.6a3.5,3.5,0,0,0-3.5-3.5h-28.773A3.5,3.5,0,0,0-185.77,231.145Zm33.193,0v49.6a.921.921,0,0,1-.921.921h-28.773a.922.922,0,0,1-.92-.921v-49.6a.922.922,0,0,1,.92-.921H-153.5a.922.922,0,0,1,.921.921Z"/>
        <path id="Trazado_117992" data-name="Trazado 117992" d="M-172.137,290.336a4.253,4.253,0,0,0,4.253,4.253,4.253,4.253,0,0,0,4.253-4.253,4.253,4.253,0,0,0-4.253-4.253A4.257,4.257,0,0,0-172.137,290.336Zm5.927,0a1.673,1.673,0,0,1-1.674,1.674,1.673,1.673,0,0,1-1.674-1.674,1.674,1.674,0,0,1,1.674-1.675A1.676,1.676,0,0,1-166.21,290.336Z"/>
      </g>
    </g>
    <g id="Grupo_89915" data-name="Grupo 89915">
      <g id="Grupo_89913" data-name="Grupo 89913">
        <path id="Trazado_117993" data-name="Trazado 117993" d="M-154.331,265.415H-181.44l3.216-9.289c7.354-5.755,9,11.074,21.638,2.77Z" fill="#9cdd04"/>
        <path id="Trazado_117994" data-name="Trazado 117994" d="M-156.586,258.9c-12.636,8.3-14.284-8.525-21.638-2.77l1.768-5.106h17.141Z" fill="#78b75b"/>
        <path id="Trazado_117995" data-name="Trazado 117995" d="M-164.55,240.257a4.67,4.67,0,0,0-4.672,4.666v0c0,2.581,4.672,11.2,4.672,11.2s4.667-8.62,4.667-11.2A4.668,4.668,0,0,0-164.55,240.257Zm0,5.569a1.633,1.633,0,0,1-1.635-1.631,1.633,1.633,0,0,1,1.631-1.634,1.632,1.632,0,0,1,1.634,1.631A1.636,1.636,0,0,1-164.55,245.826Z" fill="#ff651b"/>
      </g>
      <g id="Grupo_89914" data-name="Grupo 89914">
        <path id="Trazado_117996" data-name="Trazado 117996" d="M-164.552,239.644a5.287,5.287,0,0,0-5.282,5.282,17.9,17.9,0,0,0,1.768,5.48h-8.39a.613.613,0,0,0-.58.413l-1.77,5.113,0,.01-3.208,9.273a.613.613,0,0,0,.379.78.6.6,0,0,0,.2.034h27.108a.613.613,0,0,0,.614-.613.594.594,0,0,0-.034-.2l-4.985-14.4a.613.613,0,0,0-.58-.413h-1.723a17.881,17.881,0,0,0,1.768-5.48,5.287,5.287,0,0,0-5.282-5.282Zm0,1.227a4.06,4.06,0,0,1,4.055,4.055c0,1.952-3.156,8.167-4.055,9.891-1.487-2.853-4.055-8.143-4.055-9.891A4.059,4.059,0,0,1-164.552,240.871ZM-180.578,264.8l2.873-8.3c2.771-2.072,4.524-.538,6.933,1.575,2,1.758,4.32,3.788,7.645,3.788a12.026,12.026,0,0,0,6.215-2.04l1.721,4.974Zm20.826-13.169,2.425,7.006c-6.382,4-9.562,1.214-12.637-1.482-2.1-1.839-4.254-3.728-7.119-2.448l1.065-3.076h8.514c1.081,2.309,2.18,4.357,2.412,4.787a.614.614,0,0,0,.832.247.621.621,0,0,0,.248-.247c.232-.43,1.332-2.478,2.413-4.787Z"/>
        <path id="Trazado_117997" data-name="Trazado 117997" d="M-162.307,244.193a2.244,2.244,0,0,0-2.244-2.244,2.245,2.245,0,0,0-2.245,2.244,2.245,2.245,0,0,0,2.245,2.245A2.248,2.248,0,0,0-162.307,244.193Zm-3.263,0a1.017,1.017,0,0,1,1.017-1.017,1.017,1.017,0,0,1,1.017,1.017,1.017,1.017,0,0,1-1.017,1.017,1.019,1.019,0,0,1-1.018-1.017Z"/>
      </g>
    </g>
  </g>
</svg>
