<svg xmlns="http://www.w3.org/2000/svg" width="94" height="94" viewBox="0 0 94 94">
  <g id="Grupo_91045" data-name="Grupo 91045" transform="translate(-332.999 -1590)">
    <g id="Grupo_90861" data-name="Grupo 90861" transform="translate(-306.664 1465.613)">
      <g id="Grupo_90859" data-name="Grupo 90859" transform="translate(669.986 154.71)">
        <path id="Trazado_144189" data-name="Trazado 144189" d="M685.728,177.741a3.033,3.033,0,1,1-3.033-3.031,3.033,3.033,0,0,1,3.033,3.031Zm0,0" transform="translate(-662.986 -145.904)" fill="#feca2e"/>
        <path id="Trazado_144190" data-name="Trazado 144190" d="M703.792,162.257a3.032,3.032,0,1,1-3.033-3.031,3.032,3.032,0,0,1,3.033,3.031Zm0,0" transform="translate(-659.825 -148.613)" fill="#feca2e"/>
        <path id="Trazado_144191" data-name="Trazado 144191" d="M721.567,150.194H673.05a7.58,7.58,0,0,0-7.58,7.58v48.515a7.58,7.58,0,0,0,7.58,7.581h48.517a7.58,7.58,0,0,0,7.58-7.581V157.774a7.58,7.58,0,0,0-7.58-7.58Zm-1.517,51.548H709.222a6.035,6.035,0,0,1-11.7,0H674.567a1.516,1.516,0,1,1,0-3.033h22.957a6.035,6.035,0,0,1,11.7,0H720.05a1.516,1.516,0,1,1,0,3.033Zm0-18.194H691.028a6.035,6.035,0,0,1-11.7,0h-4.763a1.516,1.516,0,1,1,0-3.033h4.763a6.035,6.035,0,0,1,11.7,0H720.05a1.516,1.516,0,1,1,0,3.033Zm0-18.194h-7.8a6.035,6.035,0,0,1-11.7,0H674.567a1.516,1.516,0,1,1,0-3.033h25.989a6.035,6.035,0,0,1,11.7,0h7.8a1.516,1.516,0,1,1,0,3.033Zm0,0" transform="translate(-665.47 -150.194)" fill="#feca2e"/>
        <g id="Grupo_90858" data-name="Grupo 90858" transform="translate(34.87 47)">
          <path id="Trazado_144192" data-name="Trazado 144192" d="M701.211,193.225a3.032,3.032,0,1,1-3.031-3.032,3.032,3.032,0,0,1,3.031,3.032Zm0,0" transform="translate(-695.147 -190.194)" fill="#feca2e"/>
        </g>
      </g>
      <g id="Grupo_90860" data-name="Grupo 90860" transform="translate(639.663 124.386)">
        <path id="Trazado_144193" data-name="Trazado 144193" d="M674.631,141.161a18.194,18.194,0,1,0,18.194,18.194,18.2,18.2,0,0,0-18.194-18.194Zm0,33.355a15.161,15.161,0,1,1,15.162-15.161,15.161,15.161,0,0,1-15.162,15.161Zm0,0" transform="translate(-636.728 -121.451)" fill="#12263f"/>
        <path id="Trazado_144194" data-name="Trazado 144194" d="M673.05,150.194a7.58,7.58,0,1,0,7.581,7.58,7.578,7.578,0,0,0-7.581-7.58Zm0,12.128a4.548,4.548,0,1,1,4.548-4.548,4.547,4.547,0,0,1-4.548,4.548Zm0,0" transform="translate(-635.147 -119.87)" fill="#12263f"/>
        <path id="Trazado_144195" data-name="Trazado 144195" d="M711.668,154.308l-5.1-.851a30.068,30.068,0,0,0-2.255-5.418l3.011-4.216a4.534,4.534,0,0,0-.485-5.86l-4.944-4.947a4.535,4.535,0,0,0-5.859-.486l-4.219,3.012a29.99,29.99,0,0,0-5.421-2.254l-.851-5.1a4.535,4.535,0,0,0-4.483-3.8H674.07a4.533,4.533,0,0,0-4.486,3.8l-.851,5.1a30.089,30.089,0,0,0-5.418,2.254l-4.215-3.012a4.534,4.534,0,0,0-5.861.486l-4.947,4.944a4.531,4.531,0,0,0-.486,5.857l3.011,4.221a30.033,30.033,0,0,0-2.254,5.42l-5.1.851a4.536,4.536,0,0,0-3.8,4.484v6.992a4.535,4.535,0,0,0,3.8,4.486l5.1.851a30.129,30.129,0,0,0,2.254,5.418l-3.011,4.215a4.535,4.535,0,0,0,.486,5.86l4.944,4.944a4.528,4.528,0,0,0,5.857.485l4.215-3.012a30.219,30.219,0,0,0,5.424,2.255l.851,5.1a4.533,4.533,0,0,0,4.486,3.8h6.992a4.535,4.535,0,0,0,4.486-3.8l.851-5.1a30.133,30.133,0,0,0,5.418-2.255l4.214,3.012a4.537,4.537,0,0,0,5.861-.485l4.943-4.944a4.531,4.531,0,0,0,.485-5.859l-3.007-4.219a30,30,0,0,0,2.255-5.421l5.1-.851a4.533,4.533,0,0,0,3.8-4.483v-6.992a4.533,4.533,0,0,0-3.8-4.486Zm-34.1,35.272a27.29,27.29,0,1,1,27.29-27.29,27.288,27.288,0,0,1-27.29,27.29ZM697.8,135a1.516,1.516,0,0,1,1.95.162l4.944,4.944a1.518,1.518,0,0,1,.161,1.952l-2.255,3.156a30.591,30.591,0,0,0-7.962-7.962Zm-25.226-6.313a1.517,1.517,0,0,1,1.5-1.267h6.992a1.516,1.516,0,0,1,1.495,1.267l.638,3.826a29.361,29.361,0,0,0-11.258,0Zm-22.3,13.37a1.518,1.518,0,0,1,.162-1.952l4.944-4.944a1.518,1.518,0,0,1,1.952-.161l3.156,2.255a30.61,30.61,0,0,0-7.962,7.962Zm-6.313,25.225a1.516,1.516,0,0,1-1.267-1.495v-6.992a1.517,1.517,0,0,1,1.267-1.5l3.826-.638a29.367,29.367,0,0,0,0,11.259Zm13.37,22.3a1.516,1.516,0,0,1-1.952-.162l-4.944-4.943a1.515,1.515,0,0,1-.161-1.952l2.255-3.157a30.564,30.564,0,0,0,7.962,7.959Zm25.225,6.313a1.515,1.515,0,0,1-1.495,1.265H674.07a1.516,1.516,0,0,1-1.5-1.265l-.637-3.827a29.361,29.361,0,0,0,11.258,0Zm22.3-13.37a1.516,1.516,0,0,1-.162,1.952l-4.943,4.944a1.518,1.518,0,0,1-1.952.161l-3.157-2.255a30.556,30.556,0,0,0,7.962-7.962Zm7.581-16.737a1.516,1.516,0,0,1-1.267,1.495l-3.826.638a29.411,29.411,0,0,0,0-11.259l3.826.638a1.517,1.517,0,0,1,1.267,1.5Zm0,0" transform="translate(-639.663 -124.387)" fill="#12263f"/>
        <rect id="Rectángulo_35544" data-name="Rectángulo 35544" width="93.892" height="93.892" transform="translate(0 0)" fill="none"/>
      </g>
    </g>
  </g>
</svg>
