<svg xmlns="http://www.w3.org/2000/svg" xmlns:xlink="http://www.w3.org/1999/xlink" width="93.748" height="94" viewBox="0 0 93.748 94">
  <defs>
    <clipPath id="clip-path">
      <rect id="Rectángulo_35545" data-name="Rectángulo 35545" width="93.748" height="94" transform="translate(582.044 185.728)" fill="none"/>
    </clipPath>
  </defs>
  <g id="Grupo_90864" data-name="Grupo 90864" transform="translate(-582.044 -185.728)">
    <g id="Grupo_90863" data-name="Grupo 90863">
      <g id="Grupo_90862" data-name="Grupo 90862" clip-path="url(#clip-path)">
        <path id="Trazado_144196" data-name="Trazado 144196" d="M644.039,215.969a31.754,31.754,0,1,0,31.753,31.753,31.756,31.756,0,0,0-31.753-31.753Zm12.125,33.184L636.072,260.11a1.512,1.512,0,0,1-2.237-1.327V236.866a1.513,1.513,0,0,1,2.237-1.328l20.092,10.96a1.512,1.512,0,0,1,0,2.655Zm0,0" fill="#4dd0e1"/>
        <path id="Trazado_144197" data-name="Trazado 144197" d="M628.18,186.332l-26.933,15.393-15.037,1.254a4.561,4.561,0,0,0-4.166,4.522v15.6a4.56,4.56,0,0,0,4.16,4.52l15.01,1.252,26.829,16.6a4.538,4.538,0,0,0,6.924-3.856V190.264a4.537,4.537,0,0,0-6.787-3.932ZM585.068,223.1V207.5a1.522,1.522,0,0,1,1.387-1.512l13.734-1.141v20.9l-13.734-1.144a1.522,1.522,0,0,1-1.387-1.506Zm46.874,18.523a1.512,1.512,0,0,1-2.307,1.285l-26.422-16.357V204.083l26.461-15.12a1.512,1.512,0,0,1,2.268,1.3Zm0,0" fill="#12263f"/>
      </g>
    </g>
    <path id="Trazado_144198" data-name="Trazado 144198" d="M640.338,206.358a1.514,1.514,0,0,0-.677,2.029,14.566,14.566,0,0,1,0,13.827,1.513,1.513,0,1,0,2.707,1.353,17.641,17.641,0,0,0,0-16.532,1.511,1.511,0,0,0-2.03-.677Zm0,0" fill="#12263f"/>
    <path id="Trazado_144199" data-name="Trazado 144199" d="M651.145,201.343a1.512,1.512,0,1,0-2.705,1.351,26.567,26.567,0,0,1,0,25.213,1.512,1.512,0,1,0,2.705,1.352,29.783,29.783,0,0,0,0-27.916Zm0,0" fill="#12263f"/>
  </g>
</svg>
